<svg width="497" height="204" viewBox="0 0 497 204" fill="none" xmlns="http://www.w3.org/2000/svg">
<g clip-path="url(#clip0_467_3764)">
<rect x="0.5" width="496" height="204" rx="8" fill="#0E0F13"/>
<rect x="109.335" y="130.364" width="19.8093" height="19.8093" fill="#2C333A"/>
<rect x="49.9067" y="50.7601" width="19.8093" height="19.8093" fill="#2C333A"/>
<rect x="367.589" y="51.127" width="19.8093" height="19.8093" fill="#2C333A"/>
<rect x="407.208" y="170.35" width="19.8093" height="19.8093" fill="#2C333A"/>
<rect x="406.841" y="90.7456" width="19.8093" height="19.8093" fill="#2C333A"/>
<rect x="427.018" y="189.792" width="19.8093" height="19.8093" fill="#2C333A"/>
<rect x="168.763" y="70.9363" width="39.6186" height="19.8093" fill="#2C333A"/>
<rect x="9.6499" y="-169.229" width="0.366839" height="638.438" fill="#151920"/>
<rect x="29.5122" y="-169.229" width="0.366839" height="638.438" fill="#151920"/>
<rect x="49.375" y="-169.229" width="0.366839" height="638.438" fill="#151920"/>
<rect x="69.2373" y="-169.229" width="0.366839" height="638.438" fill="#151920"/>
<rect x="89.1001" y="-169.229" width="0.366839" height="638.438" fill="#151920"/>
<rect x="108.962" y="-169.229" width="0.366839" height="638.438" fill="#151920"/>
<rect x="128.825" y="-169.229" width="0.366839" height="638.438" fill="#151920"/>
<rect x="148.688" y="-169.229" width="0.366839" height="638.438" fill="#151920"/>
<rect x="168.55" y="-169.229" width="0.366839" height="638.438" fill="#151920"/>
<rect x="188.412" y="-169.229" width="0.366839" height="638.438" fill="#151920"/>
<rect x="208.274" y="-169.229" width="0.366839" height="638.438" fill="#151920"/>
<rect x="228.137" y="-169.229" width="0.366839" height="638.438" fill="#151920"/>
<rect x="248" y="-169.229" width="0.366839" height="638.438" fill="#151920"/>
<rect x="267.862" y="-169.229" width="0.366839" height="638.438" fill="#151920"/>
<rect x="287.725" y="-169.229" width="0.366839" height="638.438" fill="#151920"/>
<rect x="307.587" y="-169.229" width="0.366839" height="638.438" fill="#151920"/>
<rect x="327.45" y="-169.229" width="0.366839" height="638.438" fill="#151920"/>
<rect x="347.312" y="-169.229" width="0.366839" height="638.438" fill="#151920"/>
<rect x="367.175" y="-169.229" width="0.366839" height="638.438" fill="#151920"/>
<rect x="387.037" y="-169.229" width="0.366839" height="638.438" fill="#151920"/>
<rect x="406.9" y="-169.229" width="0.366839" height="638.438" fill="#151920"/>
<rect x="426.762" y="-169.229" width="0.366839" height="638.438" fill="#151920"/>
<rect x="446.625" y="-169.229" width="0.366839" height="638.438" fill="#151920"/>
<rect x="466.487" y="-169.229" width="0.366839" height="638.438" fill="#151920"/>
<rect x="486.35" y="-169.229" width="0.366839" height="638.438" fill="#151920"/>
<rect x="-319.5" y="190.188" width="0.366839" height="1135" transform="rotate(-90 -319.5 190.188)" fill="#151920"/>
<rect x="-319.5" y="170.326" width="0.366839" height="1135" transform="rotate(-90 -319.5 170.326)" fill="#151920"/>
<rect x="-319.5" y="150.464" width="0.366839" height="1135" transform="rotate(-90 -319.5 150.464)" fill="#151920"/>
<rect x="-319.5" y="130.601" width="0.366839" height="1135" transform="rotate(-90 -319.5 130.601)" fill="#151920"/>
<rect x="-319.5" y="110.739" width="0.366839" height="1135" transform="rotate(-90 -319.5 110.739)" fill="#151920"/>
<rect x="-319.5" y="90.8757" width="0.366839" height="1135" transform="rotate(-90 -319.5 90.8757)" fill="#151920"/>
<rect x="-319.5" y="71.0134" width="0.366839" height="1135" transform="rotate(-90 -319.5 71.0134)" fill="#151920"/>
<rect x="-319.5" y="51.1508" width="0.366839" height="1135" transform="rotate(-90 -319.5 51.1508)" fill="#151920"/>
<rect x="-319.5" y="31.2885" width="0.366839" height="1135" transform="rotate(-90 -319.5 31.2885)" fill="#151920"/>
<rect x="-319.5" y="11.4258" width="0.366839" height="1135" transform="rotate(-90 -319.5 11.4258)" fill="#151920"/>
<g filter="url(#filter0_di_467_3764)">
<path d="M220.5 102C220.5 86.536 233.036 74 248.5 74C263.964 74 276.5 86.536 276.5 102C276.5 117.464 263.964 130 248.5 130C233.036 130 220.5 117.464 220.5 102Z" fill="#1D2125"/>
<path d="M221 102C221 86.8122 233.312 74.5 248.5 74.5C263.688 74.5 276 86.8122 276 102C276 117.188 263.688 129.5 248.5 129.5C233.312 129.5 221 117.188 221 102Z" stroke="#282E33"/>
<path d="M248.5 100.25C251.399 100.25 253.75 97.8995 253.75 95C253.75 92.1005 251.399 89.75 248.5 89.75C245.601 89.75 243.25 92.1005 243.25 95C243.25 97.8995 245.601 100.25 248.5 100.25Z" fill="#596773"/>
<path d="M236.25 116C236.25 109.235 241.735 103.75 248.5 103.75C255.265 103.75 260.75 109.235 260.75 116H236.25Z" fill="#596773"/>
</g>
<g filter="url(#filter1_ddddii_467_3764)">
<path d="M76.5 31C76.5 28.7909 78.2909 27 80.5 27H164.5C166.709 27 168.5 28.7909 168.5 31V43C168.5 45.2091 166.709 47 164.5 47H80.5C78.2909 47 76.5 45.2091 76.5 43V31Z" fill="#38C793"/>
<path d="M76.5 31C76.5 28.7909 78.2909 27 80.5 27H164.5C166.709 27 168.5 28.7909 168.5 31V43C168.5 45.2091 166.709 47 164.5 47H80.5C78.2909 47 76.5 45.2091 76.5 43V31Z" fill="url(#paint0_linear_467_3764)" fill-opacity="0.02"/>
<g filter="url(#filter2_d_467_3764)">
<path d="M85.3789 41V33H86.5859V36.4766H90.5742V33H91.7852V41H90.5742V37.5117H86.5859V41H85.3789ZM93.6692 41V35H94.8372V41H93.6692ZM94.2591 34.0742C94.0559 34.0742 93.8815 34.0065 93.7356 33.8711C93.5924 33.7331 93.5208 33.569 93.5208 33.3789C93.5208 33.1862 93.5924 33.0221 93.7356 32.8867C93.8815 32.7487 94.0559 32.6797 94.2591 32.6797C94.4622 32.6797 94.6354 32.7487 94.7786 32.8867C94.9244 33.0221 94.9973 33.1862 94.9973 33.3789C94.9973 33.569 94.9244 33.7331 94.7786 33.8711C94.6354 34.0065 94.4622 34.0742 94.2591 34.0742ZM99.1441 43.375C98.6675 43.375 98.2574 43.3125 97.9136 43.1875C97.5725 43.0625 97.2938 42.8971 97.0777 42.6914C96.8615 42.4857 96.7001 42.2604 96.5933 42.0156L97.5972 41.6016C97.6675 41.7161 97.7613 41.8372 97.8785 41.9648C97.9983 42.0951 98.1597 42.2057 98.3629 42.2969C98.5686 42.388 98.8329 42.4336 99.1558 42.4336C99.5985 42.4336 99.9644 42.3255 100.253 42.1094C100.543 41.8958 100.687 41.5547 100.687 41.0859V39.9062H100.613C100.543 40.0339 100.441 40.1758 100.308 40.332C100.178 40.4883 99.9983 40.6237 99.7691 40.7383C99.5399 40.8529 99.2418 40.9102 98.8746 40.9102C98.4006 40.9102 97.9735 40.7995 97.5933 40.5781C97.2157 40.3542 96.9162 40.0247 96.6949 39.5898C96.4761 39.1523 96.3668 38.6146 96.3668 37.9766C96.3668 37.3385 96.4748 36.7917 96.691 36.3359C96.9097 35.8802 97.2092 35.5312 97.5894 35.2891C97.9696 35.0443 98.4006 34.9219 98.8824 34.9219C99.2548 34.9219 99.5556 34.9844 99.7847 35.1094C100.014 35.2318 100.192 35.375 100.32 35.5391C100.45 35.7031 100.55 35.8477 100.621 35.9727H100.707V35H101.851V41.1328C101.851 41.6484 101.731 42.0716 101.492 42.4023C101.252 42.7331 100.928 42.9779 100.519 43.1367C100.113 43.2956 99.6545 43.375 99.1441 43.375ZM99.1324 39.9414C99.4683 39.9414 99.7522 39.8633 99.9839 39.707C100.218 39.5482 100.395 39.3216 100.515 39.0273C100.638 38.7305 100.699 38.375 100.699 37.9609C100.699 37.5573 100.639 37.2018 100.519 36.8945C100.399 36.5872 100.224 36.3477 99.9918 36.1758C99.76 36.0013 99.4735 35.9141 99.1324 35.9141C98.7808 35.9141 98.4879 36.0052 98.2535 36.1875C98.0191 36.3672 97.842 36.612 97.7222 36.9219C97.605 37.2318 97.5464 37.5781 97.5464 37.9609C97.5464 38.3542 97.6063 38.6992 97.7261 38.9961C97.8459 39.293 98.023 39.5247 98.2574 39.6914C98.4944 39.8581 98.786 39.9414 99.1324 39.9414ZM104.806 37.4375V41H103.638V33H104.79V35.9766H104.864C105.005 35.6536 105.22 35.3971 105.509 35.207C105.798 35.0169 106.175 34.9219 106.641 34.9219C107.053 34.9219 107.412 35.0065 107.72 35.1758C108.029 35.3451 108.269 35.5977 108.438 35.9336C108.61 36.2669 108.696 36.6836 108.696 37.1836V41H107.528V37.3242C107.528 36.8841 107.415 36.543 107.188 36.3008C106.962 36.056 106.647 35.9336 106.243 35.9336C105.967 35.9336 105.72 35.9922 105.501 36.1094C105.285 36.2266 105.114 36.3984 104.989 36.625C104.867 36.849 104.806 37.1198 104.806 37.4375ZM113.7 41V33H114.907V39.9609H118.532V41H113.7ZM120.035 41V35H121.203V41H120.035ZM120.625 34.0742C120.422 34.0742 120.247 34.0065 120.101 33.8711C119.958 33.7331 119.886 33.569 119.886 33.3789C119.886 33.1862 119.958 33.0221 120.101 32.8867C120.247 32.7487 120.422 32.6797 120.625 32.6797C120.828 32.6797 121.001 32.7487 121.144 32.8867C121.29 33.0221 121.363 33.1862 121.363 33.3789C121.363 33.569 121.29 33.7331 121.144 33.8711C121.001 34.0065 120.828 34.0742 120.625 34.0742ZM127.045 43.25V40.0664H126.975C126.904 40.194 126.803 40.3398 126.67 40.5039C126.54 40.668 126.36 40.8112 126.131 40.9336C125.902 41.056 125.605 41.1172 125.24 41.1172C124.756 41.1172 124.324 40.9935 123.943 40.7461C123.566 40.4961 123.269 40.1406 123.053 39.6797C122.839 39.2161 122.732 38.6602 122.732 38.0117C122.732 37.3633 122.84 36.8086 123.057 36.3477C123.275 35.8867 123.575 35.5339 123.955 35.2891C124.335 35.0443 124.766 34.9219 125.248 34.9219C125.62 34.9219 125.92 34.9844 126.146 35.1094C126.376 35.2318 126.553 35.375 126.678 35.5391C126.805 35.7031 126.904 35.8477 126.975 35.9727H127.072V35H128.213V43.25H127.045ZM125.498 40.1211C125.834 40.1211 126.118 40.0326 126.35 39.8555C126.584 39.6758 126.761 39.4271 126.881 39.1094C127.003 38.7917 127.064 38.4219 127.064 38C127.064 37.5833 127.005 37.2187 126.885 36.9062C126.765 36.5937 126.589 36.3503 126.357 36.1758C126.126 36.0013 125.839 35.9141 125.498 35.9141C125.146 35.9141 124.853 36.0052 124.619 36.1875C124.385 36.3698 124.208 36.6185 124.088 36.9336C123.971 37.2487 123.912 37.6042 123.912 38C123.912 38.401 123.972 38.7617 124.092 39.082C124.212 39.4023 124.389 39.6562 124.623 39.8437C124.86 40.0286 125.152 40.1211 125.498 40.1211ZM133.804 38.5117V35H134.976V41H133.827V39.9609H133.765C133.627 40.2813 133.406 40.5482 133.101 40.7617C132.799 40.9727 132.422 41.0781 131.972 41.0781C131.586 41.0781 131.245 40.9935 130.948 40.8242C130.654 40.6523 130.422 40.3984 130.253 40.0625C130.086 39.7266 130.003 39.3112 130.003 38.8164V35H131.171V38.6758C131.171 39.0846 131.284 39.4102 131.511 39.6523C131.738 39.8945 132.032 40.0156 132.394 40.0156C132.613 40.0156 132.83 39.9609 133.046 39.8516C133.265 39.7422 133.446 39.5768 133.589 39.3555C133.735 39.1341 133.807 38.8529 133.804 38.5117ZM136.765 41V35H137.933V41H136.765ZM137.355 34.0742C137.152 34.0742 136.977 34.0065 136.832 33.8711C136.688 33.7331 136.617 33.569 136.617 33.3789C136.617 33.1862 136.688 33.0221 136.832 32.8867C136.977 32.7487 137.152 32.6797 137.355 32.6797C137.558 32.6797 137.731 32.7487 137.875 32.8867C138.02 33.0221 138.093 33.1862 138.093 33.3789C138.093 33.569 138.02 33.7331 137.875 33.8711C137.731 34.0065 137.558 34.0742 137.355 34.0742ZM141.971 41.1172C141.486 41.1172 141.054 40.9935 140.674 40.7461C140.296 40.4961 139.999 40.1406 139.783 39.6797C139.569 39.2161 139.463 38.6602 139.463 38.0117C139.463 37.3633 139.571 36.8086 139.787 36.3477C140.006 35.8867 140.305 35.5339 140.685 35.2891C141.066 35.0443 141.497 34.9219 141.978 34.9219C142.351 34.9219 142.65 34.9844 142.877 35.1094C143.106 35.2318 143.283 35.375 143.408 35.5391C143.536 35.7031 143.635 35.8477 143.705 35.9727H143.775V33H144.943V41H143.803V40.0664H143.705C143.635 40.194 143.533 40.3398 143.4 40.5039C143.27 40.668 143.09 40.8112 142.861 40.9336C142.632 41.056 142.335 41.1172 141.971 41.1172ZM142.228 40.1211C142.564 40.1211 142.848 40.0326 143.08 39.8555C143.314 39.6758 143.491 39.4271 143.611 39.1094C143.734 38.7917 143.795 38.4219 143.795 38C143.795 37.5833 143.735 37.2187 143.615 36.9062C143.495 36.5937 143.319 36.3503 143.088 36.1758C142.856 36.0013 142.569 35.9141 142.228 35.9141C141.877 35.9141 141.584 36.0052 141.349 36.1875C141.115 36.3698 140.938 36.6185 140.818 36.9336C140.701 37.2487 140.642 37.6042 140.642 38C140.642 38.401 140.702 38.7617 140.822 39.082C140.942 39.4023 141.119 39.6562 141.353 39.8437C141.59 40.0286 141.882 40.1211 142.228 40.1211ZM146.83 41V35H147.998V41H146.83ZM147.42 34.0742C147.217 34.0742 147.042 34.0065 146.897 33.8711C146.753 33.7331 146.682 33.569 146.682 33.3789C146.682 33.1862 146.753 33.0221 146.897 32.8867C147.042 32.7487 147.217 32.6797 147.42 32.6797C147.623 32.6797 147.796 32.7487 147.94 32.8867C148.085 33.0221 148.158 33.1862 148.158 33.3789C148.158 33.569 148.085 33.7331 147.94 33.8711C147.796 34.0065 147.623 34.0742 147.42 34.0742ZM152.59 35V35.9375H149.313V35H152.59ZM150.192 33.5625H151.36V39.2383C151.36 39.4648 151.394 39.6354 151.461 39.75C151.529 39.862 151.616 39.9388 151.723 39.9805C151.832 40.0195 151.951 40.0391 152.078 40.0391C152.172 40.0391 152.254 40.0326 152.325 40.0195C152.395 40.0065 152.45 39.9961 152.489 39.9883L152.7 40.9531C152.632 40.9792 152.536 41.0052 152.411 41.0313C152.286 41.0599 152.129 41.0755 151.942 41.0781C151.634 41.0833 151.348 41.0286 151.082 40.9141C150.817 40.7995 150.602 40.6224 150.438 40.3828C150.274 40.1432 150.192 39.8424 150.192 39.4805V33.5625ZM154.84 43.25C154.666 43.25 154.507 43.2357 154.364 43.207C154.221 43.181 154.114 43.1523 154.044 43.1211L154.325 42.1641C154.538 42.2214 154.728 42.2461 154.895 42.2383C155.062 42.2305 155.209 42.168 155.337 42.0508C155.467 41.9336 155.581 41.7422 155.68 41.4766L155.825 41.0781L153.63 35H154.88L156.399 39.6562H156.462L157.981 35H159.235L156.762 41.8008C156.648 42.1133 156.502 42.3776 156.325 42.5938C156.148 42.8125 155.937 42.9766 155.692 43.0859C155.447 43.1953 155.163 43.25 154.84 43.25Z" fill="white"/>
</g>
</g>
<g filter="url(#filter3_ddddi_467_3764)">
<path d="M74.5 160C74.5 157.791 76.2909 156 78.5 156H159.5C161.709 156 163.5 157.791 163.5 160V172C163.5 174.209 161.709 176 159.5 176H78.5C76.2909 176 74.5 174.209 74.5 172V160Z" fill="#DF1C41"/>
<path d="M74.5 160C74.5 157.791 76.2909 156 78.5 156H159.5C161.709 156 163.5 157.791 163.5 160V172C163.5 174.209 161.709 176 159.5 176H78.5C76.2909 176 74.5 174.209 74.5 172V160Z" fill="url(#paint1_linear_467_3764)" fill-opacity="0.02"/>
<g filter="url(#filter4_d_467_3764)">
<path d="M83.3789 170V162H84.5859V168.961H88.2109V170H83.3789ZM92.2415 170.121C91.679 170.121 91.1881 169.992 90.7688 169.734C90.3496 169.477 90.024 169.116 89.7923 168.652C89.5605 168.189 89.4446 167.647 89.4446 167.027C89.4446 166.405 89.5605 165.861 89.7923 165.395C90.024 164.928 90.3496 164.566 90.7688 164.309C91.1881 164.051 91.679 163.922 92.2415 163.922C92.804 163.922 93.2949 164.051 93.7141 164.309C94.1334 164.566 94.4589 164.928 94.6907 165.395C94.9225 165.861 95.0384 166.405 95.0384 167.027C95.0384 167.647 94.9225 168.189 94.6907 168.652C94.4589 169.116 94.1334 169.477 93.7141 169.734C93.2949 169.992 92.804 170.121 92.2415 170.121ZM92.2454 169.141C92.61 169.141 92.9121 169.044 93.1516 168.852C93.3912 168.659 93.5683 168.402 93.6829 168.082C93.8001 167.762 93.8587 167.409 93.8587 167.023C93.8587 166.641 93.8001 166.289 93.6829 165.969C93.5683 165.646 93.3912 165.387 93.1516 165.191C92.9121 164.996 92.61 164.898 92.2454 164.898C91.8782 164.898 91.5735 164.996 91.3313 165.191C91.0917 165.387 90.9134 165.646 90.7962 165.969C90.6816 166.289 90.6243 166.641 90.6243 167.023C90.6243 167.409 90.6816 167.762 90.7962 168.082C90.9134 168.402 91.0917 168.659 91.3313 168.852C91.5735 169.044 91.8782 169.141 92.2454 169.141ZM97.6802 170L95.9146 164H97.1216L98.2974 168.406H98.356L99.5357 164H100.743L101.915 168.387H101.973L103.141 164H104.348L102.586 170H101.395L100.176 165.668H100.086L98.8677 170H97.6802ZM108.901 170V162H110.109V168.961H113.734V170H108.901ZM115.237 170V164H116.405V170H115.237ZM115.827 163.074C115.623 163.074 115.449 163.007 115.303 162.871C115.16 162.733 115.088 162.569 115.088 162.379C115.088 162.186 115.16 162.022 115.303 161.887C115.449 161.749 115.623 161.68 115.827 161.68C116.03 161.68 116.203 161.749 116.346 161.887C116.492 162.022 116.565 162.186 116.565 162.379C116.565 162.569 116.492 162.733 116.346 162.871C116.203 163.007 116.03 163.074 115.827 163.074ZM122.247 172.25V169.066H122.176C122.106 169.194 122.005 169.34 121.872 169.504C121.742 169.668 121.562 169.811 121.333 169.934C121.104 170.056 120.807 170.117 120.442 170.117C119.958 170.117 119.525 169.993 119.145 169.746C118.768 169.496 118.471 169.141 118.255 168.68C118.041 168.216 117.934 167.66 117.934 167.012C117.934 166.363 118.042 165.809 118.258 165.348C118.477 164.887 118.777 164.534 119.157 164.289C119.537 164.044 119.968 163.922 120.45 163.922C120.822 163.922 121.122 163.984 121.348 164.109C121.577 164.232 121.755 164.375 121.88 164.539C122.007 164.703 122.106 164.848 122.176 164.973H122.274V164H123.415V172.25H122.247ZM120.7 169.121C121.036 169.121 121.32 169.033 121.551 168.855C121.786 168.676 121.963 168.427 122.083 168.109C122.205 167.792 122.266 167.422 122.266 167C122.266 166.583 122.206 166.219 122.087 165.906C121.967 165.594 121.791 165.35 121.559 165.176C121.327 165.001 121.041 164.914 120.7 164.914C120.348 164.914 120.055 165.005 119.821 165.188C119.587 165.37 119.41 165.618 119.29 165.934C119.173 166.249 119.114 166.604 119.114 167C119.114 167.401 119.174 167.762 119.294 168.082C119.413 168.402 119.591 168.656 119.825 168.844C120.062 169.029 120.354 169.121 120.7 169.121ZM129.006 167.512V164H130.178V170H129.029V168.961H128.967C128.829 169.281 128.607 169.548 128.303 169.762C128.001 169.973 127.624 170.078 127.174 170.078C126.788 170.078 126.447 169.993 126.15 169.824C125.856 169.652 125.624 169.398 125.455 169.062C125.288 168.727 125.205 168.311 125.205 167.816V164H126.373V167.676C126.373 168.085 126.486 168.41 126.713 168.652C126.939 168.895 127.234 169.016 127.596 169.016C127.814 169.016 128.032 168.961 128.248 168.852C128.467 168.742 128.648 168.577 128.791 168.355C128.937 168.134 129.008 167.853 129.006 167.512ZM131.967 170V164H133.135V170H131.967ZM132.557 163.074C132.354 163.074 132.179 163.007 132.033 162.871C131.89 162.733 131.819 162.569 131.819 162.379C131.819 162.186 131.89 162.022 132.033 161.887C132.179 161.749 132.354 161.68 132.557 161.68C132.76 161.68 132.933 161.749 133.076 161.887C133.222 162.022 133.295 162.186 133.295 162.379C133.295 162.569 133.222 162.733 133.076 162.871C132.933 163.007 132.76 163.074 132.557 163.074ZM137.172 170.117C136.688 170.117 136.256 169.993 135.876 169.746C135.498 169.496 135.201 169.141 134.985 168.68C134.771 168.216 134.665 167.66 134.665 167.012C134.665 166.363 134.773 165.809 134.989 165.348C135.208 164.887 135.507 164.534 135.887 164.289C136.267 164.044 136.698 163.922 137.18 163.922C137.553 163.922 137.852 163.984 138.079 164.109C138.308 164.232 138.485 164.375 138.61 164.539C138.737 164.703 138.836 164.848 138.907 164.973H138.977V162H140.145V170H139.004V169.066H138.907C138.836 169.194 138.735 169.34 138.602 169.504C138.472 169.668 138.292 169.811 138.063 169.934C137.834 170.056 137.537 170.117 137.172 170.117ZM137.43 169.121C137.766 169.121 138.05 169.033 138.282 168.855C138.516 168.676 138.693 168.427 138.813 168.109C138.935 167.792 138.997 167.422 138.997 167C138.997 166.583 138.937 166.219 138.817 165.906C138.697 165.594 138.521 165.35 138.29 165.176C138.058 165.001 137.771 164.914 137.43 164.914C137.079 164.914 136.786 165.005 136.551 165.188C136.317 165.37 136.14 165.618 136.02 165.934C135.903 166.249 135.844 166.604 135.844 167C135.844 167.401 135.904 167.762 136.024 168.082C136.144 168.402 136.321 168.656 136.555 168.844C136.792 169.029 137.084 169.121 137.43 169.121ZM142.032 170V164H143.2V170H142.032ZM142.622 163.074C142.419 163.074 142.244 163.007 142.098 162.871C141.955 162.733 141.884 162.569 141.884 162.379C141.884 162.186 141.955 162.022 142.098 161.887C142.244 161.749 142.419 161.68 142.622 161.68C142.825 161.68 142.998 161.749 143.141 161.887C143.287 162.022 143.36 162.186 143.36 162.379C143.36 162.569 143.287 162.733 143.141 162.871C142.998 163.007 142.825 163.074 142.622 163.074ZM147.792 164V164.937H144.515V164H147.792ZM145.394 162.562H146.562V168.238C146.562 168.465 146.595 168.635 146.663 168.75C146.731 168.862 146.818 168.939 146.925 168.98C147.034 169.02 147.153 169.039 147.28 169.039C147.374 169.039 147.456 169.033 147.526 169.02C147.597 169.007 147.651 168.996 147.691 168.988L147.901 169.953C147.834 169.979 147.737 170.005 147.612 170.031C147.487 170.06 147.331 170.076 147.144 170.078C146.836 170.083 146.55 170.029 146.284 169.914C146.019 169.799 145.804 169.622 145.64 169.383C145.476 169.143 145.394 168.842 145.394 168.48V162.562ZM150.042 172.25C149.868 172.25 149.709 172.236 149.566 172.207C149.423 172.181 149.316 172.152 149.245 172.121L149.527 171.164C149.74 171.221 149.93 171.246 150.097 171.238C150.264 171.23 150.411 171.168 150.538 171.051C150.669 170.934 150.783 170.742 150.882 170.477L151.027 170.078L148.831 164H150.081L151.601 168.656H151.663L153.183 164H154.437L151.964 170.801C151.85 171.113 151.704 171.378 151.527 171.594C151.35 171.813 151.139 171.977 150.894 172.086C150.649 172.195 150.365 172.25 150.042 172.25Z" fill="white"/>
</g>
</g>
<g filter="url(#filter5_ddddii_467_3764)">
<path d="M363.5 126C363.5 123.791 365.291 122 367.5 122H469.5C471.709 122 473.5 123.791 473.5 126V138C473.5 140.209 471.709 142 469.5 142H367.5C365.291 142 363.5 140.209 363.5 138V126Z" fill="#006ACC"/>
<path d="M363.5 126C363.5 123.791 365.291 122 367.5 122H469.5C471.709 122 473.5 123.791 473.5 126V138C473.5 140.209 471.709 142 469.5 142H367.5C365.291 142 363.5 140.209 363.5 138V126Z" fill="url(#paint2_linear_467_3764)" fill-opacity="0.02"/>
<g filter="url(#filter6_d_467_3764)">
<path d="M372.379 128H373.844L376.391 134.219H376.484L379.031 128H380.496V136H379.348V130.211H379.273L376.914 135.988H375.961L373.602 130.207H373.527V136H372.379V128ZM384.963 136.121C384.372 136.121 383.863 135.995 383.436 135.742C383.011 135.487 382.683 135.129 382.451 134.668C382.222 134.204 382.108 133.661 382.108 133.039C382.108 132.424 382.222 131.883 382.451 131.414C382.683 130.945 383.006 130.579 383.42 130.316C383.837 130.053 384.324 129.922 384.881 129.922C385.22 129.922 385.548 129.978 385.866 130.09C386.183 130.202 386.468 130.378 386.721 130.617C386.974 130.857 387.173 131.168 387.319 131.551C387.464 131.931 387.537 132.393 387.537 132.937V133.352H382.768V132.477H386.393C386.393 132.169 386.33 131.897 386.205 131.66C386.08 131.421 385.905 131.232 385.678 131.094C385.454 130.956 385.191 130.887 384.889 130.887C384.561 130.887 384.274 130.967 384.03 131.129C383.787 131.288 383.6 131.496 383.467 131.754C383.337 132.009 383.272 132.286 383.272 132.586V133.27C383.272 133.671 383.342 134.012 383.483 134.293C383.626 134.574 383.825 134.789 384.08 134.937C384.336 135.083 384.634 135.156 384.975 135.156C385.196 135.156 385.398 135.125 385.58 135.062C385.763 134.997 385.92 134.901 386.053 134.773C386.186 134.646 386.287 134.488 386.358 134.301L387.463 134.5C387.375 134.826 387.216 135.111 386.987 135.355C386.76 135.598 386.475 135.786 386.131 135.922C385.79 136.055 385.401 136.121 384.963 136.121ZM391.299 136.117C390.815 136.117 390.383 135.993 390.003 135.746C389.625 135.496 389.328 135.141 389.112 134.68C388.898 134.216 388.792 133.66 388.792 133.012C388.792 132.363 388.9 131.809 389.116 131.348C389.335 130.887 389.634 130.534 390.014 130.289C390.394 130.044 390.825 129.922 391.307 129.922C391.68 129.922 391.979 129.984 392.206 130.109C392.435 130.232 392.612 130.375 392.737 130.539C392.864 130.703 392.963 130.848 393.034 130.973H393.104V128H394.272V136H393.131V135.066H393.034C392.963 135.194 392.862 135.34 392.729 135.504C392.599 135.668 392.419 135.811 392.19 135.934C391.961 136.056 391.664 136.117 391.299 136.117ZM391.557 135.121C391.893 135.121 392.177 135.033 392.409 134.855C392.643 134.676 392.82 134.427 392.94 134.109C393.062 133.792 393.124 133.422 393.124 133C393.124 132.583 393.064 132.219 392.944 131.906C392.824 131.594 392.648 131.35 392.417 131.176C392.185 131.001 391.898 130.914 391.557 130.914C391.206 130.914 390.913 131.005 390.678 131.188C390.444 131.37 390.267 131.618 390.147 131.934C390.03 132.249 389.971 132.604 389.971 133C389.971 133.401 390.031 133.762 390.151 134.082C390.271 134.402 390.448 134.656 390.682 134.844C390.919 135.029 391.211 135.121 391.557 135.121ZM396.159 136V130H397.327V136H396.159ZM396.749 129.074C396.546 129.074 396.371 129.007 396.225 128.871C396.082 128.733 396.011 128.569 396.011 128.379C396.011 128.186 396.082 128.022 396.225 127.887C396.371 127.749 396.546 127.68 396.749 127.68C396.952 127.68 397.125 127.749 397.268 127.887C397.414 128.022 397.487 128.186 397.487 128.379C397.487 128.569 397.414 128.733 397.268 128.871C397.125 129.007 396.952 129.074 396.749 129.074ZM402.919 133.512V130H404.091V136H402.942V134.961H402.88C402.742 135.281 402.521 135.548 402.216 135.762C401.914 135.973 401.538 136.078 401.087 136.078C400.702 136.078 400.36 135.993 400.064 135.824C399.769 135.652 399.538 135.398 399.368 135.062C399.202 134.727 399.118 134.311 399.118 133.816V130H400.286V133.676C400.286 134.085 400.4 134.41 400.626 134.652C400.853 134.895 401.147 135.016 401.509 135.016C401.728 135.016 401.945 134.961 402.161 134.852C402.38 134.742 402.561 134.577 402.704 134.355C402.85 134.134 402.922 133.853 402.919 133.512ZM405.88 136V130H407.001V130.977H407.076C407.201 130.646 407.405 130.388 407.689 130.203C407.973 130.016 408.313 129.922 408.708 129.922C409.109 129.922 409.445 130.016 409.716 130.203C409.99 130.391 410.191 130.648 410.322 130.977H410.384C410.527 130.656 410.755 130.401 411.068 130.211C411.38 130.018 411.753 129.922 412.185 129.922C412.729 129.922 413.173 130.092 413.517 130.434C413.863 130.775 414.037 131.289 414.037 131.977V136H412.869V132.086C412.869 131.68 412.758 131.385 412.537 131.203C412.315 131.021 412.051 130.93 411.744 130.93C411.363 130.93 411.068 131.047 410.857 131.281C410.646 131.513 410.54 131.811 410.54 132.176V136H409.376V132.012C409.376 131.686 409.275 131.424 409.072 131.227C408.869 131.029 408.604 130.93 408.279 130.93C408.057 130.93 407.853 130.988 407.665 131.105C407.481 131.22 407.331 131.38 407.216 131.586C407.104 131.792 407.048 132.03 407.048 132.301V136H405.88ZM419.047 136V128H420.254V134.961H423.879V136H419.047ZM425.382 136V130H426.55V136H425.382ZM425.972 129.074C425.769 129.074 425.594 129.007 425.448 128.871C425.305 128.733 425.234 128.569 425.234 128.379C425.234 128.186 425.305 128.022 425.448 127.887C425.594 127.749 425.769 127.68 425.972 127.68C426.175 127.68 426.348 127.749 426.491 127.887C426.637 128.022 426.71 128.186 426.71 128.379C426.71 128.569 426.637 128.733 426.491 128.871C426.348 129.007 426.175 129.074 425.972 129.074ZM432.392 138.25V135.066H432.322C432.251 135.194 432.15 135.34 432.017 135.504C431.887 135.668 431.707 135.811 431.478 135.934C431.249 136.056 430.952 136.117 430.587 136.117C430.103 136.117 429.671 135.993 429.291 135.746C428.913 135.496 428.616 135.141 428.4 134.68C428.186 134.216 428.08 133.66 428.08 133.012C428.08 132.363 428.188 131.809 428.404 131.348C428.623 130.887 428.922 130.534 429.302 130.289C429.682 130.044 430.113 129.922 430.595 129.922C430.968 129.922 431.267 129.984 431.494 130.109C431.723 130.232 431.9 130.375 432.025 130.539C432.153 130.703 432.251 130.848 432.322 130.973H432.419V130H433.56V138.25H432.392ZM430.845 135.121C431.181 135.121 431.465 135.033 431.697 134.855C431.931 134.676 432.108 134.427 432.228 134.109C432.35 133.792 432.412 133.422 432.412 133C432.412 132.583 432.352 132.219 432.232 131.906C432.112 131.594 431.936 131.35 431.705 131.176C431.473 131.001 431.186 130.914 430.845 130.914C430.494 130.914 430.201 131.005 429.966 131.188C429.732 131.37 429.555 131.618 429.435 131.934C429.318 132.249 429.259 132.604 429.259 133C429.259 133.401 429.319 133.762 429.439 134.082C429.559 134.402 429.736 134.656 429.97 134.844C430.207 135.029 430.499 135.121 430.845 135.121ZM439.151 133.512V130H440.323V136H439.175V134.961H439.112C438.974 135.281 438.753 135.548 438.448 135.762C438.146 135.973 437.77 136.078 437.319 136.078C436.934 136.078 436.593 135.993 436.296 135.824C436.001 135.652 435.77 135.398 435.6 135.062C435.434 134.727 435.35 134.311 435.35 133.816V130H436.518V133.676C436.518 134.085 436.632 134.41 436.858 134.652C437.085 134.895 437.379 135.016 437.741 135.016C437.96 135.016 438.177 134.961 438.393 134.852C438.612 134.742 438.793 134.577 438.936 134.355C439.082 134.134 439.154 133.853 439.151 133.512ZM442.112 136V130H443.28V136H442.112ZM442.702 129.074C442.499 129.074 442.325 129.007 442.179 128.871C442.036 128.733 441.964 128.569 441.964 128.379C441.964 128.186 442.036 128.022 442.179 127.887C442.325 127.749 442.499 127.68 442.702 127.68C442.905 127.68 443.079 127.749 443.222 127.887C443.368 128.022 443.441 128.186 443.441 128.379C443.441 128.569 443.368 128.733 443.222 128.871C443.079 129.007 442.905 129.074 442.702 129.074ZM447.318 136.117C446.833 136.117 446.401 135.993 446.021 135.746C445.643 135.496 445.346 135.141 445.13 134.68C444.917 134.216 444.81 133.66 444.81 133.012C444.81 132.363 444.918 131.809 445.134 131.348C445.353 130.887 445.652 130.534 446.033 130.289C446.413 130.044 446.844 129.922 447.326 129.922C447.698 129.922 447.997 129.984 448.224 130.109C448.453 130.232 448.63 130.375 448.755 130.539C448.883 130.703 448.982 130.848 449.052 130.973H449.122V128H450.29V136H449.15V135.066H449.052C448.982 135.194 448.88 135.34 448.747 135.504C448.617 135.668 448.438 135.811 448.208 135.934C447.979 136.056 447.682 136.117 447.318 136.117ZM447.576 135.121C447.911 135.121 448.195 135.033 448.427 134.855C448.661 134.676 448.839 134.427 448.958 134.109C449.081 133.792 449.142 133.422 449.142 133C449.142 132.583 449.082 132.219 448.962 131.906C448.842 131.594 448.667 131.35 448.435 131.176C448.203 131.001 447.917 130.914 447.576 130.914C447.224 130.914 446.931 131.005 446.697 131.188C446.462 131.37 446.285 131.618 446.165 131.934C446.048 132.249 445.99 132.604 445.99 133C445.99 133.401 446.05 133.762 446.169 134.082C446.289 134.402 446.466 134.656 446.701 134.844C446.938 135.029 447.229 135.121 447.576 135.121ZM452.177 136V130H453.345V136H452.177ZM452.767 129.074C452.564 129.074 452.39 129.007 452.244 128.871C452.101 128.733 452.029 128.569 452.029 128.379C452.029 128.186 452.101 128.022 452.244 127.887C452.39 127.749 452.564 127.68 452.767 127.68C452.97 127.68 453.144 127.749 453.287 127.887C453.433 128.022 453.506 128.186 453.506 128.379C453.506 128.569 453.433 128.733 453.287 128.871C453.144 129.007 452.97 129.074 452.767 129.074ZM457.937 130V130.937H454.66V130H457.937ZM455.539 128.562H456.707V134.238C456.707 134.465 456.741 134.635 456.809 134.75C456.876 134.862 456.963 134.939 457.07 134.98C457.18 135.02 457.298 135.039 457.426 135.039C457.519 135.039 457.601 135.033 457.672 135.02C457.742 135.007 457.797 134.996 457.836 134.988L458.047 135.953C457.979 135.979 457.883 136.005 457.758 136.031C457.633 136.06 457.476 136.076 457.289 136.078C456.982 136.083 456.695 136.029 456.43 135.914C456.164 135.799 455.949 135.622 455.785 135.383C455.621 135.143 455.539 134.842 455.539 134.48V128.562ZM460.188 138.25C460.013 138.25 459.854 138.236 459.711 138.207C459.568 138.181 459.461 138.152 459.391 138.121L459.672 137.164C459.886 137.221 460.076 137.246 460.242 137.238C460.409 137.23 460.556 137.168 460.684 137.051C460.814 136.934 460.929 136.742 461.028 136.477L461.172 136.078L458.977 130H460.227L461.746 134.656H461.809L463.328 130H464.582L462.11 136.801C461.995 137.113 461.849 137.378 461.672 137.594C461.495 137.813 461.284 137.977 461.039 138.086C460.794 138.195 460.511 138.25 460.188 138.25Z" fill="white"/>
</g>
</g>
<path opacity="0.4" d="M168.5 39L207.895 39L207.895 103L219.5 103" stroke="url(#paint3_linear_467_3764)" strokeWidth="0.5"/>
<g filter="url(#filter7_f_467_3764)">
<path d="M168.5 39L207.895 39L207.895 103L219.5 103" stroke="url(#paint4_linear_467_3764)"/>
</g>
<path opacity="0.4" d="M361.5 133L295.841 133L295.841 103L276.5 103" stroke="url(#paint5_linear_467_3764)"/>
<g filter="url(#filter8_f_467_3764)">
<path d="M361.5 133L295.841 133L295.841 103L276.5 103" stroke="url(#paint6_linear_467_3764)"/>
</g>
<path opacity="0.4" d="M150.5 167L217.345 167L247.5 167L247.5 133" stroke="url(#paint7_linear_467_3764)"/>
<g filter="url(#filter9_f_467_3764)">
<path d="M150.5 167L208.957 167L247.5 167L247.5 133" stroke="url(#paint8_linear_467_3764)"/>
</g>
</g>
<defs>
<filter id="filter0_di_467_3764" x="217.5" y="71" width="62" height="62" filterUnits="userSpaceOnUse" color-interpolation-filters="sRGB">
<feFlood flood-opacity="0" result="BackgroundImageFix"/>
<feColorMatrix in="SourceAlpha" type="matrix" values="0 0 0 0 0 0 0 0 0 0 0 0 0 0 0 0 0 0 127 0" result="hardAlpha"/>
<feMorphology radius="1" operator="dilate" in="SourceAlpha" result="effect1_dropShadow_467_3764"/>
<feOffset/>
<feGaussianBlur stdDeviation="1"/>
<feComposite in2="hardAlpha" operator="out"/>
<feColorMatrix type="matrix" values="0 0 0 0 0 0 0 0 0 0 0 0 0 0 0 0 0 0 0.05 0"/>
<feBlend mode="normal" in2="BackgroundImageFix" result="effect1_dropShadow_467_3764"/>
<feBlend mode="normal" in="SourceGraphic" in2="effect1_dropShadow_467_3764" result="shape"/>
<feColorMatrix in="SourceAlpha" type="matrix" values="0 0 0 0 0 0 0 0 0 0 0 0 0 0 0 0 0 0 127 0" result="hardAlpha"/>
<feOffset dy="-2"/>
<feGaussianBlur stdDeviation="4"/>
<feComposite in2="hardAlpha" operator="arithmetic" k2="-1" k3="1"/>
<feColorMatrix type="matrix" values="0 0 0 0 0.196078 0 0 0 0 0.196078 0 0 0 0 0.196078 0 0 0 0.22 0"/>
<feBlend mode="normal" in2="shape" result="effect2_innerShadow_467_3764"/>
</filter>
<filter id="filter1_ddddii_467_3764" x="68.5" y="23" width="108" height="36" filterUnits="userSpaceOnUse" color-interpolation-filters="sRGB">
<feFlood flood-opacity="0" result="BackgroundImageFix"/>
<feColorMatrix in="SourceAlpha" type="matrix" values="0 0 0 0 0 0 0 0 0 0 0 0 0 0 0 0 0 0 127 0" result="hardAlpha"/>
<feMorphology radius="4" operator="erode" in="SourceAlpha" result="effect1_dropShadow_467_3764"/>
<feOffset dy="4"/>
<feGaussianBlur stdDeviation="6"/>
<feColorMatrix type="matrix" values="0 0 0 0 0.156863 0 0 0 0 0.180392 0 0 0 0 0.2 0 0 0 0.06 0"/>
<feBlend mode="normal" in2="BackgroundImageFix" result="effect1_dropShadow_467_3764"/>
<feColorMatrix in="SourceAlpha" type="matrix" values="0 0 0 0 0 0 0 0 0 0 0 0 0 0 0 0 0 0 127 0" result="hardAlpha"/>
<feMorphology radius="2" operator="erode" in="SourceAlpha" result="effect2_dropShadow_467_3764"/>
<feOffset dy="2"/>
<feGaussianBlur stdDeviation="2"/>
<feComposite in2="hardAlpha" operator="out"/>
<feColorMatrix type="matrix" values="0 0 0 0 0.12549 0 0 0 0 0.137255 0 0 0 0 0.176471 0 0 0 0.1 0"/>
<feBlend mode="normal" in2="effect1_dropShadow_467_3764" result="effect2_dropShadow_467_3764"/>
<feColorMatrix in="SourceAlpha" type="matrix" values="0 0 0 0 0 0 0 0 0 0 0 0 0 0 0 0 0 0 127 0" result="hardAlpha"/>
<feMorphology radius="1" operator="dilate" in="SourceAlpha" result="effect3_dropShadow_467_3764"/>
<feOffset/>
<feComposite in2="hardAlpha" operator="out"/>
<feColorMatrix type="matrix" values="0 0 0 0 0.156863 0 0 0 0 0.552941 0 0 0 0 0.407843 0 0 0 0.7 0"/>
<feBlend mode="normal" in2="effect2_dropShadow_467_3764" result="effect3_dropShadow_467_3764"/>
<feColorMatrix in="SourceAlpha" type="matrix" values="0 0 0 0 0 0 0 0 0 0 0 0 0 0 0 0 0 0 127 0" result="hardAlpha"/>
<feMorphology radius="0.5" operator="dilate" in="SourceAlpha" result="effect4_dropShadow_467_3764"/>
<feOffset dy="1"/>
<feGaussianBlur stdDeviation="0.5"/>
<feComposite in2="hardAlpha" operator="out"/>
<feColorMatrix type="matrix" values="0 0 0 0 0 0 0 0 0 0 0 0 0 0 0 0 0 0 0.4 0"/>
<feBlend mode="normal" in2="effect3_dropShadow_467_3764" result="effect4_dropShadow_467_3764"/>
<feBlend mode="normal" in="SourceGraphic" in2="effect4_dropShadow_467_3764" result="shape"/>
<feColorMatrix in="SourceAlpha" type="matrix" values="0 0 0 0 0 0 0 0 0 0 0 0 0 0 0 0 0 0 127 0" result="hardAlpha"/>
<feOffset dy="-2"/>
<feGaussianBlur stdDeviation="1"/>
<feComposite in2="hardAlpha" operator="arithmetic" k2="-1" k3="1"/>
<feColorMatrix type="matrix" values="0 0 0 0 0 0 0 0 0 0 0 0 0 0 0 0 0 0 0.1 0"/>
<feBlend mode="normal" in2="shape" result="effect5_innerShadow_467_3764"/>
<feColorMatrix in="SourceAlpha" type="matrix" values="0 0 0 0 0 0 0 0 0 0 0 0 0 0 0 0 0 0 127 0" result="hardAlpha"/>
<feOffset dy="2"/>
<feGaussianBlur stdDeviation="0.5"/>
<feComposite in2="hardAlpha" operator="arithmetic" k2="-1" k3="1"/>
<feColorMatrix type="matrix" values="0 0 0 0 1 0 0 0 0 1 0 0 0 0 1 0 0 0 0.2 0"/>
<feBlend mode="normal" in2="effect5_innerShadow_467_3764" result="effect6_innerShadow_467_3764"/>
</filter>
<filter id="filter2_d_467_3764" x="84.3789" y="32.6797" width="75.856" height="12.6953" filterUnits="userSpaceOnUse" color-interpolation-filters="sRGB">
<feFlood flood-opacity="0" result="BackgroundImageFix"/>
<feColorMatrix in="SourceAlpha" type="matrix" values="0 0 0 0 0 0 0 0 0 0 0 0 0 0 0 0 0 0 127 0" result="hardAlpha"/>
<feOffset dy="1"/>
<feGaussianBlur stdDeviation="0.5"/>
<feComposite in2="hardAlpha" operator="out"/>
<feColorMatrix type="matrix" values="0 0 0 0 0 0 0 0 0 0 0 0 0 0 0 0 0 0 0.2 0"/>
<feBlend mode="normal" in2="BackgroundImageFix" result="effect1_dropShadow_467_3764"/>
<feBlend mode="normal" in="SourceGraphic" in2="effect1_dropShadow_467_3764" result="shape"/>
</filter>
<filter id="filter3_ddddi_467_3764" x="66.5" y="152" width="105" height="36" filterUnits="userSpaceOnUse" color-interpolation-filters="sRGB">
<feFlood flood-opacity="0" result="BackgroundImageFix"/>
<feColorMatrix in="SourceAlpha" type="matrix" values="0 0 0 0 0 0 0 0 0 0 0 0 0 0 0 0 0 0 127 0" result="hardAlpha"/>
<feMorphology radius="4" operator="erode" in="SourceAlpha" result="effect1_dropShadow_467_3764"/>
<feOffset dy="4"/>
<feGaussianBlur stdDeviation="6"/>
<feColorMatrix type="matrix" values="0 0 0 0 0.156863 0 0 0 0 0.180392 0 0 0 0 0.2 0 0 0 0.06 0"/>
<feBlend mode="normal" in2="BackgroundImageFix" result="effect1_dropShadow_467_3764"/>
<feColorMatrix in="SourceAlpha" type="matrix" values="0 0 0 0 0 0 0 0 0 0 0 0 0 0 0 0 0 0 127 0" result="hardAlpha"/>
<feMorphology radius="2" operator="erode" in="SourceAlpha" result="effect2_dropShadow_467_3764"/>
<feOffset dy="2"/>
<feGaussianBlur stdDeviation="2"/>
<feComposite in2="hardAlpha" operator="out"/>
<feColorMatrix type="matrix" values="0 0 0 0 0.12549 0 0 0 0 0.137255 0 0 0 0 0.176471 0 0 0 0.1 0"/>
<feBlend mode="normal" in2="effect1_dropShadow_467_3764" result="effect2_dropShadow_467_3764"/>
<feColorMatrix in="SourceAlpha" type="matrix" values="0 0 0 0 0 0 0 0 0 0 0 0 0 0 0 0 0 0 127 0" result="hardAlpha"/>
<feMorphology radius="1" operator="dilate" in="SourceAlpha" result="effect3_dropShadow_467_3764"/>
<feOffset/>
<feComposite in2="hardAlpha" operator="out"/>
<feColorMatrix type="matrix" values="0 0 0 0 0.847059 0 0 0 0 0 0 0 0 0 0.152941 0 0 0 0.5 0"/>
<feBlend mode="normal" in2="effect2_dropShadow_467_3764" result="effect3_dropShadow_467_3764"/>
<feColorMatrix in="SourceAlpha" type="matrix" values="0 0 0 0 0 0 0 0 0 0 0 0 0 0 0 0 0 0 127 0" result="hardAlpha"/>
<feMorphology radius="0.5" operator="dilate" in="SourceAlpha" result="effect4_dropShadow_467_3764"/>
<feOffset dy="1"/>
<feGaussianBlur stdDeviation="0.5"/>
<feComposite in2="hardAlpha" operator="out"/>
<feColorMatrix type="matrix" values="0 0 0 0 0 0 0 0 0 0 0 0 0 0 0 0 0 0 0.4 0"/>
<feBlend mode="normal" in2="effect3_dropShadow_467_3764" result="effect4_dropShadow_467_3764"/>
<feBlend mode="normal" in="SourceGraphic" in2="effect4_dropShadow_467_3764" result="shape"/>
<feColorMatrix in="SourceAlpha" type="matrix" values="0 0 0 0 0 0 0 0 0 0 0 0 0 0 0 0 0 0 127 0" result="hardAlpha"/>
<feOffset dy="2"/>
<feGaussianBlur stdDeviation="0.5"/>
<feComposite in2="hardAlpha" operator="arithmetic" k2="-1" k3="1"/>
<feColorMatrix type="matrix" values="0 0 0 0 1 0 0 0 0 1 0 0 0 0 1 0 0 0 0.2 0"/>
<feBlend mode="normal" in2="shape" result="effect5_innerShadow_467_3764"/>
</filter>
<filter id="filter4_d_467_3764" x="82.3789" y="161.68" width="73.0581" height="12.5703" filterUnits="userSpaceOnUse" color-interpolation-filters="sRGB">
<feFlood flood-opacity="0" result="BackgroundImageFix"/>
<feColorMatrix in="SourceAlpha" type="matrix" values="0 0 0 0 0 0 0 0 0 0 0 0 0 0 0 0 0 0 127 0" result="hardAlpha"/>
<feOffset dy="1"/>
<feGaussianBlur stdDeviation="0.5"/>
<feComposite in2="hardAlpha" operator="out"/>
<feColorMatrix type="matrix" values="0 0 0 0 0 0 0 0 0 0 0 0 0 0 0 0 0 0 0.2 0"/>
<feBlend mode="normal" in2="BackgroundImageFix" result="effect1_dropShadow_467_3764"/>
<feBlend mode="normal" in="SourceGraphic" in2="effect1_dropShadow_467_3764" result="shape"/>
</filter>
<filter id="filter5_ddddii_467_3764" x="355.5" y="118" width="126" height="36" filterUnits="userSpaceOnUse" color-interpolation-filters="sRGB">
<feFlood flood-opacity="0" result="BackgroundImageFix"/>
<feColorMatrix in="SourceAlpha" type="matrix" values="0 0 0 0 0 0 0 0 0 0 0 0 0 0 0 0 0 0 127 0" result="hardAlpha"/>
<feMorphology radius="4" operator="erode" in="SourceAlpha" result="effect1_dropShadow_467_3764"/>
<feOffset dy="4"/>
<feGaussianBlur stdDeviation="6"/>
<feColorMatrix type="matrix" values="0 0 0 0 0.156863 0 0 0 0 0.180392 0 0 0 0 0.2 0 0 0 0.06 0"/>
<feBlend mode="normal" in2="BackgroundImageFix" result="effect1_dropShadow_467_3764"/>
<feColorMatrix in="SourceAlpha" type="matrix" values="0 0 0 0 0 0 0 0 0 0 0 0 0 0 0 0 0 0 127 0" result="hardAlpha"/>
<feMorphology radius="2" operator="erode" in="SourceAlpha" result="effect2_dropShadow_467_3764"/>
<feOffset dy="2"/>
<feGaussianBlur stdDeviation="2"/>
<feComposite in2="hardAlpha" operator="out"/>
<feColorMatrix type="matrix" values="0 0 0 0 0.12549 0 0 0 0 0.137255 0 0 0 0 0.176471 0 0 0 0.1 0"/>
<feBlend mode="normal" in2="effect1_dropShadow_467_3764" result="effect2_dropShadow_467_3764"/>
<feColorMatrix in="SourceAlpha" type="matrix" values="0 0 0 0 0 0 0 0 0 0 0 0 0 0 0 0 0 0 127 0" result="hardAlpha"/>
<feMorphology radius="1" operator="dilate" in="SourceAlpha" result="effect3_dropShadow_467_3764"/>
<feOffset/>
<feComposite in2="hardAlpha" operator="out"/>
<feColorMatrix type="matrix" values="0 0 0 0 0 0 0 0 0 0.415686 0 0 0 0 0.8 0 0 0 0.7 0"/>
<feBlend mode="normal" in2="effect2_dropShadow_467_3764" result="effect3_dropShadow_467_3764"/>
<feColorMatrix in="SourceAlpha" type="matrix" values="0 0 0 0 0 0 0 0 0 0 0 0 0 0 0 0 0 0 127 0" result="hardAlpha"/>
<feMorphology radius="0.5" operator="dilate" in="SourceAlpha" result="effect4_dropShadow_467_3764"/>
<feOffset dy="1"/>
<feGaussianBlur stdDeviation="0.5"/>
<feComposite in2="hardAlpha" operator="out"/>
<feColorMatrix type="matrix" values="0 0 0 0 0 0 0 0 0 0 0 0 0 0 0 0 0 0 0.4 0"/>
<feBlend mode="normal" in2="effect3_dropShadow_467_3764" result="effect4_dropShadow_467_3764"/>
<feBlend mode="normal" in="SourceGraphic" in2="effect4_dropShadow_467_3764" result="shape"/>
<feColorMatrix in="SourceAlpha" type="matrix" values="0 0 0 0 0 0 0 0 0 0 0 0 0 0 0 0 0 0 127 0" result="hardAlpha"/>
<feOffset dy="2"/>
<feGaussianBlur stdDeviation="0.5"/>
<feComposite in2="hardAlpha" operator="arithmetic" k2="-1" k3="1"/>
<feColorMatrix type="matrix" values="0 0 0 0 1 0 0 0 0 1 0 0 0 0 1 0 0 0 0.2 0"/>
<feBlend mode="normal" in2="shape" result="effect5_innerShadow_467_3764"/>
<feColorMatrix in="SourceAlpha" type="matrix" values="0 0 0 0 0 0 0 0 0 0 0 0 0 0 0 0 0 0 127 0" result="hardAlpha"/>
<feOffset dy="-2"/>
<feGaussianBlur stdDeviation="1"/>
<feComposite in2="hardAlpha" operator="arithmetic" k2="-1" k3="1"/>
<feColorMatrix type="matrix" values="0 0 0 0 0 0 0 0 0 0 0 0 0 0 0 0 0 0 0.1 0"/>
<feBlend mode="normal" in2="effect5_innerShadow_467_3764" result="effect6_innerShadow_467_3764"/>
</filter>
<filter id="filter6_d_467_3764" x="371.379" y="127.68" width="94.2031" height="12.5703" filterUnits="userSpaceOnUse" color-interpolation-filters="sRGB">
<feFlood flood-opacity="0" result="BackgroundImageFix"/>
<feColorMatrix in="SourceAlpha" type="matrix" values="0 0 0 0 0 0 0 0 0 0 0 0 0 0 0 0 0 0 127 0" result="hardAlpha"/>
<feOffset dy="1"/>
<feGaussianBlur stdDeviation="0.5"/>
<feComposite in2="hardAlpha" operator="out"/>
<feColorMatrix type="matrix" values="0 0 0 0 0 0 0 0 0 0 0 0 0 0 0 0 0 0 0.2 0"/>
<feBlend mode="normal" in2="BackgroundImageFix" result="effect1_dropShadow_467_3764"/>
<feBlend mode="normal" in="SourceGraphic" in2="effect1_dropShadow_467_3764" result="shape"/>
</filter>
<filter id="filter7_f_467_3764" x="163.5" y="33.5" width="61" height="75" filterUnits="userSpaceOnUse" color-interpolation-filters="sRGB">
<feFlood flood-opacity="0" result="BackgroundImageFix"/>
<feBlend mode="normal" in="SourceGraphic" in2="BackgroundImageFix" result="shape"/>
<feGaussianBlur stdDeviation="2.5" result="effect1_foregroundBlur_467_3764"/>
</filter>
<filter id="filter8_f_467_3764" x="271.5" y="97.5" width="95" height="41" filterUnits="userSpaceOnUse" color-interpolation-filters="sRGB">
<feFlood flood-opacity="0" result="BackgroundImageFix"/>
<feBlend mode="normal" in="SourceGraphic" in2="BackgroundImageFix" result="shape"/>
<feGaussianBlur stdDeviation="2.5" result="effect1_foregroundBlur_467_3764"/>
</filter>
<filter id="filter9_f_467_3764" x="145.5" y="128" width="107.5" height="44.5" filterUnits="userSpaceOnUse" color-interpolation-filters="sRGB">
<feFlood flood-opacity="0" result="BackgroundImageFix"/>
<feBlend mode="normal" in="SourceGraphic" in2="BackgroundImageFix" result="shape"/>
<feGaussianBlur stdDeviation="2.5" result="effect1_foregroundBlur_467_3764"/>
</filter>
<linearGradient id="paint0_linear_467_3764" x1="122.5" y1="27" x2="122.5" y2="47" gradientUnits="userSpaceOnUse">
<stop stop-color="white"/>
<stop offset="0.485" stop-color="white" stop-opacity="0"/>
</linearGradient>
<linearGradient id="paint1_linear_467_3764" x1="119" y1="156" x2="119" y2="176" gradientUnits="userSpaceOnUse">
<stop stop-color="white"/>
<stop offset="1" stop-color="white" stop-opacity="0"/>
</linearGradient>
<linearGradient id="paint2_linear_467_3764" x1="418.5" y1="122" x2="418.5" y2="142" gradientUnits="userSpaceOnUse">
<stop stop-color="white"/>
<stop offset="1" stop-color="white" stop-opacity="0"/>
</linearGradient>
<linearGradient id="paint3_linear_467_3764" x1="219.43" y1="104.27" x2="166.652" y2="102.998" gradientUnits="userSpaceOnUse">
<stop offset="0.0777048" stop-color="#38C793" stop-opacity="0"/>
<stop offset="0.229961" stop-color="#38C793"/>
<stop offset="0.997253" stop-color="#38C793" stop-opacity="0"/>
</linearGradient>
<linearGradient id="paint4_linear_467_3764" x1="219.43" y1="104.27" x2="166.652" y2="102.998" gradientUnits="userSpaceOnUse">
<stop offset="0.0777048" stop-color="#38C793" stop-opacity="0"/>
<stop offset="0.348258" stop-color="#38C793"/>
<stop offset="0.669258" stop-color="#38C793" stop-opacity="0"/>
</linearGradient>
<linearGradient id="paint5_linear_467_3764" x1="276.617" y1="102.404" x2="363.989" y2="109.893" gradientUnits="userSpaceOnUse">
<stop stop-color="#006ACC" stop-opacity="0"/>
<stop offset="0.27" stop-color="#006ACC"/>
<stop offset="1" stop-color="#006ACC" stop-opacity="0"/>
</linearGradient>
<linearGradient id="paint6_linear_467_3764" x1="276.617" y1="102.404" x2="363.989" y2="109.893" gradientUnits="userSpaceOnUse">
<stop offset="0.0777048" stop-color="#006ACC" stop-opacity="0"/>
<stop offset="0.348258" stop-color="#006ACC"/>
<stop offset="0.669258" stop-color="#006ACC" stop-opacity="0"/>
</linearGradient>
<linearGradient id="paint7_linear_467_3764" x1="248.099" y1="133.206" x2="160.552" y2="171.671" gradientUnits="userSpaceOnUse">
<stop stop-color="#D80027" stop-opacity="0"/>
<stop offset="0.27" stop-color="#D80027"/>
<stop offset="1" stop-color="#D80027" stop-opacity="0"/>
</linearGradient>
<linearGradient id="paint8_linear_467_3764" x1="248.265" y1="133.206" x2="157.036" y2="179.798" gradientUnits="userSpaceOnUse">
<stop offset="0.0777048" stop-color="#D80027" stop-opacity="0"/>
<stop offset="0.348258" stop-color="#D80027"/>
<stop offset="0.669258" stop-color="#D80027" stop-opacity="0"/>
</linearGradient>
<clipPath id="clip0_467_3764">
<rect x="0.5" width="496" height="204" rx="8" fill="white"/>
</clipPath>
</defs>
</svg>
