<svg width="497" height="204" viewBox="0 0 497 204" fill="none" xmlns="http://www.w3.org/2000/svg">
<g clip-path="url(#clip0_467_4066)">
<rect x="0.5" width="496" height="204" rx="8" fill="#0E0F13"/>
<rect x="109.335" y="130.364" width="19.8093" height="19.8093" fill="#151920"/>
<rect x="49.9067" y="50.7601" width="19.8093" height="19.8093" fill="#151920"/>
<rect x="367.589" y="51.127" width="19.8093" height="19.8093" fill="#151920"/>
<rect x="407.208" y="170.35" width="19.8093" height="19.8093" fill="#151920"/>
<rect x="406.841" y="90.7456" width="19.8093" height="19.8093" fill="#151920"/>
<rect x="427.018" y="189.792" width="19.8093" height="19.8093" fill="#151920"/>
<rect x="168.763" y="70.9363" width="39.6186" height="19.8093" fill="#151920"/>
<rect x="9.6499" y="-169.229" width="0.366839" height="638.438" fill="#151920"/>
<rect x="29.5122" y="-169.229" width="0.366839" height="638.438" fill="#151920"/>
<rect x="49.375" y="-169.229" width="0.366839" height="638.438" fill="#151920"/>
<rect x="69.2373" y="-169.229" width="0.366839" height="638.438" fill="#151920"/>
<rect x="89.1001" y="-169.229" width="0.366839" height="638.438" fill="#151920"/>
<rect x="108.962" y="-169.229" width="0.366839" height="638.438" fill="#151920"/>
<rect x="128.825" y="-169.229" width="0.366839" height="638.438" fill="#151920"/>
<rect x="148.688" y="-169.229" width="0.366839" height="638.438" fill="#151920"/>
<rect x="168.55" y="-169.229" width="0.366839" height="638.438" fill="#151920"/>
<rect x="188.412" y="-169.229" width="0.366839" height="638.438" fill="#151920"/>
<rect x="208.274" y="-169.229" width="0.366839" height="638.438" fill="#151920"/>
<rect x="228.137" y="-169.229" width="0.366839" height="638.438" fill="#151920"/>
<rect x="248" y="-169.229" width="0.366839" height="638.438" fill="#151920"/>
<rect x="267.862" y="-169.229" width="0.366839" height="638.438" fill="#151920"/>
<rect x="287.725" y="-169.229" width="0.366839" height="638.438" fill="#151920"/>
<rect x="307.587" y="-169.229" width="0.366839" height="638.438" fill="#151920"/>
<rect x="327.45" y="-169.229" width="0.366839" height="638.438" fill="#151920"/>
<rect x="347.312" y="-169.229" width="0.366839" height="638.438" fill="#151920"/>
<rect x="367.175" y="-169.229" width="0.366839" height="638.438" fill="#151920"/>
<rect x="387.037" y="-169.229" width="0.366839" height="638.438" fill="#151920"/>
<rect x="406.9" y="-169.229" width="0.366839" height="638.438" fill="#151920"/>
<rect x="426.762" y="-169.229" width="0.366839" height="638.438" fill="#151920"/>
<rect x="446.625" y="-169.229" width="0.366839" height="638.438" fill="#151920"/>
<rect x="466.487" y="-169.229" width="0.366839" height="638.438" fill="#151920"/>
<rect x="486.35" y="-169.229" width="0.366839" height="638.438" fill="#151920"/>
<rect x="-319.5" y="190.188" width="0.366839" height="1135" transform="rotate(-90 -319.5 190.188)" fill="#151920"/>
<rect x="-319.5" y="170.326" width="0.366839" height="1135" transform="rotate(-90 -319.5 170.326)" fill="#151920"/>
<rect x="-319.5" y="150.464" width="0.366839" height="1135" transform="rotate(-90 -319.5 150.464)" fill="#151920"/>
<rect x="-319.5" y="130.601" width="0.366839" height="1135" transform="rotate(-90 -319.5 130.601)" fill="#151920"/>
<rect x="-319.5" y="110.738" width="0.366839" height="1135" transform="rotate(-90 -319.5 110.738)" fill="#151920"/>
<rect x="-319.5" y="90.8758" width="0.366839" height="1135" transform="rotate(-90 -319.5 90.8758)" fill="#151920"/>
<rect x="-319.5" y="71.0135" width="0.366839" height="1135" transform="rotate(-90 -319.5 71.0135)" fill="#151920"/>
<rect x="-319.5" y="51.1508" width="0.366839" height="1135" transform="rotate(-90 -319.5 51.1508)" fill="#151920"/>
<rect x="-319.5" y="31.2885" width="0.366839" height="1135" transform="rotate(-90 -319.5 31.2885)" fill="#151920"/>
<rect x="-319.5" y="11.4258" width="0.366839" height="1135" transform="rotate(-90 -319.5 11.4258)" fill="#151920"/>
<g filter="url(#filter0_bd_467_4066)">
<g clip-path="url(#clip1_467_4066)">
<path d="M8.5 20L438.5 20" stroke="url(#paint0_linear_467_4066)" strokeDasharray="2 2"/>
<g filter="url(#filter1_bii_467_4066)">
<rect x="439.5" y="15" width="40" height="32" rx="2" fill="#22272B" fill-opacity="0.5"/>
<path d="M444.855 26.7273V19.4545H445.321V26.7273H444.855ZM446.312 21.7102C446.282 21.4413 446.157 21.233 445.938 21.0852C445.718 20.9356 445.441 20.8608 445.108 20.8608C444.869 20.8608 444.663 20.8987 444.489 20.9744C444.314 21.0483 444.179 21.1506 444.082 21.2812C443.988 21.41 443.94 21.5568 443.94 21.7216C443.94 21.8598 443.973 21.9792 444.037 22.0795C444.103 22.1799 444.189 22.2642 444.295 22.3324C444.403 22.3987 444.519 22.4545 444.642 22.5C444.765 22.5436 444.884 22.5795 444.997 22.608L445.565 22.7557C445.751 22.8011 445.941 22.8627 446.136 22.9403C446.331 23.018 446.512 23.1203 446.679 23.2472C446.846 23.3741 446.98 23.5312 447.082 23.7188C447.187 23.9062 447.239 24.1307 447.239 24.392C447.239 24.7216 447.153 25.0142 446.983 25.2699C446.814 25.5256 446.569 25.7273 446.247 25.875C445.927 26.0227 445.54 26.0966 445.085 26.0966C444.65 26.0966 444.273 26.0275 443.955 25.8892C443.636 25.7509 443.387 25.5549 443.207 25.3011C443.027 25.0455 442.928 24.7424 442.909 24.392H443.79C443.807 24.6023 443.875 24.7775 443.994 24.9176C444.116 25.0559 444.27 25.1591 444.457 25.2273C444.647 25.2936 444.854 25.3267 445.08 25.3267C445.328 25.3267 445.548 25.2879 445.741 25.2102C445.937 25.1307 446.09 25.0208 446.202 24.8807C446.313 24.7386 446.369 24.5729 446.369 24.3835C446.369 24.2112 446.32 24.0701 446.222 23.9602C446.125 23.8504 445.993 23.7595 445.827 23.6875C445.662 23.6155 445.475 23.5521 445.267 23.4972L444.58 23.3097C444.114 23.1828 443.744 22.9962 443.472 22.75C443.201 22.5038 443.065 22.178 443.065 21.7727C443.065 21.4375 443.156 21.1449 443.338 20.8949C443.52 20.6449 443.766 20.4508 444.077 20.3125C444.387 20.1723 444.738 20.1023 445.128 20.1023C445.522 20.1023 445.869 20.1714 446.17 20.3097C446.473 20.4479 446.712 20.6383 446.886 20.8807C447.061 21.1212 447.152 21.3977 447.159 21.7102H446.312ZM450.399 26.0795C450.14 26.0758 449.884 26.0284 449.632 25.9375C449.382 25.8466 449.155 25.6951 448.95 25.483C448.746 25.2708 448.582 24.9858 448.459 24.6278C448.338 24.2699 448.277 23.8229 448.277 23.2869C448.277 22.7794 448.327 22.3286 448.428 21.9347C448.53 21.5407 448.677 21.2083 448.868 20.9375C449.059 20.6648 449.29 20.4574 449.561 20.3153C449.832 20.1733 450.136 20.1023 450.473 20.1023C450.82 20.1023 451.128 20.1705 451.397 20.3068C451.665 20.4432 451.883 20.6316 452.05 20.8722C452.218 21.1127 452.325 21.3864 452.371 21.6932H451.504C451.446 21.4508 451.329 21.2528 451.155 21.0994C450.981 20.946 450.754 20.8693 450.473 20.8693C450.047 20.8693 449.715 21.0549 449.476 21.4261C449.239 21.7973 449.12 22.3134 449.118 22.9744H449.161C449.261 22.8097 449.384 22.6695 449.53 22.554C449.678 22.4366 449.843 22.3466 450.024 22.2841C450.208 22.2197 450.401 22.1875 450.604 22.1875C450.941 22.1875 451.246 22.2699 451.519 22.4347C451.793 22.5975 452.012 22.8229 452.175 23.1108C452.338 23.3987 452.419 23.7282 452.419 24.0994C452.419 24.4706 452.335 24.8068 452.166 25.108C452 25.4091 451.765 25.6477 451.462 25.8239C451.159 25.9981 450.805 26.0833 450.399 26.0795ZM450.397 25.3409C450.62 25.3409 450.82 25.286 450.996 25.1761C451.172 25.0663 451.311 24.9186 451.414 24.733C451.516 24.5473 451.567 24.34 451.567 24.1108C451.567 23.8873 451.517 23.6837 451.416 23.5C451.318 23.3163 451.182 23.1705 451.007 23.0625C450.835 22.9545 450.638 22.9006 450.416 22.9006C450.248 22.9006 450.092 22.9328 449.948 22.9972C449.806 23.0616 449.681 23.1506 449.573 23.2642C449.465 23.3778 449.379 23.5085 449.317 23.6562C449.256 23.8021 449.226 23.9564 449.226 24.1193C449.226 24.3371 449.276 24.5388 449.377 24.7244C449.479 24.91 449.618 25.0597 449.794 25.1733C449.972 25.285 450.173 25.3409 450.397 25.3409ZM455.64 26.0966C455.191 26.0947 454.807 25.9763 454.489 25.7415C454.171 25.5066 453.927 25.1648 453.759 24.7159C453.59 24.267 453.506 23.7263 453.506 23.0938C453.506 22.4631 453.59 21.9242 453.759 21.4773C453.929 21.0303 454.174 20.6894 454.492 20.4545C454.812 20.2197 455.195 20.1023 455.64 20.1023C456.085 20.1023 456.466 20.2206 456.784 20.4574C457.103 20.6922 457.346 21.0331 457.515 21.4801C457.685 21.9252 457.77 22.4631 457.77 23.0938C457.77 23.7282 457.686 24.2699 457.517 24.7188C457.349 25.1657 457.106 25.5076 456.787 25.7443C456.469 25.9792 456.087 26.0966 455.64 26.0966ZM455.64 25.3381C456.034 25.3381 456.341 25.1458 456.563 24.7614C456.786 24.3769 456.898 23.821 456.898 23.0938C456.898 22.6108 456.847 22.2027 456.745 21.8693C456.644 21.5341 456.499 21.2803 456.31 21.108C456.123 20.9337 455.899 20.8466 455.64 20.8466C455.248 20.8466 454.94 21.0398 454.716 21.4261C454.493 21.8125 454.38 22.3684 454.378 23.0938C454.378 23.5786 454.428 23.9886 454.529 24.3239C454.631 24.6572 454.776 24.91 454.963 25.0824C455.151 25.2528 455.376 25.3381 455.64 25.3381ZM459.844 25.2045L459.801 25.5142C459.773 25.7415 459.724 25.9782 459.656 26.2244C459.59 26.4725 459.521 26.7027 459.449 26.9148C459.379 27.1269 459.321 27.2955 459.275 27.4205H458.673C458.698 27.303 458.732 27.1439 458.775 26.9432C458.819 26.7443 458.862 26.5218 458.903 26.2756C458.945 26.0294 458.976 25.7784 458.997 25.5227L459.025 25.2045H459.844ZM463.006 26.0966C462.558 26.0947 462.174 25.9763 461.856 25.7415C461.538 25.5066 461.294 25.1648 461.126 24.7159C460.957 24.267 460.873 23.7263 460.873 23.0938C460.873 22.4631 460.957 21.9242 461.126 21.4773C461.296 21.0303 461.541 20.6894 461.859 20.4545C462.179 20.2197 462.561 20.1023 463.006 20.1023C463.452 20.1023 463.833 20.2206 464.151 20.4574C464.47 20.6922 464.713 21.0331 464.881 21.4801C465.052 21.9252 465.137 22.4631 465.137 23.0938C465.137 23.7282 465.053 24.2699 464.884 24.7188C464.716 25.1657 464.472 25.5076 464.154 25.7443C463.836 25.9792 463.453 26.0966 463.006 26.0966ZM463.006 25.3381C463.4 25.3381 463.708 25.1458 463.93 24.7614C464.153 24.3769 464.265 23.821 464.265 23.0938C464.265 22.6108 464.214 22.2027 464.112 21.8693C464.011 21.5341 463.866 21.2803 463.677 21.108C463.489 20.9337 463.266 20.8466 463.006 20.8466C462.614 20.8466 462.307 21.0398 462.083 21.4261C461.86 21.8125 461.747 22.3684 461.745 23.0938C461.745 23.5786 461.795 23.9886 461.896 24.3239C461.998 24.6572 462.143 24.91 462.33 25.0824C462.518 25.2528 462.743 25.3381 463.006 25.3381ZM468.331 26.0966C467.882 26.0947 467.498 25.9763 467.18 25.7415C466.862 25.5066 466.618 25.1648 466.45 24.7159C466.281 24.267 466.197 23.7263 466.197 23.0938C466.197 22.4631 466.281 21.9242 466.45 21.4773C466.62 21.0303 466.865 20.6894 467.183 20.4545C467.503 20.2197 467.885 20.1023 468.331 20.1023C468.776 20.1023 469.157 20.2206 469.475 20.4574C469.794 20.6922 470.037 21.0331 470.206 21.4801C470.376 21.9252 470.461 22.4631 470.461 23.0938C470.461 23.7282 470.377 24.2699 470.208 24.7188C470.04 25.1657 469.796 25.5076 469.478 25.7443C469.16 25.9792 468.778 26.0966 468.331 26.0966ZM468.331 25.3381C468.724 25.3381 469.032 25.1458 469.254 24.7614C469.477 24.3769 469.589 23.821 469.589 23.0938C469.589 22.6108 469.538 22.2027 469.436 21.8693C469.335 21.5341 469.19 21.2803 469.001 21.108C468.813 20.9337 468.59 20.8466 468.331 20.8466C467.938 20.8466 467.631 21.0398 467.407 21.4261C467.184 21.8125 467.071 22.3684 467.069 23.0938C467.069 23.5786 467.119 23.9886 467.22 24.3239C467.322 24.6572 467.467 24.91 467.654 25.0824C467.842 25.2528 468.067 25.3381 468.331 25.3381ZM473.655 26.0966C473.206 26.0947 472.822 25.9763 472.504 25.7415C472.186 25.5066 471.942 25.1648 471.774 24.7159C471.605 24.267 471.521 23.7263 471.521 23.0938C471.521 22.4631 471.605 21.9242 471.774 21.4773C471.944 21.0303 472.189 20.6894 472.507 20.4545C472.827 20.2197 473.21 20.1023 473.655 20.1023C474.1 20.1023 474.481 20.2206 474.799 20.4574C475.118 20.6922 475.361 21.0331 475.53 21.4801C475.7 21.9252 475.785 22.4631 475.785 23.0938C475.785 23.7282 475.701 24.2699 475.532 24.7188C475.364 25.1657 475.121 25.5076 474.802 25.7443C474.484 25.9792 474.102 26.0966 473.655 26.0966ZM473.655 25.3381C474.049 25.3381 474.356 25.1458 474.578 24.7614C474.801 24.3769 474.913 23.821 474.913 23.0938C474.913 22.6108 474.862 22.2027 474.76 21.8693C474.659 21.5341 474.514 21.2803 474.325 21.108C474.138 20.9337 473.914 20.8466 473.655 20.8466C473.263 20.8466 472.955 21.0398 472.731 21.4261C472.508 21.8125 472.395 22.3684 472.393 23.0938C472.393 23.5786 472.443 23.9886 472.544 24.3239C472.646 24.6572 472.791 24.91 472.978 25.0824C473.166 25.2528 473.391 25.3381 473.655 25.3381Z" fill="white"/>
<rect x="441.5" y="31" width="36" height="12" rx="2" fill="#2C333A"/>
<path d="M448.972 36.0739H448.085C448.051 35.8845 447.988 35.7178 447.895 35.5739C447.802 35.4299 447.688 35.3078 447.554 35.2074C447.42 35.107 447.269 35.0312 447.102 34.9801C446.938 34.929 446.762 34.9034 446.577 34.9034C446.241 34.9034 445.941 34.9877 445.676 35.1562C445.413 35.3248 445.205 35.572 445.051 35.8977C444.9 36.2235 444.824 36.6212 444.824 37.0909C444.824 37.5644 444.9 37.964 445.051 38.2898C445.205 38.6155 445.414 38.8617 445.679 39.0284C445.944 39.1951 446.242 39.2784 446.574 39.2784C446.758 39.2784 446.932 39.2538 447.097 39.2045C447.263 39.1534 447.414 39.0786 447.548 38.9801C447.683 38.8816 447.796 38.7614 447.889 38.6193C447.984 38.4754 448.049 38.3106 448.085 38.125L448.972 38.1278C448.924 38.4138 448.832 38.6771 448.696 38.9176C448.562 39.1562 448.388 39.3627 448.176 39.5369C447.966 39.7093 447.725 39.8428 447.455 39.9375C447.184 40.0322 446.888 40.0795 446.568 40.0795C446.064 40.0795 445.616 39.9602 445.222 39.7216C444.828 39.4811 444.517 39.1373 444.29 38.6903C444.064 38.2434 443.952 37.7102 443.952 37.0909C443.952 36.4697 444.065 35.9366 444.293 35.4915C444.52 35.0445 444.83 34.7017 445.224 34.4631C445.618 34.2225 446.066 34.1023 446.568 34.1023C446.877 34.1023 447.165 34.1468 447.432 34.2358C447.701 34.3229 447.942 34.4517 448.156 34.6222C448.37 34.7907 448.547 34.9972 448.688 35.2415C448.828 35.4839 448.922 35.7614 448.972 36.0739ZM450.803 34.1818V40H449.954V34.1818H450.803ZM453.784 40.0881C453.375 40.0881 453.018 39.9943 452.713 39.8068C452.408 39.6193 452.171 39.357 452.003 39.0199C451.834 38.6828 451.75 38.2888 451.75 37.8381C451.75 37.3854 451.834 36.9896 452.003 36.6506C452.171 36.3116 452.408 36.0483 452.713 35.8608C453.018 35.6733 453.375 35.5795 453.784 35.5795C454.193 35.5795 454.55 35.6733 454.855 35.8608C455.16 36.0483 455.397 36.3116 455.565 36.6506C455.734 36.9896 455.818 37.3854 455.818 37.8381C455.818 38.2888 455.734 38.6828 455.565 39.0199C455.397 39.357 455.16 39.6193 454.855 39.8068C454.55 39.9943 454.193 40.0881 453.784 40.0881ZM453.787 39.375C454.052 39.375 454.272 39.3049 454.446 39.1648C454.62 39.0246 454.749 38.8381 454.832 38.6051C454.918 38.3722 454.96 38.1155 454.96 37.8352C454.96 37.5568 454.918 37.3011 454.832 37.0682C454.749 36.8333 454.62 36.6449 454.446 36.5028C454.272 36.3608 454.052 36.2898 453.787 36.2898C453.52 36.2898 453.298 36.3608 453.122 36.5028C452.948 36.6449 452.818 36.8333 452.733 37.0682C452.65 37.3011 452.608 37.5568 452.608 37.8352C452.608 38.1155 452.65 38.3722 452.733 38.6051C452.818 38.8381 452.948 39.0246 453.122 39.1648C453.298 39.3049 453.52 39.375 453.787 39.375ZM460.036 36.7017L459.266 36.8381C459.234 36.7396 459.183 36.6458 459.113 36.5568C459.045 36.4678 458.952 36.3949 458.835 36.3381C458.717 36.2812 458.57 36.2528 458.394 36.2528C458.154 36.2528 457.953 36.3068 457.792 36.4148C457.631 36.5208 457.55 36.6581 457.55 36.8267C457.55 36.9725 457.604 37.09 457.712 37.179C457.82 37.268 457.995 37.3409 458.235 37.3977L458.928 37.5568C459.33 37.6496 459.629 37.7926 459.826 37.9858C460.023 38.179 460.121 38.4299 460.121 38.7386C460.121 39 460.046 39.233 459.894 39.4375C459.745 39.6402 459.535 39.7992 459.266 39.9148C458.999 40.0303 458.69 40.0881 458.337 40.0881C457.849 40.0881 457.45 39.9839 457.141 39.7756C456.833 39.5653 456.643 39.267 456.573 38.8807L457.394 38.7557C457.445 38.9697 457.55 39.1316 457.71 39.2415C457.869 39.3494 458.076 39.4034 458.332 39.4034C458.61 39.4034 458.833 39.3456 458.999 39.2301C459.166 39.1127 459.249 38.9697 459.249 38.8011C459.249 38.6648 459.198 38.5502 459.096 38.4574C458.996 38.3646 458.841 38.2945 458.633 38.2472L457.894 38.0852C457.487 37.9924 457.186 37.8447 456.991 37.642C456.798 37.4394 456.701 37.1828 456.701 36.8722C456.701 36.6146 456.773 36.3892 456.917 36.196C457.061 36.0028 457.26 35.8523 457.513 35.7443C457.767 35.6345 458.058 35.5795 458.386 35.5795C458.857 35.5795 459.228 35.6818 459.499 35.8864C459.77 36.089 459.949 36.3608 460.036 36.7017ZM462.936 40.0881C462.506 40.0881 462.136 39.9962 461.825 39.8125C461.517 39.6269 461.278 39.3665 461.109 39.0312C460.943 38.6941 460.859 38.2992 460.859 37.8466C460.859 37.3996 460.943 37.0057 461.109 36.6648C461.278 36.3239 461.513 36.0578 461.814 35.8665C462.117 35.6752 462.471 35.5795 462.876 35.5795C463.123 35.5795 463.361 35.6203 463.592 35.7017C463.823 35.7831 464.031 35.911 464.214 36.0852C464.398 36.2595 464.543 36.4858 464.649 36.7642C464.755 37.0407 464.808 37.3769 464.808 37.7727V38.0739H461.339V37.4375H463.976C463.976 37.214 463.93 37.0161 463.839 36.8438C463.749 36.6695 463.621 36.5322 463.456 36.4318C463.293 36.3314 463.102 36.2812 462.882 36.2812C462.643 36.2812 462.435 36.34 462.257 36.4574C462.081 36.5729 461.945 36.7244 461.848 36.9119C461.753 37.0975 461.706 37.2992 461.706 37.517V38.0142C461.706 38.3059 461.757 38.554 461.859 38.7585C461.964 38.9631 462.108 39.1193 462.294 39.2273C462.48 39.3333 462.696 39.3864 462.945 39.3864C463.106 39.3864 463.252 39.3636 463.385 39.3182C463.518 39.2708 463.632 39.2008 463.729 39.108C463.825 39.0152 463.899 38.9006 463.95 38.7642L464.754 38.9091C464.69 39.1458 464.574 39.3532 464.408 39.5312C464.243 39.7074 464.036 39.8447 463.786 39.9432C463.537 40.0398 463.254 40.0881 462.936 40.0881Z" fill="white"/>
<path fillRule="evenodd" clip-rule="evenodd" d="M469.323 34.8232C469.421 34.7256 469.579 34.7256 469.677 34.8232L471.5 36.6464L473.323 34.8232C473.421 34.7256 473.579 34.7256 473.677 34.8232C473.774 34.9209 473.774 35.0791 473.677 35.1768L471.854 37L473.677 38.8232C473.774 38.9209 473.774 39.0791 473.677 39.1768C473.579 39.2744 473.421 39.2744 473.323 39.1768L471.5 37.3536L469.677 39.1768C469.579 39.2744 469.421 39.2744 469.323 39.1768C469.226 39.0791 469.226 38.9209 469.323 38.8232L471.146 37L469.323 35.1768C469.226 35.0791 469.226 34.9209 469.323 34.8232Z" fill="#F6F8FA"/>
</g>
<path d="M50.9297 121.091L50.9297 130.717" stroke="#33B469" strokeWidth="1.0706"/>
<rect width="5.35832" height="41.7121" transform="translate(48.2505 130.717)" fill="#33B469"/>
<path d="M50.9297 172.429L50.9297 182.055" stroke="#33B469" strokeWidth="1.0706"/>
<path d="M325.313 138.335L325.313 147.961" stroke="#F55A5A" strokeWidth="1.0706"/>
<rect width="5.35832" height="41.7121" transform="matrix(-1 0 0 1 327.992 147.961)" fill="#F55A5A"/>
<path d="M325.313 189.673L325.313 199.299" stroke="#F55A5A" strokeWidth="1.0706"/>
<path d="M61.9082 95.226L61.9082 109.13" stroke="#33B469" strokeWidth="1.0706"/>
<rect width="5.35832" height="28.8776" transform="translate(59.229 109.13)" fill="#33B469"/>
<path d="M61.9082 138.008L61.9082 147.633" stroke="#33B469" strokeWidth="1.0706"/>
<path d="M314.334 112.47L314.334 126.374" stroke="#F55A5A" strokeWidth="1.0706"/>
<rect width="5.35832" height="28.8776" transform="matrix(-1 0 0 1 317.014 126.374)" fill="#F55A5A"/>
<path d="M314.334 155.252L314.334 164.878" stroke="#F55A5A" strokeWidth="1.0706"/>
<path d="M72.873 62.8932L72.873 76.7973" stroke="#33B469" strokeWidth="1.0706"/>
<rect width="5.35832" height="45.9902" transform="translate(70.1938 76.7973)" fill="#33B469"/>
<path d="M72.873 122.788L72.873 132.413" stroke="#33B469" strokeWidth="1.0706"/>
<path d="M116.787 86.0655L116.787 99.9695" stroke="#33B469" strokeWidth="1.0706"/>
<rect width="5.35832" height="54.5466" transform="translate(114.108 99.9695)" fill="#33B469"/>
<path d="M116.787 154.516L116.787 164.142" stroke="#33B469" strokeWidth="1.0706"/>
<path d="M259.47 103.31L259.47 117.214" stroke="#F55A5A" strokeWidth="1.0706"/>
<rect width="5.35832" height="54.5466" transform="matrix(-1 0 0 1 262.149 117.214)" fill="#F55A5A"/>
<path d="M259.47 171.76L259.47 181.386" stroke="#F55A5A" strokeWidth="1.0706"/>
<path d="M127.765 60.199L127.765 74.103" stroke="#33B469" strokeWidth="1.0706"/>
<rect width="5.35832" height="41.7121" transform="translate(125.086 74.103)" fill="#33B469"/>
<path d="M127.765 115.815L127.765 125.441" stroke="#33B469" strokeWidth="1.0706"/>
<path d="M83.8516 71.5154L83.8516 81.1413" stroke="#F55A5A" strokeWidth="1.0706"/>
<rect width="5.35832" height="41.7121" transform="translate(81.1724 81.1413)" fill="#F55A5A"/>
<path d="M83.8516 122.853L83.8516 132.479" stroke="#F55A5A" strokeWidth="1.0706"/>
<path d="M138.73 85.525L138.73 95.1508" stroke="#F55A5A" strokeWidth="1.0706"/>
<rect width="5.35832" height="41.7121" transform="translate(136.051 95.1508)" fill="#F55A5A"/>
<path d="M138.73 136.863L138.73 146.489" stroke="#F55A5A" strokeWidth="1.0706"/>
<path d="M149.708 98.4593L149.708 108.085" stroke="#F55A5A" strokeWidth="1.0706"/>
<rect width="5.35832" height="41.7121" transform="translate(147.029 108.085)" fill="#F55A5A"/>
<path d="M149.708 149.797L149.708 159.423" stroke="#F55A5A" strokeWidth="1.0706"/>
<path d="M226.52 115.703L226.52 125.329" stroke="#F55A5A" strokeWidth="1.0706"/>
<rect width="5.35832" height="41.7121" transform="matrix(-1 0 0 1 229.199 125.329)" fill="#F55A5A"/>
<path d="M226.52 167.041L226.52 176.667" stroke="#F55A5A" strokeWidth="1.0706"/>
<path d="M160.687 67.7423L160.687 77.3682" stroke="#33B469" strokeWidth="1.0706"/>
<rect width="5.35832" height="41.7121" transform="translate(158.008 77.3682)" fill="#33B469"/>
<path d="M160.687 119.08L160.687 128.706" stroke="#33B469" strokeWidth="1.0706"/>
<path d="M215.556 84.9866L215.556 94.6125" stroke="#F55A5A" strokeWidth="1.0706"/>
<rect width="5.35832" height="41.7121" transform="matrix(-1 0 0 1 218.235 94.6125)" fill="#F55A5A"/>
<path d="M215.556 136.325L215.556 145.95" stroke="#F55A5A" strokeWidth="1.0706"/>
<path d="M171.666 23.5543L171.666 33.1802" stroke="#33B469" strokeWidth="1.0706"/>
<rect width="5.35832" height="67.3811" transform="translate(168.986 33.1802)" fill="#33B469"/>
<path d="M171.666 100.561L171.666 110.187" stroke="#33B469" strokeWidth="1.0706"/>
<path d="M204.577 40.7989L204.577 50.4248" stroke="#F55A5A" strokeWidth="1.0706"/>
<rect width="5.35832" height="67.3811" transform="matrix(-1 0 0 1 207.256 50.4247)" fill="#F55A5A"/>
<path d="M204.577 117.806L204.577 127.432" stroke="#F55A5A" strokeWidth="1.0706"/>
<path d="M182.644 5.23315L182.644 14.859" stroke="#33B469" strokeWidth="1.0706"/>
<rect width="5.35832" height="41.7121" transform="translate(179.965 14.859)" fill="#33B469"/>
<path d="M182.644 56.5711L182.644 66.197" stroke="#33B469" strokeWidth="1.0706"/>
<path d="M193.599 30.3101L193.599 39.9359" stroke="#F55A5A" strokeWidth="1.0706"/>
<rect width="5.35832" height="67.3811" transform="matrix(-1 0 0 1 196.278 39.9359)" fill="#F55A5A"/>
<path d="M193.599 107.317L193.599 116.943" stroke="#F55A5A" strokeWidth="1.0706"/>
<path d="M94.8442 91.9931L94.8442 101.619" stroke="#F55A5A" strokeWidth="1.0706"/>
<rect width="5.35832" height="67.3811" transform="translate(92.165 101.619)" fill="#F55A5A"/>
<path d="M94.8442 169L94.8442 178.626" stroke="#F55A5A" strokeWidth="1.0706"/>
<path d="M303.37 80.1378L303.37 94.0418" stroke="#33B469" strokeWidth="1.0706"/>
<rect width="5.35832" height="45.9902" transform="matrix(-1 0 0 1 306.049 94.0419)" fill="#33B469"/>
<path d="M303.37 140.032L303.37 149.658" stroke="#33B469" strokeWidth="1.0706"/>
<path d="M358.234 46.188L358.234 60.092" stroke="#33B469" strokeWidth="1.0706"/>
<rect width="5.35832" height="45.9902" transform="matrix(-1 0 0 1 360.913 60.092)" fill="#33B469"/>
<path d="M358.234 106.082L358.234 115.708" stroke="#33B469" strokeWidth="1.0706"/>
<path d="M369.227 2L369.227 15.904" stroke="#33B469" strokeWidth="1.0706"/>
<rect width="5.35832" height="67.3811" transform="matrix(-1 0 0 1 371.906 15.9041)" fill="#33B469"/>
<path d="M369.227 83.2851L369.227 92.911" stroke="#33B469" strokeWidth="1.0706"/>
<path d="M413.113 58.043L413.113 71.947" stroke="#33B469" strokeWidth="1.0706"/>
<rect width="5.35832" height="50.2684" transform="matrix(-1 0 0 1 415.792 71.947)" fill="#33B469"/>
<path d="M413.113 122.215L413.113 131.841" stroke="#33B469" strokeWidth="1.0706"/>
<path d="M424.092 37.5658L424.092 51.4698" stroke="#33B469" strokeWidth="1.0706"/>
<rect width="5.35832" height="50.2684" transform="matrix(-1 0 0 1 426.771 51.4698)" fill="#33B469"/>
<path d="M424.092 101.738L424.092 111.364" stroke="#33B469" strokeWidth="1.0706"/>
<path d="M435.07 41.3372L435.07 46.6849" stroke="#33B469" strokeWidth="1.0706"/>
<rect width="5.35832" height="6.41724" transform="matrix(-1 0 0 1 437.75 46.6849)" fill="#33B469"/>
<path d="M435.07 53.1022V58.4499" stroke="#33B469" strokeWidth="1.0706"/>
<path d="M380.191 26.6219L380.191 78.0316" stroke="#F55A5A" strokeWidth="1.0706"/>
<rect width="5.35832" height="67.3811" transform="matrix(-1 0 0 1 382.871 78.0316)" fill="#F55A5A"/>
<path d="M380.191 145.413L380.191 155.039" stroke="#F55A5A" strokeWidth="1.0706"/>
<path d="M391.17 46.188L391.17 60.092" stroke="#F55A5A" strokeWidth="1.0706"/>
<rect width="5.35832" height="41.7121" transform="matrix(-1 0 0 1 393.849 60.092)" fill="#F55A5A"/>
<path d="M391.17 101.804L391.17 111.43" stroke="#F55A5A" strokeWidth="1.0706"/>
<path d="M402.148 67.7423L402.148 81.6463" stroke="#F55A5A" strokeWidth="1.0706"/>
<rect width="5.35832" height="54.5466" transform="matrix(-1 0 0 1 404.828 81.6464)" fill="#F55A5A"/>
<path d="M402.148 136.193L402.148 145.819" stroke="#F55A5A" strokeWidth="1.0706"/>
<path d="M248.491 77.4433L248.491 91.3473" stroke="#33B469" strokeWidth="1.0706"/>
<rect width="5.35832" height="41.7121" transform="matrix(-1 0 0 1 251.17 91.3474)" fill="#33B469"/>
<path d="M248.491 133.059L248.491 142.685" stroke="#33B469" strokeWidth="1.0706"/>
<path d="M292.391 88.7598L292.391 98.3856" stroke="#33B469" strokeWidth="1.0706"/>
<rect width="5.35832" height="41.7121" transform="matrix(-1 0 0 1 295.07 98.3856)" fill="#33B469"/>
<path d="M292.391 140.098L292.391 149.724" stroke="#33B469" strokeWidth="1.0706"/>
<path d="M347.27 71.5154L347.27 81.1413" stroke="#33B469" strokeWidth="1.0706"/>
<rect width="5.35832" height="41.7121" transform="matrix(-1 0 0 1 349.949 81.1413)" fill="#33B469"/>
<path d="M347.27 122.853L347.27 132.479" stroke="#33B469" strokeWidth="1.0706"/>
<path d="M237.513 102.77L237.513 112.395" stroke="#33B469" strokeWidth="1.0706"/>
<rect width="5.35832" height="41.7121" transform="matrix(-1 0 0 1 240.192 112.395)" fill="#33B469"/>
<path d="M237.513 154.107L237.513 163.733" stroke="#33B469" strokeWidth="1.0706"/>
<path d="M281.413 109.235L281.413 118.861" stroke="#33B469" strokeWidth="1.0706"/>
<rect width="5.35832" height="67.3811" transform="matrix(-1 0 0 1 284.092 118.861)" fill="#33B469"/>
<path d="M281.413 186.242L281.413 195.868" stroke="#33B469" strokeWidth="1.0706"/>
<path d="M336.292 95.226L336.292 104.852" stroke="#33B469" strokeWidth="1.0706"/>
<rect width="5.35832" height="67.3811" transform="matrix(-1 0 0 1 338.971 104.852)" fill="#33B469"/>
<path d="M336.292 172.233L336.292 181.859" stroke="#33B469" strokeWidth="1.0706"/>
<path d="M105.809 132.946L105.809 142.572" stroke="#F55A5A" strokeWidth="1.0706"/>
<rect width="5.35832" height="33.1558" transform="translate(103.129 142.572)" fill="#F55A5A"/>
<path d="M105.809 175.728L105.809 185.354" stroke="#F55A5A" strokeWidth="1.0706"/>
<path d="M270.434 150.19L270.434 159.816" stroke="#F55A5A" strokeWidth="1.0706"/>
<rect width="5.35832" height="33.1558" transform="matrix(-1 0 0 1 273.113 159.816)" fill="#F55A5A"/>
<path d="M270.434 192.972L270.434 202.598" stroke="#F55A5A" strokeWidth="1.0706"/>
</g>
</g>
</g>
<defs>
<filter id="filter0_bd_467_4066" x="1.5" y="1" width="494" height="202" filterUnits="userSpaceOnUse" color-interpolation-filters="sRGB">
<feFlood flood-opacity="0" result="BackgroundImageFix"/>
<feGaussianBlur in="BackgroundImageFix" stdDeviation="2"/>
<feComposite in2="SourceAlpha" operator="in" result="effect1_backgroundBlur_467_4066"/>
<feColorMatrix in="SourceAlpha" type="matrix" values="0 0 0 0 0 0 0 0 0 0 0 0 0 0 0 0 0 0 127 0" result="hardAlpha"/>
<feMorphology radius="3" operator="dilate" in="SourceAlpha" result="effect2_dropShadow_467_4066"/>
<feOffset/>
<feGaussianBlur stdDeviation="2"/>
<feComposite in2="hardAlpha" operator="out"/>
<feColorMatrix type="matrix" values="0 0 0 0 0 0 0 0 0 0 0 0 0 0 0 0 0 0 0.1 0"/>
<feBlend mode="normal" in2="effect1_backgroundBlur_467_4066" result="effect2_dropShadow_467_4066"/>
<feBlend mode="normal" in="SourceGraphic" in2="effect2_dropShadow_467_4066" result="shape"/>
</filter>
<filter id="filter1_bii_467_4066" x="419.5" y="-5" width="80" height="72" filterUnits="userSpaceOnUse" color-interpolation-filters="sRGB">
<feFlood flood-opacity="0" result="BackgroundImageFix"/>
<feGaussianBlur in="BackgroundImageFix" stdDeviation="10"/>
<feComposite in2="SourceAlpha" operator="in" result="effect1_backgroundBlur_467_4066"/>
<feBlend mode="normal" in="SourceGraphic" in2="effect1_backgroundBlur_467_4066" result="shape"/>
<feColorMatrix in="SourceAlpha" type="matrix" values="0 0 0 0 0 0 0 0 0 0 0 0 0 0 0 0 0 0 127 0" result="hardAlpha"/>
<feOffset dy="2"/>
<feGaussianBlur stdDeviation="1.5"/>
<feComposite in2="hardAlpha" operator="arithmetic" k2="-1" k3="1"/>
<feColorMatrix type="matrix" values="0 0 0 0 1 0 0 0 0 1 0 0 0 0 1 0 0 0 0.07 0"/>
<feBlend mode="normal" in2="shape" result="effect2_innerShadow_467_4066"/>
<feColorMatrix in="SourceAlpha" type="matrix" values="0 0 0 0 0 0 0 0 0 0 0 0 0 0 0 0 0 0 127 0" result="hardAlpha"/>
<feOffset dy="-2"/>
<feGaussianBlur stdDeviation="1.5"/>
<feComposite in2="hardAlpha" operator="arithmetic" k2="-1" k3="1"/>
<feColorMatrix type="matrix" values="0 0 0 0 0 0 0 0 0 0 0 0 0 0 0 0 0 0 0.3 0"/>
<feBlend mode="normal" in2="effect2_innerShadow_467_4066" result="effect3_innerShadow_467_4066"/>
</filter>
<linearGradient id="paint0_linear_467_4066" x1="8.5" y1="20.5" x2="438.5" y2="20.5" gradientUnits="userSpaceOnUse">
<stop stop-color="white" stop-opacity="0"/>
<stop offset="0.47" stop-color="white" stop-opacity="0.5"/>
<stop offset="1" stop-color="white" stop-opacity="0.6"/>
</linearGradient>
<clipPath id="clip0_467_4066">
<rect x="0.5" width="496" height="204" rx="8" fill="white"/>
</clipPath>
<clipPath id="clip1_467_4066">
<rect x="8.5" y="8" width="480" height="188" rx="8" fill="white"/>
</clipPath>
</defs>
</svg>
