<svg width="125" height="40" viewBox="0 0 125 40" fill="none" xmlns="http://www.w3.org/2000/svg">
<g clipPath="url(#clip0_184_5181)">
<path d="M19.9995 39.998C8.95408 39.998 -0.000488281 31.0435 -0.000488281 19.998C-0.000488281 8.95262 8.95408 -0.00195312 19.9995 -0.00195312C31.0449 -0.00195312 39.9995 8.95262 39.9995 19.998C39.9955 31.0435 31.041 39.998 19.9995 39.998Z" fill="#3F3F3F"/>
<path d="M26.6609 16.3679C26.6609 14.9515 25.9666 13.6978 24.8994 12.9281L27.7797 10.0477L26.0579 10.0557L23.7686 12.3449C23.3441 12.2021 22.8918 12.1267 22.4197 12.1267H14.5403V23.2872L24.0265 13.801C24.8795 14.3366 25.4508 15.2888 25.4508 16.3719C25.4508 18.0422 24.09 19.403 22.4197 19.403H22.1697L11.6123 29.9604H13.3263L15.3973 27.8894H22.4197C24.7605 27.8894 26.6609 25.985 26.6609 23.6482C26.6609 22.1049 25.8317 20.7559 24.5978 20.014C25.8317 19.2642 26.6609 17.9112 26.6609 16.3679ZM15.7504 20.3592V13.3368H22.4197C22.5347 13.3368 22.6458 13.3447 22.7569 13.3566L15.7504 20.3592ZM25.4508 23.6403C25.4508 25.3106 24.09 26.6714 22.4197 26.6714H16.6073L22.6458 20.6329C24.209 20.752 25.4508 22.0493 25.4508 23.6403Z" fill="#0F0F0F"/>
</g>
<path d="M118.153 32.6336V23.1292H119.852V31.2043H124.206V32.6336H118.153Z" fill="#3F3F3F"/>
<path d="M111.172 32.8708C110.241 32.8708 109.439 32.6688 108.767 32.2648C108.1 31.8565 107.584 31.279 107.22 30.5326C106.855 29.7861 106.673 28.9035 106.673 27.8847V27.8716C106.673 26.8484 106.855 25.9658 107.22 25.2238C107.588 24.4773 108.109 23.902 108.781 23.4981C109.457 23.0941 110.254 22.8921 111.172 22.8921C112.094 22.8921 112.891 23.0941 113.562 23.4981C114.234 23.902 114.752 24.4773 115.117 25.2238C115.481 25.9702 115.664 26.8528 115.664 27.8716V27.8847C115.664 28.9035 115.481 29.7861 115.117 30.5326C114.757 31.279 114.241 31.8565 113.569 32.2648C112.897 32.6688 112.098 32.8708 111.172 32.8708ZM111.172 31.402C111.738 31.402 112.228 31.2571 112.64 30.9673C113.053 30.6775 113.371 30.2691 113.595 29.7422C113.824 29.2152 113.938 28.5961 113.938 27.8847V27.8716C113.938 27.1558 113.824 26.5367 113.595 26.0141C113.371 25.4872 113.053 25.081 112.64 24.7956C112.228 24.5058 111.738 24.3609 111.172 24.3609C110.609 24.3609 110.12 24.5058 109.703 24.7956C109.29 25.081 108.969 25.4872 108.741 26.0141C108.517 26.5367 108.405 27.1558 108.405 27.8716V27.8847C108.405 28.5961 108.515 29.2152 108.734 29.7422C108.958 30.2691 109.277 30.6775 109.69 30.9673C110.107 31.2571 110.601 31.402 111.172 31.402Z" fill="#3F3F3F"/>
<path d="M100.62 32.8708C99.7202 32.8708 98.943 32.6688 98.2887 32.2648C97.6388 31.8609 97.136 31.2878 96.7803 30.5457C96.4291 29.7993 96.2534 28.9144 96.2534 27.8913V27.8782C96.2534 26.8506 96.4291 25.9658 96.7803 25.2238C97.136 24.4773 97.6388 23.902 98.2887 23.4981C98.9386 23.0941 99.7136 22.8921 100.614 22.8921C101.334 22.8921 101.984 23.0348 102.563 23.3202C103.143 23.6012 103.615 23.9921 103.98 24.4926C104.344 24.9888 104.564 25.5597 104.638 26.2052L104.632 26.2578H102.972L102.965 26.2249C102.886 25.8517 102.737 25.5267 102.517 25.2501C102.298 24.9691 102.025 24.7517 101.701 24.598C101.376 24.4399 101.013 24.3609 100.614 24.3609C100.078 24.3609 99.6126 24.5036 99.2174 24.789C98.8222 25.0745 98.517 25.4806 98.3019 26.0076C98.0911 26.5301 97.9857 27.1514 97.9857 27.8716V27.8847C97.9857 28.6049 98.0911 29.2284 98.3019 29.7553C98.517 30.2823 98.8222 30.6884 99.2174 30.9739C99.6126 31.2593 100.08 31.402 100.62 31.402C101.024 31.402 101.387 31.3317 101.707 31.1912C102.032 31.0507 102.302 30.8531 102.517 30.5984C102.737 30.3394 102.886 30.0364 102.965 29.6895L102.978 29.65H104.638V29.7026C104.555 30.335 104.333 30.8882 103.973 31.3625C103.613 31.8367 103.147 32.2078 102.577 32.4756C102.006 32.7391 101.354 32.8708 100.62 32.8708Z" fill="#3F3F3F"/>
<path d="M89.674 32.8708C88.743 32.8708 87.9417 32.6688 87.2698 32.2648C86.6024 31.8565 86.0864 31.279 85.722 30.5326C85.3575 29.7861 85.1753 28.9035 85.1753 27.8847V27.8716C85.1753 26.8484 85.3575 25.9658 85.722 25.2238C86.0908 24.4773 86.6112 23.902 87.283 23.4981C87.9592 23.0941 88.7562 22.8921 89.674 22.8921C90.5961 22.8921 91.3931 23.0941 92.0649 23.4981C92.7367 23.902 93.2549 24.4773 93.6193 25.2238C93.9838 25.9702 94.166 26.8528 94.166 27.8716V27.8847C94.166 28.9035 93.9838 29.7861 93.6193 30.5326C93.2593 31.279 92.7433 31.8565 92.0715 32.2648C91.3996 32.6688 90.6005 32.8708 89.674 32.8708ZM89.674 31.402C90.2404 31.402 90.73 31.2571 91.1428 30.9673C91.5555 30.6775 91.8739 30.2691 92.0978 29.7422C92.3262 29.2152 92.4403 28.5961 92.4403 27.8847V27.8716C92.4403 27.1558 92.3262 26.5367 92.0978 26.0141C91.8739 25.4872 91.5555 25.081 91.1428 24.7956C90.73 24.5058 90.2404 24.3609 89.674 24.3609C89.1119 24.3609 88.6223 24.5058 88.2051 24.7956C87.7924 25.081 87.4718 25.4872 87.2435 26.0141C87.0195 26.5367 86.9076 27.1558 86.9076 27.8716V27.8847C86.9076 28.5961 87.0174 29.2152 87.2369 29.7422C87.4608 30.2691 87.7792 30.6775 88.192 30.9673C88.6091 31.2571 89.1031 31.402 89.674 31.402Z" fill="#3F3F3F"/>
<path d="M78.9845 32.6336V24.5584H76.0601V23.1292H83.6083V24.5584H80.6839V32.6336H78.9845Z" fill="#3F3F3F"/>
<path d="M69.9943 32.8708C69.0634 32.8708 68.262 32.6688 67.5901 32.2648C66.9227 31.8565 66.4068 31.279 66.0423 30.5326C65.6778 29.7861 65.4956 28.9035 65.4956 27.8847V27.8716C65.4956 26.8484 65.6778 25.9658 66.0423 25.2238C66.4111 24.4773 66.9315 23.902 67.6033 23.4981C68.2795 23.0941 69.0765 22.8921 69.9943 22.8921C70.9164 22.8921 71.7134 23.0941 72.3852 23.4981C73.057 23.902 73.5752 24.4773 73.9396 25.2238C74.3041 25.9702 74.4863 26.8528 74.4863 27.8716V27.8847C74.4863 28.9035 74.3041 29.7861 73.9396 30.5326C73.5796 31.279 73.0636 31.8565 72.3918 32.2648C71.72 32.6688 70.9208 32.8708 69.9943 32.8708ZM69.9943 31.402C70.5607 31.402 71.0503 31.2571 71.4631 30.9673C71.8758 30.6775 72.1942 30.2691 72.4181 29.7422C72.6465 29.2152 72.7606 28.5961 72.7606 27.8847V27.8716C72.7606 27.1558 72.6465 26.5367 72.4181 26.0141C72.1942 25.4872 71.8758 25.081 71.4631 24.7956C71.0503 24.5058 70.5607 24.3609 69.9943 24.3609C69.4322 24.3609 68.9426 24.5058 68.5254 24.7956C68.1127 25.081 67.7921 25.4872 67.5638 26.0141C67.3399 26.5367 67.2279 27.1558 67.2279 27.8716V27.8847C67.2279 28.5961 67.3377 29.2152 67.5572 29.7422C67.7812 30.2691 68.0995 30.6775 68.5123 30.9673C68.9294 31.2571 69.4234 31.402 69.9943 31.402Z" fill="#3F3F3F"/>
<path d="M56.1895 32.6336V23.1292H60.0294C60.7101 23.1292 61.2941 23.2499 61.7815 23.4914C62.2689 23.7329 62.6421 24.0732 62.9012 24.5123C63.1603 24.9514 63.2898 25.474 63.2898 26.08V26.0931C63.2898 26.7211 63.1317 27.2787 62.8156 27.7661C62.5038 28.2491 62.0669 28.5916 61.5049 28.7936L63.5796 32.6336H61.6432L59.7726 29.0571C59.7638 29.0571 59.7506 29.0571 59.7331 29.0571C59.7155 29.0571 59.7001 29.0571 59.6869 29.0571H57.8888V32.6336H56.1895ZM57.8888 27.753H59.8516C60.3917 27.753 60.8111 27.6102 61.1097 27.3248C61.4082 27.0394 61.5575 26.642 61.5575 26.1326V26.1195C61.5575 25.6233 61.4017 25.2303 61.0899 24.9405C60.7825 24.6463 60.3588 24.4992 59.8187 24.4992H57.8888V27.753Z" fill="#3F3F3F"/>
<path d="M47.5943 29.4918V28.1218H50.1236C50.7339 28.1218 51.2082 27.9659 51.5463 27.6542C51.8844 27.338 52.0534 26.8945 52.0534 26.3237V26.3105C52.0534 25.7353 51.8844 25.2918 51.5463 24.98C51.2082 24.6682 50.7339 24.5123 50.1236 24.5123H47.5943V23.1292H50.5385C51.184 23.1292 51.7483 23.2609 52.2313 23.5243C52.7143 23.7878 53.0919 24.1589 53.3642 24.6375C53.6364 25.1117 53.7725 25.6672 53.7725 26.3039V26.3171C53.7725 26.9494 53.6364 27.5049 53.3642 27.9835C53.0919 28.4577 52.7143 28.8288 52.2313 29.0966C51.7483 29.3601 51.184 29.4918 50.5385 29.4918H47.5943ZM46.7446 32.6336V23.1292H48.444V32.6336H46.7446Z" fill="#3F3F3F"/>
<path d="M77.3706 16.6336V7.12915H80.934C81.878 7.12915 82.6816 7.31358 83.3447 7.68243C84.0121 8.05128 84.5215 8.58699 84.8728 9.28956C85.2284 9.99213 85.4063 10.8396 85.4063 11.832V11.8452C85.4063 12.8595 85.2306 13.7245 84.8793 14.4403C84.5281 15.1516 84.0187 15.6961 83.3513 16.0738C82.6882 16.447 81.8824 16.6336 80.934 16.6336H77.3706ZM79.07 15.2043H80.71C81.3379 15.2043 81.8737 15.0748 82.3172 14.8157C82.7607 14.5567 83.0966 14.179 83.3249 13.6828C83.5576 13.1866 83.674 12.5829 83.674 11.8715V11.8583C83.674 11.1645 83.5554 10.5718 83.3183 10.08C83.0856 9.58376 82.7475 9.20613 82.304 8.94706C81.8605 8.68798 81.3292 8.55845 80.71 8.55845H79.07V15.2043Z" fill="#3F3F3F"/>
<path d="M66.5957 16.6336V7.12915H68.0711L73.1691 14.2756L71.9967 13.6762H72.8464V7.12915H74.4799V16.6336H73.0111L67.913 9.48057L69.0854 10.08H68.2358V16.6336H66.5957Z" fill="#3F3F3F"/>
<path d="M55.7612 16.6336L59.1336 7.12915H60.5431V8.89436H60.0359L57.5396 16.6336H55.7612ZM57.4606 14.1768L57.9019 12.8661H62.2622L62.7035 14.1768H57.4606ZM62.6442 16.6336L60.1479 8.89436V7.12915H61.0437L64.4226 16.6336H62.6442Z" fill="#3F3F3F"/>
<path d="M47.5943 16.6336V15.3163H50.42C51.0479 15.3163 51.5243 15.189 51.8493 14.9343C52.1742 14.6752 52.3367 14.3042 52.3367 13.8212V13.808C52.3367 13.4874 52.262 13.2174 52.1127 12.9978C51.9634 12.7783 51.7395 12.6136 51.4409 12.5038C51.1467 12.3941 50.7822 12.3392 50.3475 12.3392H47.5943V11.1338H50.084C50.6856 11.1338 51.1423 11.0196 51.4541 10.7913C51.7702 10.563 51.9283 10.2336 51.9283 9.80332V9.79014C51.9283 9.3686 51.7856 9.03927 51.5002 8.80215C51.2147 8.56503 50.8152 8.44647 50.3014 8.44647H47.5943V7.12915H50.7098C51.3157 7.12915 51.8339 7.22575 52.2642 7.41896C52.6945 7.60778 53.0261 7.88002 53.2588 8.2357C53.4915 8.58699 53.6079 9.00634 53.6079 9.49374V9.50692C53.6079 9.84064 53.531 10.1524 53.3773 10.4422C53.2281 10.732 53.0261 10.9735 52.7714 11.1667C52.5211 11.36 52.2357 11.4829 51.9151 11.5356V11.6542C52.3411 11.6937 52.7143 11.8166 53.0348 12.023C53.3598 12.225 53.6123 12.4907 53.7923 12.82C53.9767 13.1493 54.0689 13.5182 54.0689 13.9265V13.9397C54.0689 14.493 53.9372 14.9716 53.6737 15.3756C53.4147 15.7796 53.0414 16.0913 52.554 16.3109C52.0666 16.5261 51.4848 16.6336 50.8086 16.6336H47.5943ZM46.7446 16.6336V7.12915H48.444V16.6336H46.7446Z" fill="#3F3F3F"/>
<defs>
<clipPath id="clip0_184_5181">
<rect width="40" height="40" fill="white"/>
</clipPath>
</defs>
</svg>
