<svg width="78" height="60" viewBox="0 0 78 60" fill="none" xmlns="http://www.w3.org/2000/svg">
<g id="Eigen Layer" clipPath="url(#clip0_188_189)">
<path id="Vector" fillRule="evenodd" clip-rule="evenodd" d="M24.7856 0.232324C24.2494 0.523871 23.8948 1.00387 23.7626 1.61685C23.4781 2.9372 24.2632 4.03054 25.5741 4.13923C26.3876 4.20661 26.8199 4.03839 27.3554 3.44554C28.1524 2.5634 28.01 1.22113 27.0362 0.434347C26.448 -0.0407717 25.4524 -0.130176 24.7856 0.232324ZM63.4309 1.3709C62.9104 1.7884 61.9623 2.41363 61.3241 2.7603C60.1936 3.37447 60.1637 3.40149 60.1634 3.81244C60.163 4.20923 60.1934 4.2422 60.6781 4.37197C61.9669 4.71661 62.0782 5.12304 62.1553 9.7597C62.2194 13.6272 62.0775 15.9679 61.737 16.6599C61.5539 17.0318 60.7556 17.7566 60.3974 17.876C60.3095 17.9053 60.2888 18.0676 60.3388 18.3346L60.4164 18.7478L63.5932 18.7357L66.7701 18.7234L66.8067 18.2951C66.8401 17.9047 66.8031 17.8461 66.39 17.6343C65.7109 17.286 65.3913 16.8735 65.2068 16.1063C64.9782 15.156 64.8389 7.8528 65.0301 6.84304C65.3044 5.39435 66.1393 4.28054 67.3992 3.6822C68.2282 3.28851 70.0351 3.21078 70.773 3.53709C71.9226 4.04566 72.5485 4.91209 72.7742 6.30732C73.0316 7.89923 72.8699 15.0967 72.55 16.2847C72.3841 16.9009 72.0328 17.331 71.4544 17.6261C71.0215 17.847 70.9856 17.902 71.0193 18.2951L71.0559 18.7234L74.2343 18.7357C77.3173 18.7474 77.4147 18.7407 77.4767 18.5097C77.6029 18.0401 77.531 17.9096 76.9586 17.5698C75.7657 16.862 75.6454 16.1653 75.6392 9.93828C75.6347 5.42899 75.5662 4.7503 74.9926 3.53804C74.6444 2.80197 73.567 1.7078 72.8101 1.32161C71.2315 0.516252 69.1287 0.536728 67.7042 1.37137C66.9481 1.81435 65.941 2.78899 65.3961 3.60506L64.9051 4.34018L65.0001 3.03209C65.1541 0.911133 65.1564 0.932443 64.7404 0.761252C64.389 0.616609 64.3472 0.636133 63.4309 1.3709ZM0.826682 1.47101C0.717158 2.01851 0.742991 2.1197 1.01371 2.20566C1.54121 2.37316 2.29823 3.21768 2.4893 3.85209C2.77132 4.78804 2.89323 8.18209 2.89382 15.1168C2.89442 21.9877 2.77335 25.3157 2.48835 26.2643C2.30002 26.8911 1.67228 27.5958 1.04942 27.8795C0.755848 28.0133 0.701444 28.2621 0.85942 28.7478C0.935848 28.9828 1.04192 28.9859 8.9943 28.9859H17.0518L17.2926 27.6764C17.5385 26.3407 17.8647 24.0096 17.9257 23.1536C17.9572 22.7117 17.9347 22.6732 17.603 22.6022C16.9487 22.4623 16.8582 22.4866 16.7742 22.8252C16.7295 23.0052 16.4281 23.7026 16.1044 24.3749C14.8973 26.8822 14.0923 27.2541 9.86537 27.2574C6.2743 27.2603 6.26144 27.2482 6.10513 23.7058C6.05121 22.4848 6.00466 20.098 6.00168 18.4016L5.99632 15.3173L8.36954 15.3909C12.6187 15.5224 13.3824 15.8099 14.0858 17.5433C14.3618 18.2232 14.4029 18.2509 14.9207 18.1066L15.2141 18.0248L15.2197 14.5918C15.2232 12.3748 15.1826 11.1466 15.1049 11.1241C14.3999 10.9195 14.3685 10.9324 14.1528 11.5173C13.555 13.1377 12.9017 13.5153 10.401 13.686C9.45168 13.7508 8.06454 13.8046 7.31847 13.8055L5.96204 13.8073L6.03109 9.1347C6.1068 3.99875 6.16847 3.47637 6.74918 3.04506C7.06085 2.81375 7.23121 2.79625 9.07061 2.80673C12.9497 2.82899 14.1478 3.45054 15.1876 5.97994C15.5917 6.96268 15.6913 7.02875 16.4591 6.82328C16.7406 6.74792 16.7425 6.73661 16.6669 5.6047C16.6249 4.97625 16.5043 3.71209 16.3988 2.79542L16.207 1.12875H8.55109H0.895134L0.826682 1.47101ZM34.0916 1.25887C31.7813 1.87256 29.9164 3.7834 29.3388 6.12875C29.1522 6.88661 29.1534 8.70875 29.341 9.47089C29.4972 10.1051 29.9036 11.054 30.2404 11.5708L30.451 11.8938L29.5335 12.8366C28.8898 13.498 28.5004 14.0234 28.2287 14.597C27.8763 15.341 27.8416 15.5161 27.8417 16.5454C27.8417 17.4511 27.8926 17.7866 28.0975 18.2298C28.427 18.943 29.1567 19.668 29.9486 20.0693L30.5756 20.3871L30.161 20.6924C29.2379 21.3722 28.2435 22.5027 27.8653 23.3022C27.5261 24.0195 27.4855 24.2193 27.485 25.1789C27.4844 26.1534 27.5207 26.3265 27.8763 27.0489C28.7843 28.8933 30.9714 29.8788 34.1572 29.8788C38.0954 29.8788 41.3231 28.2707 42.6059 25.6692C43.185 24.4949 43.3397 23.5805 43.1575 22.4076C42.7845 20.0064 41.3303 18.5154 38.9009 18.044C38.3772 17.9423 36.6422 17.8089 34.9844 17.7426C31.2243 17.5922 30.6873 17.4486 30.2224 16.4689C29.9732 15.9438 30.0279 14.8901 30.3353 14.2957C30.5605 13.8602 31.3295 12.974 31.4824 12.974C31.538 12.974 31.9022 13.1799 32.2916 13.4316C33.2984 14.0823 34.2443 14.3277 35.7582 14.3307C36.7599 14.3327 37.1619 14.2791 37.782 14.061C39.6457 13.4054 41.002 12.0617 41.7018 10.1777C42.3891 8.32744 42.1743 5.71887 41.2269 4.41113L40.8757 3.92637H42.6651H44.4547L44.5704 3.62173C44.7828 3.06316 44.8382 2.3872 44.6992 2.05161L44.5626 1.72173L43.1068 1.81756C41.1326 1.94744 39.7107 1.83542 38.0506 1.41911C36.4722 1.02328 35.176 0.970776 34.0916 1.25887ZM34.2701 2.96209C32.8343 3.62828 32.0397 5.68899 32.2479 8.2059C32.3949 9.98268 32.8562 11.2402 33.6345 11.9858C34.2194 12.5463 34.7785 12.7359 35.8455 12.7359C37.0204 12.7359 37.6673 12.4302 38.2274 11.6103C38.7703 10.8157 38.9825 10.0213 39.0576 8.50351C39.2004 5.61756 38.2163 3.35578 36.6085 2.87411C35.9135 2.66589 34.8199 2.70697 34.2701 2.96209ZM24.1511 10.9516C23.0692 11.1896 21.7554 12.3507 20.1945 14.4479L19.3135 15.6317L19.6851 15.9993C20.0503 16.3604 20.0599 16.3627 20.2329 16.1288C20.5754 15.6657 22.4312 13.8442 22.7156 13.692C22.8743 13.6071 23.0953 13.5726 23.2068 13.6154C23.3758 13.6803 23.3973 13.7964 23.3361 14.3158C23.2493 15.0508 22.8439 16.2652 20.8279 21.8304C19.2239 26.2582 18.9537 27.2826 19.1857 28.0567C19.4855 29.0573 20.4479 29.5363 21.5344 29.2255C22.9505 28.8207 24.4 27.3359 25.705 24.9535C26.0669 24.2929 26.1208 24.117 25.9855 24.0391C25.8932 23.986 25.7132 23.8648 25.5854 23.7697C25.3678 23.6078 25.3061 23.6586 24.6199 24.5652C23.5717 25.9499 22.6308 26.8093 22.2155 26.7616C21.9658 26.7328 21.8808 26.6521 21.8536 26.4177C21.8337 26.2468 22.6173 23.853 23.6267 21.001C25.6262 15.352 25.9375 14.379 26.0603 13.3965C26.2542 11.8449 25.3505 10.6877 24.1511 10.9516ZM51.5676 11.3283C48.7173 11.5951 46.0692 13.5615 44.8044 16.3508C44.0947 17.9164 43.9191 18.8017 43.9159 20.8311C43.9125 23.004 44.1253 23.9457 44.9859 25.5661C45.6343 26.7873 46.1738 27.4534 47.1322 28.216C48.5688 29.3592 50.1122 29.8878 52.0329 29.8943C54.1364 29.9016 55.4675 29.3407 57.0082 27.7971C57.925 26.8788 58.8567 25.478 59.0316 24.7555C59.0941 24.4968 59.0386 24.4166 58.643 24.1943L58.1816 23.9349L57.7298 24.5274C56.6254 25.9755 55.2761 26.8059 53.6595 27.0321C51.5901 27.3216 49.7588 26.7111 48.5538 25.3302C47.8855 24.5643 47.2266 23.0761 47.0126 21.849C46.8251 20.7736 46.7774 19.5503 46.9044 19.0763L46.976 18.8095L53.0635 18.7786L59.1511 18.7478L59.1872 17.9785C59.3214 15.1164 57.4938 12.5215 54.7097 11.6215C53.6567 11.2811 52.8631 11.2071 51.5676 11.3283ZM50.0799 13.3366C48.8786 13.8115 47.8047 15.0774 47.3829 16.5157L47.1997 17.1407H51.4676H55.7356L55.671 16.6347C55.4947 15.2543 54.6991 14.0636 53.5606 13.4766C52.7207 13.0435 50.9968 12.9741 50.0799 13.3366ZM31.3905 21.3668C30.3341 22.5663 29.8016 24.3192 30.1619 25.4111C30.7947 27.3284 33.7612 28.1599 37.3654 27.4302C39.055 27.088 40.5184 26.0299 40.8548 24.9068C41.1904 23.7868 40.9268 22.5533 40.2078 21.8792C39.3363 21.0622 38.2194 20.8511 34.5211 20.8045L31.9148 20.7716L31.3905 21.3668ZM0.826682 31.8282C0.717158 32.3757 0.742991 32.4768 1.01371 32.5628C1.54121 32.7303 2.29823 33.5748 2.4893 34.2092C2.77132 35.1452 2.89323 38.5392 2.89382 45.474C2.89442 52.3448 2.77335 55.6728 2.48835 56.6215C2.30002 57.2483 1.67228 57.9529 1.04942 58.2366C0.740848 58.3772 0.717753 58.4566 0.826801 59.0008L0.895372 59.343H9.03418H17.173L17.3578 58.3311C17.6038 56.9835 17.9814 54.4147 18.0776 53.4351L18.155 52.6463L17.6005 52.563C17.2955 52.5173 17.0287 52.4973 17.0076 52.5186C16.9866 52.5399 16.7998 52.9859 16.5924 53.5097C16.1033 54.7451 15.5851 55.6458 14.9941 56.2876C14.0176 57.3479 12.9697 57.6213 9.7574 57.6535C7.09371 57.6803 6.85275 57.6112 6.45263 56.7068C6.06192 55.8235 5.96799 52.9733 6.02978 43.8668C6.08811 35.267 6.13073 34.5338 6.62311 33.6576C6.84144 33.2691 7.63502 32.6064 8.04573 32.4695C8.12085 32.4443 8.13763 32.2458 8.08894 31.9572L8.0093 31.4859H4.45216H0.895134L0.826682 31.8282ZM35.342 31.9026C35.322 31.9353 35.2876 32.1346 35.2657 32.3453C35.2328 32.6622 35.2922 32.7776 35.6092 33.0114C36.3854 33.584 36.8076 34.3691 38.0826 37.6104C38.5606 38.8253 39.7601 41.8216 40.7484 44.269L42.545 48.7188L41.2188 51.5904C39.4355 55.4518 39.2763 55.7574 38.8016 56.2322C38.278 56.7559 37.8567 56.843 36.728 56.6613C35.9428 56.5347 35.7568 56.5403 35.3739 56.7014C34.7298 56.9726 34.4241 57.5218 34.4818 58.304C34.5911 59.7817 36.1593 60.3004 37.9907 59.4646C39.1606 58.9308 40.113 57.8261 41.1042 55.8538C41.3776 55.3097 43.3428 50.9168 45.4711 46.0918C49.9676 35.8979 50.6213 34.5138 51.4639 33.4014C51.9931 32.7028 52.0767 32.5232 52.0181 32.2109L51.9491 31.843L49.3001 31.8536L46.6511 31.8642L46.5916 32.2703C46.5382 32.6342 46.5814 32.7138 47.0082 33.0367C47.7305 33.5834 47.9286 34.0549 47.8605 35.0655C47.8292 35.5288 47.6576 36.3315 47.4788 36.8512C47.2043 37.6492 44.3091 44.6107 44.1216 44.9233C44.0532 45.0373 41.3204 38.3271 40.7338 36.6049C40.0581 34.6215 40.1568 33.5232 41.0626 32.9428C41.3712 32.7452 41.4629 32.6148 41.4176 32.4383C41.3842 32.3073 41.356 32.1198 41.3551 32.0216C41.3537 31.8677 40.9414 31.843 38.366 31.843C36.7228 31.843 35.362 31.8698 35.342 31.9026ZM55.6392 41.279C50.5378 41.6614 47.0285 45.973 47.3419 51.4734C47.578 55.6136 49.9647 58.7507 53.6154 59.7188C54.7012 60.0067 56.5238 59.9766 57.5439 59.6537C58.6792 59.2945 59.7279 58.6201 60.6224 57.6738C61.3766 56.8759 62.5439 55.0285 62.5439 54.6328C62.5439 54.5303 62.3366 54.3298 62.0832 54.1874L61.6225 53.9285L61.2891 54.4097C60.7503 55.1871 59.6257 56.1484 58.7869 56.5488C57.7744 57.032 56.1223 57.2504 55.0242 57.0461C52.8831 56.648 51.1282 54.8383 50.5838 52.4672C50.3499 51.4489 50.2347 50.0147 50.3336 49.3551L50.4157 48.8073H56.5393H62.663V47.9959C62.663 44.998 60.9817 42.5579 58.2734 41.6249C57.577 41.3851 56.3587 41.2251 55.6392 41.279ZM24.0995 41.4351C23.0355 41.6236 21.748 42.3193 20.907 43.1603C20.4979 43.5695 20.163 43.9983 20.163 44.1133C20.163 44.3315 20.718 45.3549 20.8363 45.3549C20.8738 45.3549 21.2884 45.1157 21.7576 44.8232C22.9322 44.091 23.5117 43.8997 24.5812 43.8904C25.3417 43.8838 25.597 43.936 26.1673 44.2151C27.4207 44.8283 27.8669 45.8015 27.9842 48.1767C28.0673 49.8614 28.2808 49.6039 26.2793 50.232C23.6838 51.0464 21.6663 52.0939 20.5574 53.2029C18.8436 54.9166 19.032 57.8559 20.9367 59.1205C22.3738 60.0747 24.2972 60.1065 25.8441 59.2017C26.4711 58.8349 27.3956 57.8342 27.7843 57.1014C27.9466 56.7957 28.1085 56.5454 28.1441 56.5454C28.1797 56.5454 28.2714 56.7797 28.3481 57.066C28.6955 58.3651 30.1043 59.3965 31.5908 59.4401L32.3405 59.4621L32.5782 58.7566L32.8158 58.0511L32.5311 57.8391C31.7281 57.2411 31.567 57.0817 31.2923 56.6129C30.8573 55.8707 30.7661 54.8393 30.7619 50.6178C30.7579 46.4892 30.6619 45.6528 30.0376 44.3017C29.3935 42.9077 28.5489 42.1127 27.2304 41.659C26.425 41.3818 24.9822 41.2788 24.0995 41.4351ZM68.7042 42.0641C68.1966 42.4764 67.2724 43.0946 66.6506 43.438C65.5762 44.0316 65.5201 44.0821 65.5201 44.4565C65.5201 44.8217 65.5578 44.8599 66.0345 44.9801C66.3174 45.0513 66.6887 45.2391 66.8597 45.3976C67.4439 45.939 67.4844 46.3333 67.4844 51.4859C67.4844 55.6882 67.4599 56.3271 67.2757 56.922C67.0651 57.6024 66.7656 57.9451 66.0331 58.3428C65.7316 58.5066 65.6893 58.5895 65.73 58.938L65.7773 59.343H69.1545C72.4311 59.343 72.5337 59.3359 72.5957 59.1049C72.7243 58.6268 72.6598 58.4968 72.2166 58.3407C71.5219 58.096 70.9912 57.6339 70.7166 57.0345C70.4805 56.5197 70.4624 56.2507 70.4222 52.6643C70.3742 48.3988 70.4698 47.4711 71.0944 46.1361C71.9913 44.2195 73.3237 43.6121 74.9994 44.3558C76.6213 45.0758 77.7828 44.5361 77.6297 43.1336C77.5535 42.4359 77.1432 41.924 76.3803 41.5747C75.5123 41.1773 74.4128 41.2354 73.4343 41.7305C72.5562 42.1748 71.2957 43.5103 70.7695 44.5537C70.5466 44.9959 70.3556 45.3436 70.3451 45.3265C70.3348 45.3095 70.3723 44.4702 70.4286 43.4615C70.4849 42.4529 70.4867 41.5834 70.4325 41.5292C70.3783 41.4751 70.1751 41.4047 69.9807 41.3727C69.6828 41.3236 69.4824 41.4321 68.7042 42.0641ZM53.7213 43.268C52.3511 43.7723 51.225 45.0847 50.7814 46.6942L50.6584 47.1407H54.9478H59.2372L59.1595 46.6942C58.9453 45.4615 58.6981 44.9484 57.9672 44.2188C57.423 43.6755 57.0898 43.4495 56.6076 43.2961C55.8464 43.0541 54.3423 43.0395 53.7213 43.268ZM26.3317 51.7723C23.9853 52.7415 22.9241 53.4799 22.4664 54.4621C22.1173 55.2115 22.1141 55.7561 22.4547 56.4282C22.8064 57.1223 23.3274 57.4184 24.1964 57.4184C25.6428 57.4184 27.1225 56.3465 27.6691 54.9028C27.9974 54.0354 28.166 51.1851 27.8885 51.193C27.7972 51.1958 27.0967 51.4564 26.3317 51.7723Z" fill="#3F3F3F"/>
</g>
<defs>
<clipPath id="clip0_188_189">
<rect width="76.9048" height="60" fill="white" transform="translate(0.757812)"/>
</clipPath>
</defs>
</svg>
