<svg width="139" height="40" viewBox="0 0 139 40" fill="none" xmlns="http://www.w3.org/2000/svg">
<g id="espresso-systems-logos-idba3IHKnr 1" clipPath="url(#clip0_188_217)">
<path id="Vector" d="M62.2489 11.655V13.7892H54.3755V18.9267H61.9014V21.0608H54.3764V26.3967H62.2489V28.5308H52.0405V11.6558H62.2489V11.655ZM64.9947 27.7367C64.1589 27.0417 63.7063 26.1075 63.6405 24.9325H65.9255C65.9922 25.5117 66.2364 25.9742 66.6589 26.3217C67.0805 26.6692 67.5897 26.8433 68.1863 26.8433C68.7822 26.8433 69.2697 26.71 69.6013 26.4458C69.933 26.1817 70.098 25.8592 70.098 25.4783C70.098 24.9975 69.8997 24.6383 69.5022 24.3983C69.1047 24.1592 68.4839 23.915 67.6397 23.6667C66.8605 23.4342 66.2197 23.1983 65.7147 22.9592C65.2058 22.7162 64.7627 22.3543 64.423 21.9042C64.0664 21.4417 63.8897 20.8292 63.8897 20.0683C63.8897 19.4883 64.0464 18.9392 64.3614 18.4183C64.6747 17.8967 65.1347 17.475 65.7397 17.1517C66.3439 16.8292 67.068 16.6683 67.913 16.6683C69.1047 16.6683 70.0814 16.9908 70.8439 17.6358C71.6047 18.2808 72.0439 19.1833 72.1605 20.3408H69.8747C69.7914 19.795 69.5805 19.3692 69.2413 19.0625C68.9022 18.7567 68.4589 18.6042 67.913 18.6042C67.4155 18.6042 67.0014 18.7367 66.6713 19.0008C66.3397 19.265 66.1739 19.6217 66.1739 20.0675C66.1739 20.515 66.368 20.8783 66.7572 21.11C67.1464 21.3425 67.7639 21.5908 68.608 21.855C69.3872 22.0692 70.0313 22.2975 70.5455 22.5375C71.0618 22.7797 71.5099 23.1462 71.8497 23.6042C72.2055 24.0758 72.383 24.7 72.383 25.4783C72.383 26.1075 72.2005 26.6733 71.8372 27.1783C71.4722 27.6833 70.9714 28.075 70.3347 28.3567C69.6972 28.6383 68.9805 28.7792 68.1863 28.7792C66.8947 28.7792 65.8297 28.4317 64.9947 27.7367ZM83.2422 17.3875C84.0955 17.8683 84.7789 18.5667 85.2914 19.485C85.8047 20.4033 86.0614 21.4825 86.0614 22.7233C86.0614 23.965 85.8047 25.0442 85.2914 25.9617C84.7789 26.88 84.0955 27.5783 83.2422 28.0592C82.3979 28.537 81.4431 28.7852 80.473 28.7792C79.6447 28.7792 78.8872 28.6175 78.2005 28.295C77.5318 27.9878 76.9604 27.5026 76.5489 26.8925V33.395H74.2638V16.9167H76.2755L76.4739 18.6783C76.8839 18.0361 77.4644 17.5205 78.1505 17.1892C78.8547 16.8417 79.6289 16.6683 80.473 16.6683C81.4664 16.6683 82.3897 16.9075 83.2422 17.3875ZM81.9755 26.2225C82.5297 25.9083 82.9688 25.45 83.2922 24.845C83.6147 24.2408 83.7764 23.5333 83.7764 22.7233C83.7764 21.9133 83.6147 21.2058 83.2922 20.6017C82.9688 19.9975 82.5305 19.5383 81.9755 19.2242C81.4191 18.9096 80.7897 18.747 80.1505 18.7525C79.488 18.7525 78.8997 18.9142 78.3372 19.2367C77.7665 19.5665 77.2979 20.0475 76.983 20.6267C76.6447 21.2308 76.4747 21.9292 76.4747 22.7233C76.4747 23.5175 76.6447 24.2158 76.983 24.8208C77.3222 25.425 77.7747 25.8875 78.3372 26.21C78.8997 26.5325 79.5039 26.6942 80.1505 26.6942C80.7955 26.6942 81.4205 26.5358 81.9755 26.2225ZM87.6989 21.185C87.6989 19.7792 88.0964 18.675 88.8913 17.8717C89.6863 17.0692 90.7297 16.6683 92.0214 16.6683C92.4347 16.6683 92.8564 16.7267 93.288 16.8417V18.9267C93.1389 18.91 92.8405 18.9017 92.3939 18.9017C91.6147 18.9017 91.0189 19.1167 90.6055 19.5467C90.1914 19.9775 89.9847 20.705 89.9847 21.73V28.53H87.6989V21.185ZM105.175 23.6167H96.158C96.3239 24.56 96.7255 25.3083 97.363 25.8625C97.9997 26.4175 98.7664 26.6942 99.6605 26.6942C101.101 26.6942 102.077 26.1483 102.591 25.0558H104.926C104.6 26.1514 103.912 27.1045 102.976 27.7608C102.024 28.44 100.919 28.7783 99.6605 28.7783C98.5505 28.7783 97.5497 28.5217 96.6555 28.0092C95.7689 27.5039 95.0416 26.7602 94.5564 25.8625C94.0505 24.9442 93.7989 23.8983 93.7989 22.7233C93.7989 21.5483 94.0472 20.5025 94.5438 19.5842C95.0217 18.6852 95.7454 17.9406 96.6305 17.4375C97.5247 16.925 98.5339 16.6683 99.6605 16.6683C100.671 16.6683 101.601 16.9325 102.455 17.4625C103.308 17.9925 103.982 18.7192 104.479 19.6458C104.976 20.5733 105.224 21.5983 105.224 22.7233C105.224 23.0867 105.208 23.385 105.175 23.6167ZM97.388 19.5592C96.7672 20.0967 96.3655 20.8208 96.183 21.7308H102.865C102.781 20.9208 102.442 20.2208 101.846 19.6333C101.25 19.0467 100.521 18.7525 99.6605 18.7525C98.7997 18.7525 98.0089 19.0217 97.388 19.5592ZM107.599 27.7367C106.763 27.0417 106.311 26.1075 106.246 24.9325H108.531C108.596 25.5117 108.841 25.9742 109.263 26.3217C109.686 26.6692 110.195 26.8433 110.791 26.8433C111.386 26.8433 111.875 26.71 112.206 26.4458C112.538 26.1817 112.703 25.8592 112.703 25.4783C112.703 24.9975 112.504 24.6383 112.107 24.3983C111.71 24.1592 111.089 23.915 110.244 23.6667C109.466 23.4342 108.825 23.1983 108.319 22.9592C107.81 22.7159 107.367 22.3541 107.027 21.9042C106.671 21.4417 106.494 20.8292 106.494 20.0683C106.494 19.4883 106.651 18.9392 106.966 18.4183C107.28 17.8967 107.739 17.475 108.344 17.1517C108.949 16.8292 109.673 16.6683 110.517 16.6683C111.71 16.6683 112.686 16.9908 113.448 17.6358C114.21 18.2808 114.649 19.1833 114.765 20.3408H112.48C112.396 19.795 112.185 19.3692 111.846 19.0625C111.507 18.7567 111.064 18.6042 110.517 18.6042C110.021 18.6042 109.606 18.7367 109.276 19.0008C108.944 19.265 108.779 19.6217 108.779 20.0675C108.779 20.515 108.972 20.8783 109.362 21.11C109.751 21.3425 110.368 21.5908 111.213 21.855C111.991 22.0692 112.636 22.2975 113.15 22.5375C113.666 22.7797 114.114 23.1462 114.454 23.6042C114.811 24.0758 114.988 24.7 114.988 25.4783C114.988 26.1075 114.806 26.6733 114.441 27.1783C114.076 27.6833 113.576 28.075 112.939 28.3567C112.301 28.6383 111.586 28.7792 110.791 28.7792C109.499 28.7792 108.435 28.4317 107.599 27.7367ZM117.481 27.7367C116.646 27.0417 116.194 26.1075 116.128 24.9325H118.413C118.479 25.5117 118.724 25.9742 119.146 26.3217C119.568 26.6692 120.077 26.8433 120.673 26.8433C121.27 26.8433 121.757 26.71 122.089 26.4458C122.421 26.1817 122.586 25.8592 122.586 25.4783C122.586 24.9975 122.387 24.6383 121.99 24.3983C121.592 24.1592 120.971 23.915 120.127 23.6667C119.348 23.4342 118.707 23.1983 118.202 22.9592C117.693 22.7164 117.25 22.3545 116.911 21.9042C116.554 21.4417 116.376 20.8292 116.376 20.0683C116.376 19.4883 116.534 18.9392 116.848 18.4183C117.162 17.8967 117.622 17.475 118.226 17.1517C118.831 16.8292 119.556 16.6683 120.4 16.6683C121.592 16.6683 122.568 16.9908 123.331 17.6358C124.092 18.2808 124.531 19.1833 124.647 20.3408H122.362C122.279 19.795 122.068 19.3692 121.729 19.0625C121.39 18.7567 120.946 18.6042 120.4 18.6042C119.903 18.6042 119.489 18.7367 119.158 19.0008C118.826 19.265 118.661 19.6217 118.661 20.0675C118.661 20.515 118.856 20.8783 119.245 21.11C119.634 21.3425 120.251 21.5908 121.096 21.855C121.874 22.0692 122.519 22.2975 123.033 22.5375C123.549 22.7797 123.997 23.1462 124.336 23.6042C124.693 24.0758 124.871 24.7 124.871 25.4783C124.871 26.1075 124.688 26.6733 124.325 27.1783C123.959 27.6833 123.459 28.075 122.821 28.3567C122.185 28.6383 121.468 28.7792 120.673 28.7792C119.381 28.7792 118.317 28.4317 117.481 27.7367ZM128.716 27.9725C127.813 27.4512 127.066 26.6968 126.555 25.7883C126.033 24.87 125.772 23.8492 125.772 22.7233C125.772 21.5983 126.033 20.5767 126.555 19.6583C127.066 18.7501 127.813 17.9961 128.716 17.475C129.635 16.9375 130.656 16.6683 131.783 16.6683C132.91 16.6683 133.931 16.9375 134.851 17.475C135.753 17.9961 136.5 18.7501 137.011 19.6583C137.533 20.5767 137.794 21.5983 137.794 22.7233C137.794 23.8483 137.533 24.87 137.011 25.7883C136.5 26.6965 135.753 27.4506 134.851 27.9717C133.931 28.5092 132.91 28.7783 131.783 28.7783C130.656 28.7783 129.635 28.5092 128.716 27.9725ZM133.696 26.185C134.26 25.8444 134.72 25.3552 135.025 24.7708C135.347 24.1667 135.509 23.4842 135.509 22.7233C135.509 21.9625 135.347 21.28 135.025 20.6758C134.72 20.0915 134.26 19.6022 133.696 19.2617C133.133 18.9225 132.495 18.7533 131.783 18.7533C131.071 18.7533 130.433 18.9225 129.871 19.2617C129.306 19.6018 128.846 20.0911 128.542 20.6758C128.219 21.28 128.057 21.9625 128.057 22.7233C128.057 23.4842 128.219 24.1667 128.542 24.7708C128.847 25.3554 129.306 25.8447 129.871 26.185C130.433 26.5242 131.071 26.6942 131.783 26.6942C132.495 26.6942 133.133 26.5233 133.696 26.185ZM25.9755 12.6658C26.4422 12.6658 26.898 12.7117 27.3422 12.795V1.24333H24.6089V12.795C25.0594 12.7097 25.5169 12.6665 25.9755 12.6658ZM21.8855 13.9108L10.738 2.48L8.45469 4.76083L19.8955 15.9C20.4249 15.1152 21.1005 14.4399 21.8855 13.9108ZM19.8705 15.94L3.83885 8.9425L2.50885 12.1533L18.7947 18.5325C18.9817 17.6068 19.3468 16.7264 19.8697 15.94H19.8705ZM33.0964 18.2583L39.5414 15.4458L38.7814 13.6125L32.2347 16.1767C32.6284 16.8219 32.9191 17.5236 33.0964 18.2583ZM29.9397 13.8308L33.5239 5.02083L31.2289 4.07083L27.5289 12.8317C28.3858 13.0168 29.2031 13.3553 29.9397 13.8308ZM31.9472 15.745L37.5139 10.0367L35.9322 8.4575L30.2197 14.0192C30.8864 14.4942 31.4714 15.0775 31.9464 15.7442L31.9472 15.745ZM24.5164 12.8108L19.3039 0L16.5505 1.13917L21.9322 13.8808C22.7162 13.3609 23.5943 12.9975 24.5164 12.8108ZM25.9755 27.3075C25.5089 27.3075 25.053 27.2617 24.6089 27.1783V38.7592H27.3422V27.1783C26.898 27.2617 26.4422 27.3075 25.9755 27.3075ZM27.5297 27.14L31.238 35.9233L33.5339 34.975L29.9397 26.1417C29.2031 26.6174 28.3867 26.9561 27.5297 27.1417V27.14ZM30.2197 25.9525L35.9439 31.5267L37.5247 29.9467L31.9464 24.2275C31.4707 24.8953 30.8869 25.4789 30.2189 25.9542L30.2197 25.9525ZM18.7947 21.4408L2.49469 27.8242L3.82635 31.035L19.8714 24.0325C19.3483 23.2468 18.9832 22.3668 18.7964 21.4417L18.7947 21.4408ZM21.9314 26.09L16.538 38.8608L19.2922 40L24.5172 27.1608C23.5945 26.9741 22.7158 26.6105 21.9314 26.09ZM19.8964 24.0725L8.43802 35.2292L10.7205 37.5092L21.8855 26.06C21.1003 25.531 20.4243 24.8556 19.8947 24.0708L19.8964 24.0725ZM39.9322 20.86L0.742188 21.8375L0.743021 18.115L39.9322 19.1233V20.86Z" fill="#3F3F3F"/>
</g>
<defs>
<clipPath id="clip0_188_217">
<rect width="137.5" height="40" fill="white" transform="translate(0.742188)"/>
</clipPath>
</defs>
</svg>
