<svg width="381" height="306" viewBox="0 0 381 306" fill="none" xmlns="http://www.w3.org/2000/svg">
<g filter="url(#filter0_ddi_304_6065)">
<g clip-path="url(#clip0_304_6065)">
<rect x="2.83301" y="2" width="373.333" height="300" rx="16" fill="#1F1F1F"/>
<rect width="1.45024" height="7.2512" transform="translate(5.70703 14.6208)" fill="#26292C"/>
<rect width="1.45024" height="7.25121" transform="translate(10.0635 17.5888) rotate(90)" fill="#26292C"/>
<rect width="1.45024" height="7.2512" transform="translate(5.70703 44.3708)" fill="#26292C"/>
<rect width="1.45024" height="7.25121" transform="translate(10.0635 47.3566) rotate(90)" fill="#26292C"/>
<rect width="1.45024" height="7.2512" transform="translate(5.70215 74.1433)" fill="#26292C"/>
<rect width="1.45024" height="7.25121" transform="translate(10.0635 76.9535) rotate(90)" fill="#26292C"/>
<rect width="1.45024" height="7.2512" transform="translate(5.70215 103.897)" fill="#26292C"/>
<rect width="1.45024" height="7.25121" transform="translate(10.0615 106.733) rotate(90)" fill="#26292C"/>
<rect width="1.45024" height="7.2512" transform="translate(5.70312 133.5)" fill="#26292C"/>
<rect width="1.45024" height="7.25121" transform="translate(10.0635 136.478) rotate(90)" fill="#26292C"/>
<rect width="1.45024" height="7.2512" transform="translate(5.70215 163.265)" fill="#26292C"/>
<rect width="1.45024" height="7.25121" transform="translate(10.0635 166.239) rotate(90)" fill="#26292C"/>
<rect width="1.45024" height="7.2512" transform="translate(5.70703 193.025)" fill="#26292C"/>
<rect width="1.45024" height="7.25121" transform="translate(10.0635 195.993) rotate(90)" fill="#26292C"/>
<rect width="1.45024" height="7.2512" transform="translate(5.70215 222.793)" fill="#26292C"/>
<rect width="1.45024" height="7.25121" transform="translate(10.0635 225.599) rotate(90)" fill="#26292C"/>
<rect width="1.45024" height="7.2512" transform="translate(5.70312 252.551)" fill="#26292C"/>
<rect width="1.45024" height="7.25121" transform="translate(10.0615 255.367) rotate(90)" fill="#26292C"/>
<rect width="1.45024" height="7.2512" transform="translate(5.70312 282.148)" fill="#26292C"/>
<rect width="1.45024" height="7.25121" transform="translate(10.0635 285.124) rotate(90)" fill="#26292C"/>
<rect width="1.45024" height="7.2512" transform="translate(36.1582 14.6208)" fill="#26292C"/>
<rect width="1.45024" height="7.25121" transform="translate(40.5186 17.5888) rotate(90)" fill="#26292C"/>
<rect width="1.45024" height="7.2512" transform="translate(36.1582 44.3708)" fill="#26292C"/>
<rect width="1.45024" height="7.25121" transform="translate(40.5186 47.3566) rotate(90)" fill="#26292C"/>
<rect width="1.45024" height="7.2512" transform="translate(36.1582 74.1433)" fill="#26292C"/>
<rect width="1.45024" height="7.25121" transform="translate(40.5186 76.9535) rotate(90)" fill="#26292C"/>
<rect width="1.45024" height="7.2512" transform="translate(36.1582 103.897)" fill="#26292C"/>
<rect width="1.45024" height="7.25121" transform="translate(40.5176 106.733) rotate(90)" fill="#26292C"/>
<rect width="1.45024" height="7.2512" transform="translate(36.1572 133.5)" fill="#26292C"/>
<rect width="1.45024" height="7.25121" transform="translate(40.5176 136.478) rotate(90)" fill="#26292C"/>
<rect width="1.45024" height="7.2512" transform="translate(36.1582 163.265)" fill="#26292C"/>
<rect width="1.45024" height="7.25121" transform="translate(40.5186 166.239) rotate(90)" fill="#26292C"/>
<rect width="1.45024" height="7.2512" transform="translate(36.1582 193.025)" fill="#26292C"/>
<rect width="1.45024" height="7.25121" transform="translate(40.5186 195.993) rotate(90)" fill="#26292C"/>
<rect width="1.45024" height="7.2512" transform="translate(36.1582 222.793)" fill="#26292C"/>
<rect width="1.45024" height="7.25121" transform="translate(40.5186 225.599) rotate(90)" fill="#26292C"/>
<rect width="1.45024" height="7.2512" transform="translate(36.1582 252.551)" fill="#26292C"/>
<rect width="1.45024" height="7.25121" transform="translate(40.5176 255.367) rotate(90)" fill="#26292C"/>
<rect width="1.45024" height="7.2512" transform="translate(36.1572 282.148)" fill="#26292C"/>
<rect width="1.45024" height="7.25121" transform="translate(40.5176 285.124) rotate(90)" fill="#26292C"/>
<rect width="1.45024" height="7.2512" transform="translate(66.6221 14.6208)" fill="#26292C"/>
<rect width="1.45024" height="7.25121" transform="translate(70.9736 17.5888) rotate(90)" fill="#26292C"/>
<rect width="1.45024" height="7.2512" transform="translate(66.6221 44.3708)" fill="#26292C"/>
<rect width="1.45024" height="7.25121" transform="translate(70.9736 47.3566) rotate(90)" fill="#26292C"/>
<rect width="1.45024" height="7.2512" transform="translate(66.623 74.1433)" fill="#26292C"/>
<rect width="1.45024" height="7.25121" transform="translate(70.9736 76.9535) rotate(90)" fill="#26292C"/>
<rect width="1.45024" height="7.2512" transform="translate(66.623 103.897)" fill="#26292C"/>
<rect width="1.45024" height="7.25121" transform="translate(70.9707 106.733) rotate(90)" fill="#26292C"/>
<rect width="1.45024" height="7.2512" transform="translate(66.623 133.5)" fill="#26292C"/>
<rect width="1.45024" height="7.25121" transform="translate(70.9736 136.478) rotate(90)" fill="#26292C"/>
<rect width="1.45024" height="7.2512" transform="translate(66.623 163.265)" fill="#26292C"/>
<rect width="1.45024" height="7.25121" transform="translate(70.9736 166.239) rotate(90)" fill="#26292C"/>
<rect width="1.45024" height="7.2512" transform="translate(66.6221 193.025)" fill="#26292C"/>
<rect width="1.45024" height="7.25121" transform="translate(70.9736 195.993) rotate(90)" fill="#26292C"/>
<rect width="1.45024" height="7.2512" transform="translate(66.623 222.793)" fill="#26292C"/>
<rect width="1.45024" height="7.25121" transform="translate(70.9736 225.599) rotate(90)" fill="#26292C"/>
<rect width="1.45024" height="7.2512" transform="translate(66.623 252.551)" fill="#26292C"/>
<rect width="1.45024" height="7.25121" transform="translate(70.9707 255.367) rotate(90)" fill="#26292C"/>
<rect width="1.45024" height="7.2512" transform="translate(66.623 282.148)" fill="#26292C"/>
<rect width="1.45024" height="7.25121" transform="translate(70.9736 285.124) rotate(90)" fill="#26292C"/>
<rect width="1.45024" height="7.2512" transform="translate(97.0723 14.6208)" fill="#26292C"/>
<rect width="1.45024" height="7.25121" transform="translate(101.438 17.5888) rotate(90)" fill="#26292C"/>
<rect width="1.45024" height="7.2512" transform="translate(97.0723 44.3708)" fill="#26292C"/>
<rect width="1.45024" height="7.25121" transform="translate(101.438 47.3566) rotate(90)" fill="#26292C"/>
<rect width="1.45024" height="7.2512" transform="translate(97.0674 74.1433)" fill="#26292C"/>
<rect width="1.45024" height="7.25121" transform="translate(101.438 76.9535) rotate(90)" fill="#26292C"/>
<rect width="1.45024" height="7.2512" transform="translate(97.0674 103.897)" fill="#26292C"/>
<rect width="1.45024" height="7.25121" transform="translate(101.434 106.733) rotate(90)" fill="#26292C"/>
<rect width="1.45024" height="7.2512" transform="translate(97.0684 133.5)" fill="#26292C"/>
<rect width="1.45024" height="7.25121" transform="translate(101.439 136.478) rotate(90)" fill="#26292C"/>
<rect width="1.45024" height="7.2512" transform="translate(97.0674 163.265)" fill="#26292C"/>
<rect width="1.45024" height="7.25121" transform="translate(101.438 166.239) rotate(90)" fill="#26292C"/>
<rect width="1.45024" height="7.2512" transform="translate(97.0723 193.025)" fill="#26292C"/>
<rect width="1.45024" height="7.25121" transform="translate(101.438 195.993) rotate(90)" fill="#26292C"/>
<rect width="1.45024" height="7.2512" transform="translate(97.0674 222.793)" fill="#26292C"/>
<rect width="1.45024" height="7.25121" transform="translate(101.438 225.599) rotate(90)" fill="#26292C"/>
<rect width="1.45024" height="7.2512" transform="translate(97.0674 252.551)" fill="#26292C"/>
<rect width="1.45024" height="7.25121" transform="translate(101.434 255.367) rotate(90)" fill="#26292C"/>
<rect width="1.45024" height="7.2512" transform="translate(97.0684 282.148)" fill="#26292C"/>
<rect width="1.45024" height="7.25121" transform="translate(101.439 285.124) rotate(90)" fill="#26292C"/>
<rect width="1.45024" height="7.2512" transform="translate(127.533 14.6208)" fill="#26292C"/>
<rect width="1.45024" height="7.25121" transform="translate(131.883 17.5888) rotate(90)" fill="#26292C"/>
<rect width="1.45024" height="7.2512" transform="translate(127.533 44.3708)" fill="#26292C"/>
<rect width="1.45024" height="7.25121" transform="translate(131.883 47.3566) rotate(90)" fill="#26292C"/>
<rect width="1.45024" height="7.2512" transform="translate(127.532 74.1433)" fill="#26292C"/>
<rect width="1.45024" height="7.25121" transform="translate(131.883 76.9535) rotate(90)" fill="#26292C"/>
<rect width="1.45024" height="7.2512" transform="translate(127.532 103.897)" fill="#26292C"/>
<rect width="1.45024" height="7.25121" transform="translate(131.883 106.733) rotate(90)" fill="#26292C"/>
<rect width="1.45024" height="7.2512" transform="translate(127.533 133.5)" fill="#26292C"/>
<rect width="1.45024" height="7.25121" transform="translate(131.884 136.478) rotate(90)" fill="#26292C"/>
<rect width="1.45024" height="7.2512" transform="translate(127.532 163.265)" fill="#26292C"/>
<rect width="1.45024" height="7.25121" transform="translate(131.883 166.239) rotate(90)" fill="#26292C"/>
<rect width="1.45024" height="7.2512" transform="translate(127.533 193.025)" fill="#26292C"/>
<rect width="1.45024" height="7.25121" transform="translate(131.884 195.993) rotate(90)" fill="#26292C"/>
<rect width="1.45024" height="7.2512" transform="translate(127.532 222.793)" fill="#26292C"/>
<rect width="1.45024" height="7.25121" transform="translate(131.883 225.599) rotate(90)" fill="#26292C"/>
<rect width="1.45024" height="7.2512" transform="translate(127.533 252.551)" fill="#26292C"/>
<rect width="1.45024" height="7.25121" transform="translate(131.883 255.367) rotate(90)" fill="#26292C"/>
<rect width="1.45024" height="7.2512" transform="translate(127.533 282.148)" fill="#26292C"/>
<rect width="1.45024" height="7.25121" transform="translate(131.884 285.124) rotate(90)" fill="#26292C"/>
<rect width="1.45024" height="7.2512" transform="translate(157.981 14.6208)" fill="#26292C"/>
<rect width="1.45024" height="7.25121" transform="translate(162.338 17.5888) rotate(90)" fill="#26292C"/>
<rect width="1.45024" height="7.2512" transform="translate(157.981 44.3708)" fill="#26292C"/>
<rect width="1.45024" height="7.25121" transform="translate(162.338 47.3566) rotate(90)" fill="#26292C"/>
<rect width="1.45024" height="7.2512" transform="translate(157.987 74.1433)" fill="#26292C"/>
<rect width="1.45024" height="7.25121" transform="translate(162.338 76.9535) rotate(90)" fill="#26292C"/>
<rect width="1.45024" height="7.2512" transform="translate(157.977 103.897)" fill="#26292C"/>
<rect width="1.45024" height="7.25121" transform="translate(162.339 106.733) rotate(90)" fill="#26292C"/>
<rect width="1.45024" height="7.2512" transform="translate(157.979 133.5)" fill="#26292C"/>
<rect width="1.45024" height="7.25121" transform="translate(162.339 136.478) rotate(90)" fill="#26292C"/>
<rect width="1.45024" height="7.2512" transform="translate(157.977 163.265)" fill="#26292C"/>
<rect width="1.45024" height="7.25121" transform="translate(162.338 166.239) rotate(90)" fill="#26292C"/>
<rect width="1.45024" height="7.2512" transform="translate(157.981 193.025)" fill="#26292C"/>
<rect width="1.45024" height="7.25121" transform="translate(162.338 195.993) rotate(90)" fill="#26292C"/>
<rect width="1.45024" height="7.2512" transform="translate(157.987 222.793)" fill="#26292C"/>
<rect width="1.45024" height="7.25121" transform="translate(162.338 225.599) rotate(90)" fill="#26292C"/>
<rect width="1.45024" height="7.2512" transform="translate(157.987 252.551)" fill="#26292C"/>
<rect width="1.45024" height="7.25121" transform="translate(162.339 255.367) rotate(90)" fill="#26292C"/>
<rect width="1.45024" height="7.2512" transform="translate(157.979 282.148)" fill="#26292C"/>
<rect width="1.45024" height="7.25121" transform="translate(162.339 285.124) rotate(90)" fill="#26292C"/>
<rect width="1.45024" height="7.2512" transform="translate(188.448 14.6208)" fill="#26292C"/>
<rect width="1.45024" height="7.25121" transform="translate(192.793 17.5888) rotate(90)" fill="#26292C"/>
<rect width="1.45024" height="7.2512" transform="translate(188.448 44.3708)" fill="#26292C"/>
<rect width="1.45024" height="7.25121" transform="translate(192.793 47.3566) rotate(90)" fill="#26292C"/>
<rect width="1.45024" height="7.2512" transform="translate(188.442 74.1433)" fill="#26292C"/>
<rect width="1.45024" height="7.25121" transform="translate(192.782 76.9535) rotate(90)" fill="#26292C"/>
<rect width="1.45024" height="7.2512" transform="translate(188.442 103.897)" fill="#26292C"/>
<rect width="1.45024" height="7.25121" transform="translate(192.785 106.733) rotate(90)" fill="#26292C"/>
<rect width="1.45024" height="7.2512" transform="translate(188.443 133.5)" fill="#26292C"/>
<rect width="1.45024" height="7.25121" transform="translate(192.783 136.478) rotate(90)" fill="#26292C"/>
<rect width="1.45024" height="7.2512" transform="translate(188.442 163.265)" fill="#26292C"/>
<rect width="1.45024" height="7.25121" transform="translate(192.782 166.239) rotate(90)" fill="#26292C"/>
<rect width="1.45024" height="7.2512" transform="translate(188.449 193.025)" fill="#26292C"/>
<rect width="1.45024" height="7.25121" transform="translate(192.794 195.993) rotate(90)" fill="#26292C"/>
<rect width="1.45024" height="7.2512" transform="translate(188.442 222.793)" fill="#26292C"/>
<rect width="1.45024" height="7.25121" transform="translate(192.782 225.599) rotate(90)" fill="#26292C"/>
<rect width="1.45024" height="7.2512" transform="translate(188.443 252.551)" fill="#26292C"/>
<rect width="1.45024" height="7.25121" transform="translate(192.786 255.367) rotate(90)" fill="#26292C"/>
<rect width="1.45024" height="7.2512" transform="translate(188.443 282.148)" fill="#26292C"/>
<rect width="1.45024" height="7.25121" transform="translate(192.783 285.124) rotate(90)" fill="#26292C"/>
<rect width="1.45024" height="7.2512" transform="translate(218.893 14.6208)" fill="#26292C"/>
<rect width="1.45024" height="7.25121" transform="translate(223.247 17.5888) rotate(90)" fill="#26292C"/>
<rect width="1.45024" height="7.2512" transform="translate(218.893 44.3708)" fill="#26292C"/>
<rect width="1.45024" height="7.25121" transform="translate(223.247 47.3566) rotate(90)" fill="#26292C"/>
<rect width="1.45024" height="7.2512" transform="translate(218.887 74.1433)" fill="#26292C"/>
<rect width="1.45024" height="7.25121" transform="translate(223.247 76.9535) rotate(90)" fill="#26292C"/>
<rect width="1.45024" height="7.2512" transform="translate(218.887 103.897)" fill="#26292C"/>
<rect width="1.45024" height="7.25121" transform="translate(223.248 106.733) rotate(90)" fill="#26292C"/>
<rect width="1.45024" height="7.2512" transform="translate(218.888 133.5)" fill="#26292C"/>
<rect width="1.45024" height="7.25121" transform="translate(223.248 136.478) rotate(90)" fill="#26292C"/>
<rect width="1.45024" height="7.2512" transform="translate(218.887 163.265)" fill="#26292C"/>
<rect width="1.45024" height="7.25121" transform="translate(223.247 166.239) rotate(90)" fill="#26292C"/>
<rect width="1.45024" height="7.2512" transform="translate(218.894 193.025)" fill="#26292C"/>
<rect width="1.45024" height="7.25121" transform="translate(223.248 195.993) rotate(90)" fill="#26292C"/>
<rect width="1.45024" height="7.2512" transform="translate(218.887 222.793)" fill="#26292C"/>
<rect width="1.45024" height="7.25121" transform="translate(223.247 225.599) rotate(90)" fill="#26292C"/>
<rect width="1.45024" height="7.2512" transform="translate(218.887 252.551)" fill="#26292C"/>
<rect width="1.45024" height="7.25121" transform="translate(223.249 255.367) rotate(90)" fill="#26292C"/>
<rect width="1.45024" height="7.2512" transform="translate(218.888 282.148)" fill="#26292C"/>
<rect width="1.45024" height="7.25121" transform="translate(223.248 285.124) rotate(90)" fill="#26292C"/>
<rect width="1.45024" height="7.2512" transform="translate(249.357 14.6208)" fill="#26292C"/>
<rect width="1.45024" height="7.25121" transform="translate(253.703 17.5888) rotate(90)" fill="#26292C"/>
<rect width="1.45024" height="7.2512" transform="translate(249.356 44.3708)" fill="#26292C"/>
<rect width="1.45024" height="7.25121" transform="translate(253.702 47.3566) rotate(90)" fill="#26292C"/>
<rect width="1.45024" height="7.2512" transform="translate(249.352 74.1433)" fill="#26292C"/>
<rect width="1.45024" height="7.25121" transform="translate(253.702 76.9535) rotate(90)" fill="#26292C"/>
<rect width="1.45024" height="7.2512" transform="translate(249.353 103.897)" fill="#26292C"/>
<rect width="1.45024" height="7.25121" transform="translate(253.698 106.733) rotate(90)" fill="#26292C"/>
<rect width="1.45024" height="7.2512" transform="translate(249.353 133.5)" fill="#26292C"/>
<rect width="1.45024" height="7.25121" transform="translate(253.703 136.478) rotate(90)" fill="#26292C"/>
<rect width="1.45024" height="7.2512" transform="translate(249.352 163.265)" fill="#26292C"/>
<rect width="1.45024" height="7.25121" transform="translate(253.702 166.239) rotate(90)" fill="#26292C"/>
<rect width="1.45024" height="7.2512" transform="translate(249.356 193.025)" fill="#26292C"/>
<rect width="1.45024" height="7.25121" transform="translate(253.703 195.993) rotate(90)" fill="#26292C"/>
<rect width="1.45024" height="7.2512" transform="translate(249.352 222.793)" fill="#26292C"/>
<rect width="1.45024" height="7.25121" transform="translate(253.702 225.599) rotate(90)" fill="#26292C"/>
<rect width="1.45024" height="7.2512" transform="translate(249.353 252.551)" fill="#26292C"/>
<rect width="1.45024" height="7.25121" transform="translate(253.697 255.367) rotate(90)" fill="#26292C"/>
<rect width="1.45024" height="7.2512" transform="translate(249.353 282.148)" fill="#26292C"/>
<rect width="1.45024" height="7.25121" transform="translate(253.703 285.124) rotate(90)" fill="#26292C"/>
<rect width="1.45024" height="7.2512" transform="translate(279.812 14.6208)" fill="#26292C"/>
<rect width="1.45024" height="7.25121" transform="translate(284.157 17.5888) rotate(90)" fill="#26292C"/>
<rect width="1.45024" height="7.2512" transform="translate(279.812 44.3708)" fill="#26292C"/>
<rect width="1.45024" height="7.25121" transform="translate(284.157 47.3566) rotate(90)" fill="#26292C"/>
<rect width="1.45024" height="7.2512" transform="translate(279.807 74.1433)" fill="#26292C"/>
<rect width="1.45024" height="7.25121" transform="translate(284.157 76.9535) rotate(90)" fill="#26292C"/>
<rect width="1.45024" height="7.2512" transform="translate(279.807 103.897)" fill="#26292C"/>
<rect width="1.45024" height="7.25121" transform="translate(284.158 106.733) rotate(90)" fill="#26292C"/>
<rect width="1.45024" height="7.2512" transform="translate(279.808 133.5)" fill="#26292C"/>
<rect width="1.45024" height="7.25121" transform="translate(284.159 136.478) rotate(90)" fill="#26292C"/>
<rect width="1.45024" height="7.2512" transform="translate(279.807 163.265)" fill="#26292C"/>
<rect width="1.45024" height="7.25121" transform="translate(284.157 166.239) rotate(90)" fill="#26292C"/>
<rect width="1.45024" height="7.2512" transform="translate(279.812 193.025)" fill="#26292C"/>
<rect width="1.45024" height="7.25121" transform="translate(284.158 195.993) rotate(90)" fill="#26292C"/>
<rect width="1.45024" height="7.2512" transform="translate(279.807 222.793)" fill="#26292C"/>
<rect width="1.45024" height="7.25121" transform="translate(284.157 225.599) rotate(90)" fill="#26292C"/>
<rect width="1.45024" height="7.2512" transform="translate(279.808 252.551)" fill="#26292C"/>
<rect width="1.45024" height="7.25121" transform="translate(284.158 255.367) rotate(90)" fill="#26292C"/>
<rect width="1.45024" height="7.2512" transform="translate(279.808 282.148)" fill="#26292C"/>
<rect width="1.45024" height="7.25121" transform="translate(284.159 285.124) rotate(90)" fill="#26292C"/>
<rect width="1.45024" height="7.2512" transform="translate(310.262 14.6208)" fill="#26292C"/>
<rect width="1.45024" height="7.25121" transform="translate(314.603 17.5888) rotate(90)" fill="#26292C"/>
<rect width="1.45024" height="7.2512" transform="translate(310.262 44.3708)" fill="#26292C"/>
<rect width="1.45024" height="7.25121" transform="translate(314.603 47.3566) rotate(90)" fill="#26292C"/>
<rect width="1.45024" height="7.2512" transform="translate(310.262 74.1433)" fill="#26292C"/>
<rect width="1.45024" height="7.25121" transform="translate(314.603 76.9535) rotate(90)" fill="#26292C"/>
<rect width="1.45024" height="7.2512" transform="translate(310.262 103.897)" fill="#26292C"/>
<rect width="1.45024" height="7.25121" transform="translate(314.604 106.733) rotate(90)" fill="#26292C"/>
<rect width="1.45024" height="7.2512" transform="translate(310.263 133.5)" fill="#26292C"/>
<rect width="1.45024" height="7.25121" transform="translate(314.604 136.478) rotate(90)" fill="#26292C"/>
<rect width="1.45024" height="7.2512" transform="translate(310.262 163.265)" fill="#26292C"/>
<rect width="1.45024" height="7.25121" transform="translate(314.603 166.239) rotate(90)" fill="#26292C"/>
<rect width="1.45024" height="7.2512" transform="translate(310.263 193.025)" fill="#26292C"/>
<rect width="1.45024" height="7.25121" transform="translate(314.604 195.993) rotate(90)" fill="#26292C"/>
<rect width="1.45024" height="7.2512" transform="translate(310.262 222.793)" fill="#26292C"/>
<rect width="1.45024" height="7.25121" transform="translate(314.603 225.599) rotate(90)" fill="#26292C"/>
<rect width="1.45024" height="7.2512" transform="translate(310.263 252.551)" fill="#26292C"/>
<rect width="1.45024" height="7.25121" transform="translate(314.604 255.367) rotate(90)" fill="#26292C"/>
<rect width="1.45024" height="7.2512" transform="translate(310.263 282.148)" fill="#26292C"/>
<rect width="1.45024" height="7.25121" transform="translate(314.604 285.124) rotate(90)" fill="#26292C"/>
<rect width="1.45024" height="7.2512" transform="translate(340.713 14.6208)" fill="#26292C"/>
<rect width="1.45024" height="7.25121" transform="translate(345.068 17.5888) rotate(90)" fill="#26292C"/>
<rect width="1.45024" height="7.2512" transform="translate(340.713 44.3708)" fill="#26292C"/>
<rect width="1.45024" height="7.25121" transform="translate(345.068 47.3566) rotate(90)" fill="#26292C"/>
<rect width="1.45024" height="7.2512" transform="translate(340.717 74.1433)" fill="#26292C"/>
<rect width="1.45024" height="7.25121" transform="translate(345.068 76.9535) rotate(90)" fill="#26292C"/>
<rect width="1.45024" height="7.2512" transform="translate(340.717 103.897)" fill="#26292C"/>
<rect width="1.45024" height="7.25121" transform="translate(345.066 106.733) rotate(90)" fill="#26292C"/>
<rect width="1.45024" height="7.2512" transform="translate(340.718 133.5)" fill="#26292C"/>
<rect width="1.45024" height="7.25121" transform="translate(345.068 136.478) rotate(90)" fill="#26292C"/>
<rect width="1.45024" height="7.2512" transform="translate(340.717 163.265)" fill="#26292C"/>
<rect width="1.45024" height="7.25121" transform="translate(345.068 166.239) rotate(90)" fill="#26292C"/>
<rect width="1.45024" height="7.2512" transform="translate(340.713 193.025)" fill="#26292C"/>
<rect width="1.45024" height="7.25121" transform="translate(345.068 195.993) rotate(90)" fill="#26292C"/>
<rect width="1.45024" height="7.2512" transform="translate(340.717 222.793)" fill="#26292C"/>
<rect width="1.45024" height="7.25121" transform="translate(345.068 225.599) rotate(90)" fill="#26292C"/>
<rect width="1.45024" height="7.2512" transform="translate(340.718 252.551)" fill="#26292C"/>
<rect width="1.45024" height="7.25121" transform="translate(345.067 255.367) rotate(90)" fill="#26292C"/>
<rect width="1.45024" height="7.2512" transform="translate(340.718 282.148)" fill="#26292C"/>
<rect width="1.45024" height="7.25121" transform="translate(345.068 285.124) rotate(90)" fill="#26292C"/>
<rect width="1.45024" height="7.2512" transform="translate(371.174 14.6208)" fill="#26292C"/>
<rect width="1.45024" height="7.25121" transform="translate(375.523 17.5888) rotate(90)" fill="#26292C"/>
<rect width="1.45024" height="7.2512" transform="translate(371.174 44.3708)" fill="#26292C"/>
<rect width="1.45024" height="7.25121" transform="translate(375.523 47.3566) rotate(90)" fill="#26292C"/>
<rect width="1.45024" height="7.2512" transform="translate(371.173 74.1433)" fill="#26292C"/>
<rect width="1.45024" height="7.25121" transform="translate(375.513 76.9535) rotate(90)" fill="#26292C"/>
<rect width="1.45024" height="7.2512" transform="translate(371.173 103.897)" fill="#26292C"/>
<rect width="1.45024" height="7.25121" transform="translate(375.518 106.733) rotate(90)" fill="#26292C"/>
<rect width="1.45024" height="7.2512" transform="translate(371.173 133.5)" fill="#26292C"/>
<rect width="1.45024" height="7.25121" transform="translate(375.513 136.478) rotate(90)" fill="#26292C"/>
<rect width="1.45024" height="7.2512" transform="translate(371.173 163.265)" fill="#26292C"/>
<rect width="1.45024" height="7.25121" transform="translate(375.513 166.239) rotate(90)" fill="#26292C"/>
<rect width="1.45024" height="7.2512" transform="translate(371.174 193.025)" fill="#26292C"/>
<rect width="1.45024" height="7.25121" transform="translate(375.523 195.993) rotate(90)" fill="#26292C"/>
<rect width="1.45024" height="7.2512" transform="translate(371.173 222.793)" fill="#26292C"/>
<rect width="1.45024" height="7.25121" transform="translate(375.513 225.599) rotate(90)" fill="#26292C"/>
<rect width="1.45024" height="7.2512" transform="translate(371.173 252.551)" fill="#26292C"/>
<rect width="1.45024" height="7.25121" transform="translate(375.518 255.367) rotate(90)" fill="#26292C"/>
<rect width="1.45024" height="7.2512" transform="translate(371.172 282.148)" fill="#26292C"/>
<rect width="1.45024" height="7.25121" transform="translate(375.512 285.124) rotate(90)" fill="#26292C"/>
<g filter="url(#filter1_dd_304_6065)">
<g filter="url(#filter2_i_304_6065)">
<path d="M284.5 152C284.5 171.458 278.494 190.441 267.302 206.357C256.11 222.274 240.277 234.347 221.967 240.929C203.656 247.511 183.76 248.28 164.996 243.132C146.232 237.984 129.515 227.169 117.127 212.164C104.739 197.16 97.2848 178.697 95.7822 159.298C94.2796 139.898 98.8019 120.508 108.732 103.775C118.661 87.0415 133.514 73.7813 151.261 65.8051C169.009 57.8288 188.786 55.5253 207.892 59.2091L190 152H284.5Z" fill="#D9D9D9"/>
<path d="M284.5 152C284.5 171.458 278.494 190.441 267.302 206.357C256.11 222.274 240.277 234.347 221.967 240.929C203.656 247.511 183.76 248.28 164.996 243.132C146.232 237.984 129.515 227.169 117.127 212.164C104.739 197.16 97.2848 178.697 95.7822 159.298C94.2796 139.898 98.8019 120.508 108.732 103.775C118.661 87.0415 133.514 73.7813 151.261 65.8051C169.009 57.8288 188.786 55.5253 207.892 59.2091L190 152H284.5Z" fill="url(#paint0_linear_304_6065)"/>
</g>
<path d="M254.5 152C254.5 165.294 250.392 178.263 242.739 189.133C235.086 200.002 224.261 208.242 211.746 212.724C199.23 217.206 185.635 217.711 172.822 214.17C160.008 210.63 148.602 203.217 140.163 192.945C131.724 182.673 126.665 170.045 125.678 156.788C124.691 143.531 127.825 130.292 134.65 118.885C141.475 107.477 151.659 98.4563 163.807 93.0578C175.955 87.6593 189.475 86.1464 202.516 88.726L190 152H254.5Z" fill="#D9D9D9"/>
<path d="M254.5 152C254.5 165.294 250.392 178.263 242.739 189.133C235.086 200.002 224.261 208.242 211.746 212.724C199.23 217.206 185.635 217.711 172.822 214.17C160.008 210.63 148.602 203.217 140.163 192.945C131.724 182.673 126.665 170.045 125.678 156.788C124.691 143.531 127.825 130.292 134.65 118.885C141.475 107.477 151.659 98.4563 163.807 93.0578C175.955 87.6593 189.475 86.1464 202.516 88.726L190 152H254.5Z" fill="url(#paint1_linear_304_6065)"/>
<path d="M171.035 120.5H158.5V141.841H171.035V120.5Z" fill="#3B62EC"/>
<path d="M183.573 141.849H171.038V163.189H183.573V141.849Z" fill="#3B62EC"/>
<path d="M196.103 163.197H183.568V184.538H196.103V163.197Z" fill="#3B62EC"/>
<path d="M208.301 152H196.301V162.5H208.301V152Z" fill="#3B62EC"/>
<g filter="url(#filter3_i_304_6065)">
<path d="M314.801 128C314.801 106.061 307.167 84.8053 293.21 67.8788C279.252 50.9522 259.839 39.4096 238.302 35.2304L220.301 128H314.801Z" fill="#D9D9D9"/>
<path d="M314.801 128C314.801 106.061 307.167 84.8053 293.21 67.8788C279.252 50.9522 259.839 39.4096 238.302 35.2304L220.301 128H314.801Z" fill="url(#paint2_linear_304_6065)"/>
</g>
<g filter="url(#filter4_i_304_6065)">
<path d="M284.801 128C284.801 113.01 279.58 98.4884 270.035 86.9302C260.491 75.3719 247.218 67.4988 232.499 64.664L220.301 128H284.801Z" fill="#D9D9D9"/>
<path d="M284.801 128C284.801 113.01 279.58 98.4884 270.035 86.9302C260.491 75.3719 247.218 67.4988 232.499 64.664L220.301 128H284.801Z" fill="url(#paint3_linear_304_6065)"/>
</g>
<path d="M238.661 117.5H226.121V128H238.661V117.5Z" fill="#3B62EC"/>
<path d="M251.474 96.5H238.939V117.841H251.474V96.5Z" fill="#3B62EC"/>
</g>
</g>
</g>
<defs>
<filter id="filter0_ddi_304_6065" x="0.833008" y="0" width="379.333" height="306" filterUnits="userSpaceOnUse" color-interpolation-filters="sRGB">
<feFlood flood-opacity="0" result="BackgroundImageFix"/>
<feColorMatrix in="SourceAlpha" type="matrix" values="0 0 0 0 0 0 0 0 0 0 0 0 0 0 0 0 0 0 127 0" result="hardAlpha"/>
<feOffset dx="2" dy="2"/>
<feGaussianBlur stdDeviation="1"/>
<feComposite in2="hardAlpha" operator="out"/>
<feColorMatrix type="matrix" values="0 0 0 0 1 0 0 0 0 1 0 0 0 0 1 0 0 0 0.08 0"/>
<feBlend mode="normal" in2="BackgroundImageFix" result="effect1_dropShadow_304_6065"/>
<feColorMatrix in="SourceAlpha" type="matrix" values="0 0 0 0 0 0 0 0 0 0 0 0 0 0 0 0 0 0 127 0" result="hardAlpha"/>
<feOffset dx="-1" dy="-1"/>
<feGaussianBlur stdDeviation="0.5"/>
<feComposite in2="hardAlpha" operator="out"/>
<feColorMatrix type="matrix" values="0 0 0 0 1 0 0 0 0 1 0 0 0 0 1 0 0 0 0.08 0"/>
<feBlend mode="normal" in2="effect1_dropShadow_304_6065" result="effect2_dropShadow_304_6065"/>
<feBlend mode="normal" in="SourceGraphic" in2="effect2_dropShadow_304_6065" result="shape"/>
<feColorMatrix in="SourceAlpha" type="matrix" values="0 0 0 0 0 0 0 0 0 0 0 0 0 0 0 0 0 0 127 0" result="hardAlpha"/>
<feOffset dx="4" dy="4"/>
<feGaussianBlur stdDeviation="8"/>
<feComposite in2="hardAlpha" operator="arithmetic" k2="-1" k3="1"/>
<feColorMatrix type="matrix" values="0 0 0 0 0 0 0 0 0 0 0 0 0 0 0 0 0 0 0.5 0"/>
<feBlend mode="normal" in2="shape" result="effect3_innerShadow_304_6065"/>
</filter>
<filter id="filter1_dd_304_6065" x="64" y="24.7303" width="282.301" height="274.27" filterUnits="userSpaceOnUse" color-interpolation-filters="sRGB">
<feFlood flood-opacity="0" result="BackgroundImageFix"/>
<feColorMatrix in="SourceAlpha" type="matrix" values="0 0 0 0 0 0 0 0 0 0 0 0 0 0 0 0 0 0 127 0" result="hardAlpha"/>
<feOffset dy="21"/>
<feGaussianBlur stdDeviation="15.75"/>
<feComposite in2="hardAlpha" operator="out"/>
<feColorMatrix type="matrix" values="0 0 0 0 0 0 0 0 0 0 0 0 0 0 0 0 0 0 0.8 0"/>
<feBlend mode="normal" in2="BackgroundImageFix" result="effect1_dropShadow_304_6065"/>
<feColorMatrix in="SourceAlpha" type="matrix" values="0 0 0 0 0 0 0 0 0 0 0 0 0 0 0 0 0 0 127 0" result="hardAlpha"/>
<feOffset dy="5"/>
<feGaussianBlur stdDeviation="4"/>
<feComposite in2="hardAlpha" operator="out"/>
<feColorMatrix type="matrix" values="0 0 0 0 0.231373 0 0 0 0 0.384314 0 0 0 0 0.92549 0 0 0 0.1 0"/>
<feBlend mode="normal" in2="effect1_dropShadow_304_6065" result="effect2_dropShadow_304_6065"/>
<feBlend mode="normal" in="SourceGraphic" in2="effect2_dropShadow_304_6065" result="shape"/>
</filter>
<filter id="filter2_i_304_6065" x="91.5" y="57.4999" width="193" height="196" filterUnits="userSpaceOnUse" color-interpolation-filters="sRGB">
<feFlood flood-opacity="0" result="BackgroundImageFix"/>
<feBlend mode="normal" in="SourceGraphic" in2="BackgroundImageFix" result="shape"/>
<feColorMatrix in="SourceAlpha" type="matrix" values="0 0 0 0 0 0 0 0 0 0 0 0 0 0 0 0 0 0 127 0" result="hardAlpha"/>
<feOffset dx="-4" dy="7"/>
<feGaussianBlur stdDeviation="4.5"/>
<feComposite in2="hardAlpha" operator="arithmetic" k2="-1" k3="1"/>
<feColorMatrix type="matrix" values="0 0 0 0 1 0 0 0 0 1 0 0 0 0 1 0 0 0 0.02 0"/>
<feBlend mode="normal" in2="shape" result="effect1_innerShadow_304_6065"/>
</filter>
<filter id="filter3_i_304_6065" x="216.301" y="35.2303" width="98.5" height="99.7697" filterUnits="userSpaceOnUse" color-interpolation-filters="sRGB">
<feFlood flood-opacity="0" result="BackgroundImageFix"/>
<feBlend mode="normal" in="SourceGraphic" in2="BackgroundImageFix" result="shape"/>
<feColorMatrix in="SourceAlpha" type="matrix" values="0 0 0 0 0 0 0 0 0 0 0 0 0 0 0 0 0 0 127 0" result="hardAlpha"/>
<feOffset dx="-4" dy="7"/>
<feGaussianBlur stdDeviation="4.5"/>
<feComposite in2="hardAlpha" operator="arithmetic" k2="-1" k3="1"/>
<feColorMatrix type="matrix" values="0 0 0 0 1 0 0 0 0 1 0 0 0 0 1 0 0 0 0.02 0"/>
<feBlend mode="normal" in2="shape" result="effect1_innerShadow_304_6065"/>
</filter>
<filter id="filter4_i_304_6065" x="216.301" y="64.664" width="68.5" height="70.336" filterUnits="userSpaceOnUse" color-interpolation-filters="sRGB">
<feFlood flood-opacity="0" result="BackgroundImageFix"/>
<feBlend mode="normal" in="SourceGraphic" in2="BackgroundImageFix" result="shape"/>
<feColorMatrix in="SourceAlpha" type="matrix" values="0 0 0 0 0 0 0 0 0 0 0 0 0 0 0 0 0 0 127 0" result="hardAlpha"/>
<feOffset dx="-4" dy="7"/>
<feGaussianBlur stdDeviation="5"/>
<feComposite in2="hardAlpha" operator="arithmetic" k2="-1" k3="1"/>
<feColorMatrix type="matrix" values="0 0 0 0 1 0 0 0 0 1 0 0 0 0 1 0 0 0 0.02 0"/>
<feBlend mode="normal" in2="shape" result="effect1_innerShadow_304_6065"/>
</filter>
<linearGradient id="paint0_linear_304_6065" x1="190" y1="13.9803" x2="190" y2="283.803" gradientUnits="userSpaceOnUse">
<stop stop-color="#0D0D0D"/>
<stop offset="0.956358" stop-color="#191919"/>
</linearGradient>
<linearGradient id="paint1_linear_304_6065" x1="190" y1="57.7961" x2="190" y2="241.961" gradientUnits="userSpaceOnUse">
<stop stop-color="#252525"/>
<stop offset="1" stop-color="#090909"/>
</linearGradient>
<linearGradient id="paint2_linear_304_6065" x1="220.301" y1="-10.0197" x2="220.301" y2="259.803" gradientUnits="userSpaceOnUse">
<stop stop-color="#0D0D0D"/>
<stop offset="0.956358" stop-color="#191919"/>
</linearGradient>
<linearGradient id="paint3_linear_304_6065" x1="220.301" y1="33.7961" x2="220.301" y2="217.961" gradientUnits="userSpaceOnUse">
<stop stop-color="#252525"/>
<stop offset="1" stop-color="#090909"/>
</linearGradient>
<clipPath id="clip0_304_6065">
<rect x="2.83301" y="2" width="373.333" height="300" rx="16" fill="white"/>
</clipPath>
</defs>
</svg>
