<svg width="186" height="40" viewBox="0 0 186 40" fill="none" xmlns="http://www.w3.org/2000/svg">
<g id="Layer_1" clipPath="url(#clip0_188_191)">
<g id="Group">
<path id="Vector" d="M59.5601 37.4221V12.208H63.3116L63.6688 14.2432H63.8475C64.9193 12.8492 66.7409 11.8507 69.2769 11.8507C73.9185 11.8507 77.6349 15.6373 77.6349 21.2422C77.6349 26.8471 73.9216 30.6337 69.2769 30.6337C66.7759 30.6337 65.0278 29.5969 64.0995 28.4198H63.9209V37.4189H59.5632L59.5601 37.4221ZM73.2741 21.2454C73.2741 17.9596 71.1654 15.8893 68.5943 15.8893C66.0231 15.8893 63.9145 17.9596 63.9145 21.2454C63.9145 24.5311 66.0231 26.6015 68.5943 26.6015C71.1654 26.6015 73.2741 24.5311 73.2741 21.2454Z" fill="#3F3F3F"/>
<path id="Vector_2" d="M79.8423 21.2439C79.8423 15.7794 83.7692 11.8524 89.0201 11.8524C94.2709 11.8524 98.1978 15.7794 98.1978 21.2439C98.1978 26.7085 94.2709 30.6354 89.0201 30.6354C83.7692 30.6354 79.8423 26.6702 79.8423 21.2439ZM93.8051 21.2439C93.8051 18.0283 91.6614 15.8878 89.0201 15.8878C86.3787 15.8878 84.1999 18.0315 84.1999 21.2439C84.1999 24.4563 86.3787 26.5649 89.0201 26.5649C91.6614 26.5649 93.8051 24.4595 93.8051 21.2439Z" fill="#3F3F3F"/>
<path id="Vector_3" d="M101.355 30.2797V5.2793H105.713V30.2797H101.355Z" fill="#3F3F3F"/>
<path id="Vector_4" d="M121.89 12.208H126.531L118.674 34.1715C117.889 36.3503 116.817 37.4221 113.994 37.4221H109.78V33.3867H113.353C113.997 33.3867 114.352 33.0645 114.568 32.5286L114.996 31.3515L107.64 12.208H112.281L116.961 24.7449H117.676L121.89 12.208Z" fill="#3F3F3F"/>
<path id="Vector_5" d="M127.365 31.1728H131.792C131.971 32.35 133.148 33.9577 135.936 33.9577C138.542 33.9577 140.259 32.3149 140.259 29.8139V27.2778H140.08C139.117 28.3145 137.33 29.2428 135.043 29.2428C130.401 29.2428 126.829 25.67 126.829 20.5276C126.829 15.3853 130.401 11.8507 135.043 11.8507C137.436 11.8507 139.187 12.8141 140.294 14.1731H140.472L140.83 12.208H144.616V29.8139C144.616 34.5989 141.401 37.7794 135.936 37.7794C129.83 37.7794 127.473 33.7791 127.365 31.1728ZM140.259 20.5308C140.259 17.7108 138.259 15.7458 135.722 15.7458C133.186 15.7458 131.221 17.7108 131.221 20.5308C131.221 23.3508 133.221 25.351 135.722 25.351C138.223 25.351 140.259 23.3859 140.259 20.5308Z" fill="#3F3F3F"/>
<path id="Vector_6" d="M147.647 21.2471C147.647 15.7825 151.574 11.8556 156.825 11.8556C162.076 11.8556 166.002 15.7825 166.002 21.2471C166.002 26.7116 162.076 30.6386 156.825 30.6386C151.574 30.6386 147.647 26.6734 147.647 21.2471ZM161.61 21.2471C161.61 18.0315 159.466 15.891 156.825 15.891C154.183 15.891 152.005 18.0347 152.005 21.2471C152.005 24.4595 154.183 26.5681 156.825 26.5681C159.466 26.5681 161.61 24.4627 161.61 21.2471Z" fill="#3F3F3F"/>
<path id="Vector_7" d="M169.033 30.2796V12.208H172.781L173.139 13.921H173.317C174.032 13.1012 175.818 11.8507 178.53 11.8507C182.674 11.8507 185.672 14.8494 185.672 19.4207V30.2764H181.315V19.9949C181.315 17.6725 179.672 15.9946 177.423 15.9946C175.174 15.9946 173.387 17.7459 173.387 19.9949V30.2796H169.03H169.033Z" fill="#3F3F3F"/>
</g>
<path id="Vector_8" d="M34.1964 28.1708L44.9086 21.9853C45.4764 21.6567 45.8273 21.0474 45.8273 20.3935V8.02245C45.8273 7.36849 45.4764 6.75919 44.9086 6.43062L34.1964 0.245114C33.6285 -0.0834606 32.9235 -0.0802706 32.3589 0.245114L21.6467 6.43062C21.0789 6.75919 20.728 7.36849 20.728 8.02245V30.1295L13.2154 34.4648L5.70287 30.1295V21.4557L13.2154 17.1205L18.1696 19.9819V14.1633L14.1342 11.8314C13.8566 11.6719 13.5376 11.5857 13.2154 11.5857C12.8932 11.5857 12.5742 11.6719 12.2967 11.8314L1.58133 18.0137C1.0135 18.3423 0.662598 18.9516 0.662598 19.6055V31.9765C0.662598 32.6305 1.0135 33.2398 1.58133 33.5683L12.2935 39.7538C12.8613 40.0792 13.5631 40.0792 14.131 39.7538L24.8432 33.5683C25.411 33.2398 25.7619 32.6305 25.7619 31.9765V9.86949L25.8959 9.79293L33.2713 5.53421L40.7838 9.86949V18.5432L33.2713 22.8785L28.3235 20.0234V25.8421L32.3525 28.1676C32.9204 28.493 33.6254 28.493 34.19 28.1676L34.1964 28.1708Z" fill="#3F3F3F"/>
</g>
<defs>
<clipPath id="clip0_188_191">
<rect width="185.013" height="40" fill="white" transform="translate(0.662598)"/>
</clipPath>
</defs>
</svg>
