<svg xmlns="http://www.w3.org/2000/svg" xmlns:xlink="http://www.w3.org/1999/xlink" width="359" height="164" fill="none" xmlns:v="https://vecta.io/nano"><style><![CDATA[.B{fill:#fff}.C{color-interpolation-filters:sRGB}.D{flood-opacity:0}.E{shape-rendering:crispEdges}]]></style><g clip-path="url(#E)"><rect x=".74" width="357.333" height="164" rx="16" fill="#1f1f1f"/><g fill="#26292c"><use xlink:href="#F"/><path d="M25.937 18.813h-1.419v2.417h1.419v-2.417z"/><use xlink:href="#G"/><path d="M28.774 18.813h-1.419v2.417h1.419v-2.417z"/><path d="M30.194 16.397h-1.419v2.417h1.419v-2.417zm24.42 0h-1.419v2.417h1.419v-2.417z"/><path d="M56.034 18.813h-1.419v2.417h1.419v-2.417z"/><path d="M57.452 21.23h-1.419v2.417h1.419V21.23z"/><path d="M58.872 18.813h-1.419v2.417h1.419v-2.417z"/><path d="M60.292 16.397h-1.419v2.417h1.419v-2.417zm24.419 0h-1.419v2.417h1.419v-2.417z"/><path d="M86.131 18.813h-1.419v2.417h1.419v-2.417z"/><path d="M87.549 21.23H86.13v2.417h1.419V21.23z"/><path d="M88.969 18.813h-1.419v2.417h1.419v-2.417z"/><path d="M90.389 16.397h-1.419v2.417h1.419v-2.417z"/><use xlink:href="#H"/><path d="M116.228 18.813h-1.42v2.417h1.42v-2.417z"/><path d="M117.646 21.23h-1.419v2.417h1.419V21.23z"/><path d="M119.065 18.813h-1.419v2.417h1.419v-2.417z"/><path d="M120.485 16.397h-1.419v2.417h1.419v-2.417zm24.42 0h-1.42v2.417h1.42v-2.417z"/><path d="M146.325 18.813h-1.42v2.417h1.42v-2.417z"/><path d="M147.743 21.23h-1.419v2.417h1.419V21.23z"/><path d="M149.163 18.813h-1.42v2.417h1.42v-2.417z"/><path d="M150.583 16.397h-1.42v2.417h1.42v-2.417zm24.419 0h-1.419v2.417h1.419v-2.417z"/><path d="M176.422 18.813h-1.42v2.417h1.42v-2.417z"/><path d="M177.84 21.23h-1.419v2.417h1.419V21.23z"/><path d="M179.26 18.813h-1.42v2.417h1.42v-2.417z"/><path d="M180.68 16.397h-1.42v2.417h1.42v-2.417zm24.419 0h-1.419v2.417h1.419v-2.417z"/><use xlink:href="#I"/><use xlink:href="#J"/><path d="M209.357 18.813h-1.419v2.417h1.419v-2.417z"/><path d="M210.777 16.397h-1.42v2.417h1.42v-2.417zm24.419 0h-1.419v2.417h1.419v-2.417z"/><path d="M236.616 18.813h-1.419v2.417h1.419v-2.417z"/><path d="M238.035 21.23h-1.42v2.417h1.42V21.23z"/><path d="M239.454 18.813h-1.419v2.417h1.419v-2.417z"/><path d="M240.874 16.397h-1.419v2.417h1.419v-2.417zm24.419 0h-1.419v2.417h1.419v-2.417z"/><path d="M266.713 18.813h-1.419v2.417h1.419v-2.417z"/><path d="M268.132 21.23h-1.42v2.417h1.42V21.23z"/><path d="M269.551 18.813h-1.419v2.417h1.419v-2.417z"/><path d="M270.971 16.397h-1.419v2.417h1.419v-2.417zm24.419 0h-1.419v2.417h1.419v-2.417z"/><path d="M296.81 18.813h-1.419v2.417h1.419v-2.417z"/><path d="M298.229 21.23h-1.42v2.417h1.42V21.23z"/><path d="M299.648 18.813h-1.419v2.417h1.419v-2.417z"/><path d="M301.068 16.397h-1.42v2.417h1.42v-2.417zm24.419 0h-1.419v2.417h1.419v-2.417z"/><path d="M326.907 18.813h-1.419v2.417h1.419v-2.417z"/><path d="M328.326 21.23h-1.42v2.417h1.42V21.23z"/><path d="M329.745 18.813h-1.419v2.417h1.419v-2.417z"/><path d="M331.165 16.397h-1.419v2.417h1.419v-2.417zm24.419 0h-1.419v2.417h1.419v-2.417z"/><path d="M357.004 18.813h-1.419v2.417h1.419v-2.417z"/><path d="M358.423 21.23h-1.42v2.417h1.42V21.23zM24.517 46.647h-1.419v2.417h1.419v-2.417z"/><path d="M25.937 49.063h-1.419v2.417h1.419v-2.417z"/><use xlink:href="#K"/><path d="M28.774 49.063h-1.419v2.417h1.419v-2.417z"/><path d="M30.194 46.647h-1.419v2.417h1.419v-2.417zm24.42 0h-1.419v2.417h1.419v-2.417z"/><path d="M56.034 49.063h-1.419v2.417h1.419v-2.417z"/><path d="M57.452 51.48h-1.419v2.417h1.419V51.48z"/><path d="M58.872 49.063h-1.419v2.417h1.419v-2.417z"/><path d="M60.292 46.647h-1.419v2.417h1.419v-2.417zm24.419 0h-1.419v2.417h1.419v-2.417z"/><path d="M86.131 49.063h-1.419v2.417h1.419v-2.417z"/><path d="M87.549 51.48H86.13v2.417h1.419V51.48z"/><path d="M88.969 49.063h-1.419v2.417h1.419v-2.417z"/><path d="M90.389 46.647H88.97v2.417h1.419v-2.417zm24.419 0h-1.42v2.417h1.42v-2.417z"/><path d="M116.228 49.063h-1.42v2.417h1.42v-2.417z"/><path d="M117.646 51.48h-1.419v2.417h1.419V51.48z"/><path d="M119.065 49.063h-1.419v2.417h1.419v-2.417z"/><path d="M120.485 46.647h-1.419v2.417h1.419v-2.417zm24.42 0h-1.42v2.417h1.42v-2.417z"/><path d="M146.325 49.063h-1.42v2.417h1.42v-2.417z"/><path d="M147.743 51.48h-1.419v2.417h1.419V51.48z"/><path d="M149.163 49.063h-1.42v2.417h1.42v-2.417z"/><path d="M150.583 46.647h-1.42v2.417h1.42v-2.417zm24.419 0h-1.419v2.417h1.419v-2.417z"/><path d="M176.422 49.063h-1.42v2.417h1.42v-2.417z"/><path d="M177.84 51.48h-1.419v2.417h1.419V51.48z"/><path d="M179.26 49.063h-1.42v2.417h1.42v-2.417z"/><path d="M180.68 46.647h-1.42v2.417h1.42v-2.417zm24.419 0h-1.419v2.417h1.419v-2.417z"/><path d="M206.519 49.063H205.1v2.417h1.419v-2.417z"/><use xlink:href="#L"/><path d="M209.357 49.063h-1.419v2.417h1.419v-2.417z"/><path d="M210.777 46.647h-1.42v2.417h1.42v-2.417zm24.419 0h-1.419v2.417h1.419v-2.417z"/><path d="M236.616 49.063h-1.419v2.417h1.419v-2.417z"/><path d="M238.035 51.48h-1.42v2.417h1.42V51.48z"/><path d="M239.454 49.063h-1.419v2.417h1.419v-2.417z"/><path d="M240.874 46.647h-1.419v2.417h1.419v-2.417zm24.419 0h-1.419v2.417h1.419v-2.417z"/><path d="M266.713 49.063h-1.419v2.417h1.419v-2.417z"/><path d="M268.132 51.48h-1.42v2.417h1.42V51.48z"/><path d="M269.551 49.063h-1.419v2.417h1.419v-2.417z"/><path d="M270.971 46.647h-1.419v2.417h1.419v-2.417zm24.419 0h-1.419v2.417h1.419v-2.417z"/><path d="M296.81 49.063h-1.419v2.417h1.419v-2.417z"/><path d="M298.229 51.48h-1.42v2.417h1.42V51.48z"/><path d="M299.648 49.063h-1.419v2.417h1.419v-2.417z"/><path d="M301.068 46.647h-1.42v2.417h1.42v-2.417zm24.419 0h-1.419v2.417h1.419v-2.417z"/><path d="M326.907 49.063h-1.419v2.417h1.419v-2.417z"/><path d="M328.326 51.48h-1.42v2.417h1.42V51.48z"/><path d="M329.745 49.063h-1.419v2.417h1.419v-2.417z"/><path d="M331.165 46.647h-1.419v2.417h1.419v-2.417zm24.419 0h-1.419v2.417h1.419v-2.417z"/><path d="M357.004 49.063h-1.419v2.417h1.419v-2.417z"/><path d="M358.423 51.48h-1.42v2.417h1.42V51.48zM24.517 76.897h-1.419v2.417h1.419v-2.417z"/><path d="M25.937 79.313h-1.419v2.417h1.419v-2.417z"/><use xlink:href="#M"/><path d="M28.774 79.313h-1.419v2.417h1.419v-2.417z"/><path d="M30.194 76.897h-1.419v2.417h1.419v-2.417zm24.42 0h-1.419v2.417h1.419v-2.417z"/><path d="M56.034 79.313h-1.419v2.417h1.419v-2.417z"/><path d="M57.452 81.73h-1.419v2.417h1.419V81.73z"/><path d="M58.872 79.313h-1.419v2.417h1.419v-2.417z"/><path d="M60.292 76.897h-1.419v2.417h1.419v-2.417zm24.419 0h-1.419v2.417h1.419v-2.417z"/><path d="M86.131 79.313h-1.419v2.417h1.419v-2.417z"/><path d="M87.549 81.73H86.13v2.417h1.419V81.73z"/><path d="M88.969 79.313h-1.419v2.417h1.419v-2.417z"/><path d="M90.389 76.897H88.97v2.417h1.419v-2.417zm24.419 0h-1.42v2.417h1.42v-2.417z"/><path d="M116.228 79.313h-1.42v2.417h1.42v-2.417z"/><path d="M117.646 81.73h-1.419v2.417h1.419V81.73z"/><path d="M119.065 79.313h-1.419v2.417h1.419v-2.417z"/><path d="M120.485 76.897h-1.419v2.417h1.419v-2.417zm24.42 0h-1.42v2.417h1.42v-2.417z"/><path d="M146.325 79.313h-1.42v2.417h1.42v-2.417z"/><path d="M147.743 81.73h-1.419v2.417h1.419V81.73z"/><path d="M149.163 79.313h-1.42v2.417h1.42v-2.417z"/><path d="M150.583 76.897h-1.42v2.417h1.42v-2.417zm24.419 0h-1.419v2.417h1.419v-2.417z"/><path d="M176.422 79.313h-1.42v2.417h1.42v-2.417z"/><path d="M177.84 81.73h-1.419v2.417h1.419V81.73z"/><path d="M179.26 79.313h-1.42v2.417h1.42v-2.417z"/><path d="M180.68 76.897h-1.42v2.417h1.42v-2.417zm24.419 0h-1.419v2.417h1.419v-2.417z"/><path d="M206.519 79.313H205.1v2.417h1.419v-2.417z"/><use xlink:href="#N"/><path d="M209.357 79.313h-1.419v2.417h1.419v-2.417z"/><path d="M210.777 76.897h-1.42v2.417h1.42v-2.417zm24.419 0h-1.419v2.417h1.419v-2.417z"/><path d="M236.616 79.313h-1.419v2.417h1.419v-2.417z"/><path d="M238.035 81.73h-1.42v2.417h1.42V81.73z"/><path d="M239.454 79.313h-1.419v2.417h1.419v-2.417z"/><path d="M240.874 76.897h-1.419v2.417h1.419v-2.417zm24.419 0h-1.419v2.417h1.419v-2.417z"/><path d="M266.713 79.313h-1.419v2.417h1.419v-2.417z"/><path d="M268.132 81.73h-1.42v2.417h1.42V81.73z"/><path d="M269.551 79.313h-1.419v2.417h1.419v-2.417z"/><path d="M270.971 76.897h-1.419v2.417h1.419v-2.417zm24.419 0h-1.419v2.417h1.419v-2.417z"/><path d="M296.81 79.313h-1.419v2.417h1.419v-2.417z"/><path d="M298.229 81.73h-1.42v2.417h1.42V81.73z"/><path d="M299.648 79.313h-1.419v2.417h1.419v-2.417z"/><path d="M301.068 76.897h-1.42v2.417h1.42v-2.417zm24.419 0h-1.419v2.417h1.419v-2.417z"/><path d="M326.907 79.313h-1.419v2.417h1.419v-2.417z"/><path d="M328.326 81.73h-1.42v2.417h1.42V81.73z"/><path d="M329.745 79.313h-1.419v2.417h1.419v-2.417z"/><path d="M331.165 76.897h-1.419v2.417h1.419v-2.417zm24.419 0h-1.419v2.417h1.419v-2.417z"/><path d="M357.004 79.313h-1.419v2.417h1.419v-2.417z"/><path d="M358.423 81.73h-1.42v2.417h1.42V81.73zM24.517 107.146h-1.419v2.417h1.419v-2.417z"/><path d="M25.937 109.563h-1.419v2.417h1.419v-2.417z"/><use xlink:href="#O"/><path d="M28.774 109.563h-1.419v2.417h1.419v-2.417z"/><path d="M30.194 107.146h-1.419v2.417h1.419v-2.417zm24.42 0h-1.419v2.417h1.419v-2.417z"/><path d="M56.034 109.563h-1.419v2.417h1.419v-2.417z"/><path d="M57.452 111.98h-1.419v2.416h1.419v-2.416z"/><path d="M58.872 109.563h-1.419v2.417h1.419v-2.417z"/><path d="M60.292 107.146h-1.419v2.417h1.419v-2.417zm24.419 0h-1.419v2.417h1.419v-2.417z"/><path d="M86.131 109.563h-1.419v2.417h1.419v-2.417z"/><path d="M87.549 111.98H86.13v2.416h1.419v-2.416z"/><path d="M88.969 109.563h-1.419v2.417h1.419v-2.417z"/><path d="M90.389 107.146H88.97v2.417h1.419v-2.417zm24.419 0h-1.42v2.417h1.42v-2.417z"/><path d="M116.228 109.563h-1.42v2.417h1.42v-2.417z"/><path d="M117.646 111.98h-1.419v2.416h1.419v-2.416z"/><path d="M119.065 109.563h-1.419v2.417h1.419v-2.417z"/><path d="M120.485 107.146h-1.419v2.417h1.419v-2.417zm24.42 0h-1.42v2.417h1.42v-2.417z"/><path d="M146.325 109.563h-1.42v2.417h1.42v-2.417z"/><path d="M147.743 111.98h-1.419v2.416h1.419v-2.416z"/><path d="M149.163 109.563h-1.42v2.417h1.42v-2.417z"/><path d="M150.583 107.146h-1.42v2.417h1.42v-2.417zm24.419 0h-1.419v2.417h1.419v-2.417z"/><path d="M176.422 109.563h-1.42v2.417h1.42v-2.417z"/><path d="M177.84 111.98h-1.419v2.416h1.419v-2.416z"/><path d="M179.26 109.563h-1.42v2.417h1.42v-2.417z"/><path d="M180.68 107.146h-1.42v2.417h1.42v-2.417zm24.419 0h-1.419v2.417h1.419v-2.417z"/><path d="M206.519 109.563H205.1v2.417h1.419v-2.417z"/><use xlink:href="#P"/><path d="M209.357 109.563h-1.419v2.417h1.419v-2.417z"/><path d="M210.777 107.146h-1.42v2.417h1.42v-2.417zm24.419 0h-1.419v2.417h1.419v-2.417z"/><path d="M236.616 109.563h-1.419v2.417h1.419v-2.417z"/><path d="M238.035 111.98h-1.42v2.416h1.42v-2.416z"/><path d="M239.454 109.563h-1.419v2.417h1.419v-2.417z"/><path d="M240.874 107.146h-1.419v2.417h1.419v-2.417zm24.419 0h-1.419v2.417h1.419v-2.417z"/><path d="M266.713 109.563h-1.419v2.417h1.419v-2.417z"/><path d="M268.132 111.98h-1.42v2.416h1.42v-2.416z"/><path d="M269.551 109.563h-1.419v2.417h1.419v-2.417z"/><path d="M270.971 107.146h-1.419v2.417h1.419v-2.417zm24.419 0h-1.419v2.417h1.419v-2.417z"/><path d="M296.81 109.563h-1.419v2.417h1.419v-2.417z"/><path d="M298.229 111.98h-1.42v2.416h1.42v-2.416z"/><path d="M299.648 109.563h-1.419v2.417h1.419v-2.417z"/><path d="M301.068 107.146h-1.42v2.417h1.42v-2.417zm24.419 0h-1.419v2.417h1.419v-2.417z"/><path d="M326.907 109.563h-1.419v2.417h1.419v-2.417z"/><path d="M328.326 111.98h-1.42v2.416h1.42v-2.416z"/><path d="M329.745 109.563h-1.419v2.417h1.419v-2.417z"/><path d="M331.165 107.146h-1.419v2.417h1.419v-2.417zm24.419 0h-1.419v2.417h1.419v-2.417z"/><path d="M357.004 109.563h-1.419v2.417h1.419v-2.417z"/><path d="M358.423 111.98h-1.42v2.416h1.42v-2.416zM24.517 137.396h-1.419v2.417h1.419v-2.417z"/><path d="M25.937 139.813h-1.419v2.417h1.419v-2.417z"/><path d="M27.355 142.23h-1.419v2.416h1.419v-2.416z"/><path d="M28.774 139.813h-1.419v2.417h1.419v-2.417z"/><path d="M30.194 137.396h-1.419v2.417h1.419v-2.417zm24.42 0h-1.419v2.417h1.419v-2.417z"/><path d="M56.034 139.813h-1.419v2.417h1.419v-2.417z"/><path d="M57.452 142.23h-1.419v2.416h1.419v-2.416z"/><path d="M58.872 139.813h-1.419v2.417h1.419v-2.417z"/><path d="M60.292 137.396h-1.419v2.417h1.419v-2.417zm24.419 0h-1.419v2.417h1.419v-2.417z"/><path d="M86.131 139.813h-1.419v2.417h1.419v-2.417z"/><path d="M87.549 142.23H86.13v2.416h1.419v-2.416z"/><path d="M88.969 139.813h-1.419v2.417h1.419v-2.417z"/><path d="M90.389 137.396H88.97v2.417h1.419v-2.417zm24.419 0h-1.42v2.417h1.42v-2.417z"/><path d="M116.228 139.813h-1.42v2.417h1.42v-2.417z"/><path d="M117.646 142.23h-1.419v2.416h1.419v-2.416z"/><path d="M119.065 139.813h-1.419v2.417h1.419v-2.417z"/><path d="M120.485 137.396h-1.419v2.417h1.419v-2.417zm24.42 0h-1.42v2.417h1.42v-2.417z"/><path d="M146.325 139.813h-1.42v2.417h1.42v-2.417z"/><path d="M147.743 142.23h-1.419v2.416h1.419v-2.416z"/><path d="M149.163 139.813h-1.42v2.417h1.42v-2.417z"/><path d="M150.583 137.396h-1.42v2.417h1.42v-2.417zm24.419 0h-1.419v2.417h1.419v-2.417z"/><path d="M176.422 139.813h-1.42v2.417h1.42v-2.417z"/><path d="M177.84 142.23h-1.419v2.416h1.419v-2.416z"/><path d="M179.26 139.813h-1.42v2.417h1.42v-2.417z"/><path d="M180.68 137.396h-1.42v2.417h1.42v-2.417zm24.419 0h-1.419v2.417h1.419v-2.417z"/><path d="M206.519 139.813H205.1v2.417h1.419v-2.417z"/><path d="M207.938 142.23h-1.42v2.416h1.42v-2.416z"/><path d="M209.357 139.813h-1.419v2.417h1.419v-2.417z"/><path d="M210.777 137.396h-1.42v2.417h1.42v-2.417zm24.419 0h-1.419v2.417h1.419v-2.417z"/><path d="M236.616 139.813h-1.419v2.417h1.419v-2.417z"/><path d="M238.035 142.23h-1.42v2.416h1.42v-2.416z"/><path d="M239.454 139.813h-1.419v2.417h1.419v-2.417z"/><path d="M240.874 137.396h-1.419v2.417h1.419v-2.417zm24.419 0h-1.419v2.417h1.419v-2.417z"/><path d="M266.713 139.813h-1.419v2.417h1.419v-2.417z"/><path d="M268.132 142.23h-1.42v2.416h1.42v-2.416z"/><path d="M269.551 139.813h-1.419v2.417h1.419v-2.417z"/><path d="M270.971 137.396h-1.419v2.417h1.419v-2.417zm24.419 0h-1.419v2.417h1.419v-2.417z"/><path d="M296.81 139.813h-1.419v2.417h1.419v-2.417z"/><path d="M298.229 142.23h-1.42v2.416h1.42v-2.416z"/><path d="M299.648 139.813h-1.419v2.417h1.419v-2.417z"/><path d="M301.068 137.396h-1.42v2.417h1.42v-2.417zm24.419 0h-1.419v2.417h1.419v-2.417z"/><path d="M326.907 139.813h-1.419v2.417h1.419v-2.417z"/><path d="M328.326 142.23h-1.42v2.416h1.42v-2.416z"/><path d="M329.745 139.813h-1.419v2.417h1.419v-2.417z"/><path d="M331.165 137.396h-1.419v2.417h1.419v-2.417zm24.419 0h-1.419v2.417h1.419v-2.417z"/><path d="M357.004 139.813h-1.419v2.417h1.419v-2.417z"/><path d="M358.423 142.23h-1.42v2.416h1.42v-2.416z"/></g><g filter="url(#A)"><path d="M175.985 111.505v-6.63h26.52V81.339c0-6.464-2.251-11.948-6.754-16.451s-9.986-6.754-16.451-6.754-11.947 2.252-16.45 6.754-6.755 9.987-6.755 16.451v20.222h-3.315a6.38 6.38 0 0 1-4.682-1.948c-1.298-1.298-1.948-2.859-1.948-4.682V88.3a6.52 6.52 0 0 1 .871-3.273c.58-1.022 1.395-1.837 2.444-2.445l.249-4.392c.442-3.757 1.533-7.238 3.274-10.442s3.922-5.995 6.547-8.37 5.635-4.227 9.033-5.553 6.975-1.989 10.732-1.989 7.321.663 10.691 1.989 6.382 3.163 9.034 5.511 4.834 5.124 6.547 8.329 2.818 6.685 3.315 10.442l.248 4.31a5.48 5.48 0 0 1 2.445 2.238c.58.995.87 2.044.87 3.149v7.624c0 1.105-.29 2.155-.87 3.149s-1.395 1.74-2.445 2.237v4.061a6.38 6.38 0 0 1-1.947 4.682 6.38 6.38 0 0 1-4.683 1.948h-26.52zm-6.63-23.205c-.939 0-1.726-.318-2.362-.953s-.953-1.423-.953-2.362.318-1.727.953-2.362 1.423-.953 2.362-.953 1.727.318 2.362.953.953 1.423.953 2.362-.317 1.727-.953 2.362-1.422.953-2.362.953zm19.89 0c-.939 0-1.726-.318-2.362-.953s-.953-1.423-.953-2.362.318-1.727.953-2.362 1.423-.953 2.362-.953 1.727.318 2.362.953.953 1.423.953 2.362-.317 1.727-.953 2.362-1.422.953-2.362.953zm-29.752-5.138c-.386-5.856 1.382-10.884 5.304-15.083s8.813-6.299 14.669-6.299c4.917 0 9.241 1.561 12.97 4.683s5.981 7.113 6.754 11.975c-5.027-.055-9.655-1.409-13.881-4.061s-7.473-6.243-9.738-10.774c-.884 4.42-2.749 8.357-5.594 11.81s-6.34 6.036-10.484 7.749z" fill="#3b62ec"/></g><g filter="url(#B)"><path d="M189 29a4 4 0 0 1 4-4h111a4 4 0 0 1 4 4v16a4 4 0 0 1-4 4H193a4 4 0 0 1-4-4V29z" class="B E"/><path d="M193 24.5a4.5 4.5 0 0 0-4.5 4.5v16a4.5 4.5 0 0 0 4.5 4.5h111a4.5 4.5 0 0 0 4.5-4.5V29a4.5 4.5 0 0 0-4.5-4.5H193z" stroke="#cdd0d5" class="E"/><path d="M199.642 41l-2.386-8.727h1.074l1.823 7.108h.086l1.858-7.108h1.193l1.858 7.108h.085l1.824-7.108h1.074L205.744 41h-1.091l-1.926-6.955h-.068L200.733 41h-1.091zm11.804.136c-.631 0-1.175-.139-1.632-.418s-.805-.673-1.053-1.176-.366-1.094-.366-1.764.122-1.261.366-1.773.591-.915 1.032-1.202.96-.435 1.551-.435c.341 0 .677.057 1.01.17s.635.298.907.554.49.588.652 1.006.243.932.243 1.543v.426h-5.045v-.869h4.023c0-.369-.074-.699-.222-.989a1.67 1.67 0 0 0-.622-.686c-.267-.168-.583-.251-.946-.251-.401 0-.747.099-1.04.298a1.96 1.96 0 0 0-.669.767c-.156.315-.234.653-.234 1.014v.58c0 .494.085.913.255 1.257s.414.601.72.78.664.264 1.07.264a2.18 2.18 0 0 0 .716-.111 1.53 1.53 0 0 0 .558-.341 1.55 1.55 0 0 0 .362-.571l.972.273c-.102.33-.274.619-.516.869s-.539.44-.895.58-.754.205-1.197.205zm5.109-8.864v3h-.937v-3h.937zM218.346 41v-6.545h.972v.989h.068c.119-.324.335-.587.648-.788s.665-.303 1.057-.303l.277.004.251.013v1.023c-.034-.009-.112-.021-.234-.038s-.246-.03-.38-.03a1.78 1.78 0 0 0-.852.2 1.51 1.51 0 0 0-.588.546 1.47 1.47 0 0 0-.213.788V41h-1.006zm7.01.136c-.631 0-1.175-.139-1.632-.418s-.805-.673-1.052-1.176-.367-1.094-.367-1.764.122-1.261.367-1.773.59-.915 1.031-1.202.96-.435 1.551-.435c.341 0 .677.057 1.01.17a2.51 2.51 0 0 1 .908.554c.272.253.49.588.652 1.006s.242.932.242 1.543v.426h-5.045v-.869h4.023c0-.369-.074-.699-.222-.989a1.67 1.67 0 0 0-.622-.686c-.267-.168-.582-.251-.946-.251-.401 0-.747.099-1.04.298a1.96 1.96 0 0 0-.669.767c-.156.315-.234.653-.234 1.014v.58c0 .494.085.913.255 1.257a1.85 1.85 0 0 0 .721.78c.306.176.663.264 1.069.264a2.18 2.18 0 0 0 .716-.111 1.53 1.53 0 0 0 .558-.341 1.55 1.55 0 0 0 .363-.571l.971.273c-.102.33-.274.619-.515.869a2.52 2.52 0 0 1-.895.58c-.355.136-.755.205-1.198.205zm8.621-4.074V41h-1.006v-8.727h1.006v3.205h.085c.154-.338.384-.607.69-.805s.722-.303 1.236-.303c.446 0 .837.089 1.172.268s.595.447.78.814.281.827.281 1.389V41h-1.005v-4.091c0-.52-.135-.922-.405-1.206s-.638-.43-1.112-.43a1.86 1.86 0 0 0-.887.209c-.258.139-.463.342-.613.609s-.222.591-.222.972zm8.828 4.074c-.63 0-1.174-.139-1.632-.418s-.805-.673-1.052-1.176-.367-1.094-.367-1.764.122-1.261.367-1.773.591-.915 1.031-1.202.96-.435 1.551-.435a3.1 3.1 0 0 1 1.01.17 2.51 2.51 0 0 1 .908.554c.272.253.49.588.652 1.006s.243.932.243 1.543v.426h-5.046v-.869h4.023c0-.369-.074-.699-.222-.989a1.67 1.67 0 0 0-.622-.686c-.267-.168-.582-.251-.946-.251-.4 0-.747.099-1.04.298s-.512.452-.669.767-.234.653-.234 1.014v.58c0 .494.085.913.256 1.257a1.84 1.84 0 0 0 .72.78c.307.176.663.264 1.069.264.265 0 .503-.037.716-.111a1.54 1.54 0 0 0 .559-.341 1.55 1.55 0 0 0 .362-.571l.971.273c-.102.33-.274.619-.515.869a2.52 2.52 0 0 1-.895.58c-.355.136-.754.205-1.198.205zm4.24-.136v-6.545h.972v.989h.068c.12-.324.335-.587.648-.788s.665-.303 1.057-.303l.277.004.251.013v1.023c-.034-.009-.112-.021-.234-.038s-.246-.03-.379-.03c-.319 0-.603.067-.853.2a1.51 1.51 0 0 0-.588.546 1.47 1.47 0 0 0-.213.788V41h-1.006zm7.01.136c-.63 0-1.174-.139-1.632-.418s-.805-.673-1.052-1.176-.367-1.094-.367-1.764.122-1.261.367-1.773.591-.915 1.031-1.202.96-.435 1.551-.435a3.1 3.1 0 0 1 1.01.17 2.51 2.51 0 0 1 .908.554c.272.253.49.588.652 1.006s.243.932.243 1.543v.426h-5.046v-.869h4.023c0-.369-.074-.699-.222-.989a1.67 1.67 0 0 0-.622-.686c-.267-.168-.582-.251-.946-.251-.4 0-.747.099-1.04.298s-.512.452-.669.767-.234.653-.234 1.014v.58c0 .494.085.913.256 1.257a1.84 1.84 0 0 0 .72.78c.307.176.663.264 1.069.264.265 0 .503-.037.716-.111a1.54 1.54 0 0 0 .559-.341 1.55 1.55 0 0 0 .362-.571l.971.273c-.102.33-.274.619-.515.869a2.52 2.52 0 0 1-.895.58c-.355.136-.754.205-1.198.205zm10.462-6.682v.852h-3.392v-.852h3.392zm-2.403-1.568h1.005v6.239c0 .284.042.497.124.639s.193.233.324.281a1.3 1.3 0 0 0 .422.068c.11 0 .201-.006.272-.017l.171-.034.204.903c-.068.026-.163.051-.285.077s-.277.043-.465.043c-.284 0-.562-.061-.835-.183s-.494-.308-.673-.558-.264-.565-.264-.946v-6.511zm6.505 8.25c-.591 0-1.11-.141-1.556-.422s-.79-.675-1.04-1.18-.37-1.097-.37-1.773c0-.682.123-1.277.37-1.785s.597-.904 1.04-1.185.965-.422 1.556-.422 1.108.141 1.551.422.792.676 1.04 1.185.375 1.104.375 1.785c0 .676-.125 1.267-.375 1.773s-.594.899-1.04 1.18-.96.422-1.551.422zm0-.903c.448 0 .818-.115 1.108-.345s.504-.533.643-.908a3.48 3.48 0 0 0 .209-1.219c0-.437-.07-.845-.209-1.223s-.354-.683-.643-.916-.66-.349-1.108-.349-.819.117-1.108.349-.505.538-.644.916-.209.785-.209 1.223a3.48 3.48 0 0 0 .209 1.219c.139.375.354.678.644.908s.659.345 1.108.345zm8.881-3.17V41h-1.005v-8.727h1.005v3.205h.086c.153-.338.383-.607.69-.805s.722-.303 1.236-.303c.446 0 .836.089 1.172.268s.595.447.779.814.282.827.282 1.389V41h-1.006v-4.091c0-.52-.135-.922-.405-1.206s-.638-.43-1.112-.43c-.33 0-.625.07-.886.209s-.463.342-.614.609-.222.591-.222.972zm8.829 4.074c-.631 0-1.175-.139-1.632-.418a2.8 2.8 0 0 1-1.053-1.176c-.244-.506-.366-1.094-.366-1.764s.122-1.261.366-1.773.591-.915 1.031-1.202.961-.435 1.552-.435a3.11 3.11 0 0 1 1.01.17c.332.114.634.298.907.554s.49.588.652 1.006.243.932.243 1.543v.426h-5.045v-.869h4.022c0-.369-.074-.699-.221-.989s-.353-.518-.622-.686-.583-.251-.946-.251c-.401 0-.748.099-1.04.298a1.96 1.96 0 0 0-.669.767c-.156.315-.235.653-.235 1.014v.58c0 .494.086.913.256 1.257a1.84 1.84 0 0 0 .72.78c.307.176.664.264 1.07.264a2.18 2.18 0 0 0 .716-.111 1.53 1.53 0 0 0 .558-.341 1.55 1.55 0 0 0 .362-.571l.972.273c-.102.33-.274.619-.516.869a2.51 2.51 0 0 1-.895.58c-.355.136-.754.205-1.197.205zm5.246-8.864V41h-1.006v-8.727h1.006zm1.842 11.182v-9h.971v1.04h.119l.307-.435c.134-.179.324-.338.571-.477s.588-.213 1.015-.213c.551 0 1.036.138 1.457.413s.748.666.984 1.172.354 1.102.354 1.79c0 .693-.118 1.294-.354 1.803s-.562.898-.98 1.176a2.56 2.56 0 0 1-1.444.413c-.421 0-.758-.07-1.01-.209s-.448-.303-.584-.482l-.316-.452h-.085v3.46h-1.005zm.988-5.727c0 .494.073.93.218 1.308a1.97 1.97 0 0 0 .634.882c.279.21.62.315 1.023.315.421 0 .771-.111 1.053-.332s.497-.526.639-.903.217-.804.217-1.27c0-.46-.071-.875-.213-1.244s-.351-.666-.635-.882-.635-.328-1.061-.328c-.409 0-.753.104-1.031.311a1.87 1.87 0 0 0-.631.861c-.142.367-.213.794-.213 1.283z" fill="#0a0d14"/><path d="M197 48.5h-1.207l.853.854 3.293 3.293a1.5 1.5 0 0 0 2.122 0l3.293-3.293.853-.854H205h-8z" stroke="#cdd0d5" class="B"/><rect x="209" y="49" width="15" height="1" rx=".5" transform="rotate(180 209 49)" class="B"/></g><g filter="url(#C)"><path d="M48 77a4 4 0 0 1 4-4h80a4 4 0 0 1 4 4v16a4 4 0 0 1-4 4H52a4 4 0 0 1-4-4V77z" fill="#0e0f13"/><path d="M48.5 77a3.5 3.5 0 0 1 3.5-3.5h80a3.5 3.5 0 0 1 3.5 3.5v16a3.5 3.5 0 0 1-3.5 3.5H52a3.5 3.5 0 0 1-3.5-3.5V77z" stroke="#161616"/><path d="M56.921 89v-6.546h1.006V89h-1.006zm.511-7.636c-.196 0-.365-.067-.507-.2s-.209-.294-.209-.482.07-.348.209-.481.311-.2.507-.2a.7.7 0 0 1 .503.2c.142.133.213.294.213.481s-.071.348-.213.482a.7.7 0 0 1-.503.2zm3.342 3.699V89h-1.006v-6.546h.972v1.023h.085a1.87 1.87 0 0 1 .699-.801c.313-.205.716-.307 1.21-.307.443 0 .831.091 1.163.273s.591.452.776.818.277.824.277 1.381V89h-1.006v-4.091c0-.514-.134-.915-.401-1.202s-.633-.435-1.099-.435c-.321 0-.608.07-.861.209s-.447.342-.592.609-.217.591-.217.972zm10.65-1.142l-.903.256a1.68 1.68 0 0 0-.251-.439 1.22 1.22 0 0 0-.443-.358c-.187-.094-.428-.141-.72-.141-.401 0-.734.092-1.001.277s-.396.413-.396.695c0 .25.091.448.273.592s.466.266.852.362l.972.239c.585.142 1.021.359 1.308.652s.43.663.43 1.121a1.66 1.66 0 0 1-.324 1.006c-.213.296-.511.528-.895.699s-.83.256-1.338.256c-.668 0-1.22-.145-1.658-.435s-.715-.713-.831-1.27l.954-.239c.091.352.263.617.516.793s.59.264 1.001.264c.469 0 .841-.099 1.116-.298s.418-.443.418-.724a.76.76 0 0 0-.239-.571c-.159-.156-.403-.273-.733-.349l-1.091-.256c-.6-.142-1.04-.362-1.321-.66s-.418-.678-.418-1.129a1.62 1.62 0 0 1 .311-.98c.21-.284.496-.507.857-.669s.776-.243 1.236-.243c.648 0 1.156.142 1.526.426s.636.659.793 1.125zm4.377 5.216c-.631 0-1.175-.139-1.632-.418s-.805-.673-1.053-1.176-.366-1.094-.366-1.764.122-1.261.366-1.773a2.89 2.89 0 0 1 1.031-1.202c.443-.29.96-.435 1.551-.435a3.1 3.1 0 0 1 1.01.171 2.5 2.5 0 0 1 .908.554c.273.253.49.588.652 1.006s.243.932.243 1.543v.426h-5.045v-.869h4.023c0-.369-.074-.699-.222-.989a1.67 1.67 0 0 0-.622-.686c-.267-.168-.582-.251-.946-.251-.401 0-.747.1-1.04.298s-.513.452-.669.767-.234.653-.234 1.014v.579c0 .494.085.913.256 1.257s.413.601.72.78a2.11 2.11 0 0 0 1.07.264c.264 0 .503-.037.716-.111a1.53 1.53 0 0 0 .558-.341 1.55 1.55 0 0 0 .362-.571l.972.273c-.102.329-.274.619-.516.869s-.54.44-.895.579-.754.205-1.197.205zm4.24-.136v-6.546h.972v.989h.068c.119-.324.335-.587.648-.788s.665-.302 1.057-.302l.277.004.251.013v1.023a2.98 2.98 0 0 0-.234-.038c-.119-.02-.246-.03-.379-.03a1.78 1.78 0 0 0-.852.2 1.51 1.51 0 0 0-.588.545 1.47 1.47 0 0 0-.213.788V89h-1.006zm7.722-6.546v.852h-3.392v-.852h3.392zm-2.403-1.568h1.006v6.239c0 .284.041.497.124.639a.64.64 0 0 0 .324.281 1.3 1.3 0 0 0 .422.068 1.78 1.78 0 0 0 .273-.017l.17-.034.205.903c-.068.026-.163.051-.286.077a2.1 2.1 0 0 1-.464.043c-.284 0-.562-.061-.835-.183a1.66 1.66 0 0 1-.673-.558c-.176-.25-.264-.565-.264-.946v-6.511zm10.138 1.568v.852h-3.392v-.852h3.392zm-2.403-1.568H94.1v6.239c0 .284.041.497.124.639a.64.64 0 0 0 .324.281 1.3 1.3 0 0 0 .422.068 1.78 1.78 0 0 0 .273-.017l.171-.034.204.903a2.04 2.04 0 0 1-.285.077c-.122.028-.277.043-.465.043-.284 0-.562-.061-.835-.183a1.66 1.66 0 0 1-.673-.558c-.176-.25-.264-.565-.264-.946v-6.511zm6.505 8.25c-.591 0-1.109-.141-1.555-.422s-.79-.675-1.04-1.18-.371-1.097-.371-1.773c0-.682.123-1.277.371-1.785a2.86 2.86 0 0 1 1.04-1.185c.446-.281.965-.422 1.555-.422s1.108.141 1.551.422a2.82 2.82 0 0 1 1.04 1.185c.25.508.375 1.104.375 1.785 0 .676-.125 1.267-.375 1.773s-.594.899-1.04 1.18-.96.422-1.551.422zm0-.903c.449 0 .818-.115 1.108-.345a2.03 2.03 0 0 0 .643-.908c.14-.375.209-.781.209-1.219s-.069-.845-.209-1.223-.353-.683-.643-.916-.659-.35-1.108-.35-.818.117-1.108.35a2.06 2.06 0 0 0-.643.916 3.51 3.51 0 0 0-.209 1.223c0 .438.07.844.209 1.219s.354.678.643.908.659.345 1.108.345zm7.16.903c-.591 0-1.109-.141-1.555-.422s-.79-.675-1.04-1.18-.371-1.097-.371-1.773c0-.682.124-1.277.371-1.785s.597-.903 1.04-1.185.964-.422 1.555-.422 1.108.141 1.551.422a2.82 2.82 0 0 1 1.04 1.185c.25.508.375 1.104.375 1.785 0 .676-.125 1.267-.375 1.773s-.594.899-1.04 1.18-.96.422-1.551.422zm0-.903c.449 0 .818-.115 1.108-.345a2.04 2.04 0 0 0 .644-.908 3.48 3.48 0 0 0 .208-1.219c0-.437-.069-.845-.208-1.223s-.354-.683-.644-.916-.659-.35-1.108-.35-.818.117-1.108.35-.504.538-.643.916-.209.785-.209 1.223a3.48 3.48 0 0 0 .209 1.219c.139.375.354.678.643.908s.659.345 1.108.345zm5.507-7.96V89h-1.006v-8.727h1.006zm4.689 2.182v.852h-3.393v-.852h3.393zm-2.404-1.568h1.006v6.239c0 .284.041.497.123.639s.194.233.324.281.274.068.422.068a1.78 1.78 0 0 0 .273-.017l.17-.034.205.903c-.068.026-.163.051-.286.077a2.1 2.1 0 0 1-.464.043 2.02 2.02 0 0 1-.835-.183 1.66 1.66 0 0 1-.674-.558c-.176-.25-.264-.565-.264-.946v-6.511zM118.467 89v-6.546h1.006V89h-1.006zm.512-7.636c-.196 0-.365-.067-.507-.2a.64.64 0 0 1-.209-.482.64.64 0 0 1 .209-.481c.142-.133.311-.2.507-.2a.7.7 0 0 1 .503.2c.142.133.213.294.213.481s-.071.348-.213.482a.7.7 0 0 1-.503.2zm2.336 10.091v-9h.972v1.04h.119l.307-.435c.133-.179.324-.338.571-.477s.588-.213 1.014-.213c.551 0 1.037.138 1.457.413s.749.666.985 1.172.353 1.102.353 1.79c0 .693-.118 1.294-.353 1.803s-.563.898-.98 1.176-.9.413-1.445.413c-.42 0-.757-.07-1.01-.209s-.447-.303-.584-.482l-.315-.452h-.085v3.46h-1.006zm.989-5.727c0 .494.072.93.217 1.308s.356.669.635.882.619.315 1.023.315c.42 0 .771-.111 1.052-.332s.497-.526.639-.903.218-.804.218-1.27c0-.46-.071-.875-.213-1.244s-.351-.666-.635-.882-.635-.328-1.061-.328c-.409 0-.753.104-1.032.311s-.488.492-.63.861-.213.794-.213 1.283z" class="B"/></g><g filter="url(#D)"><path d="M230 113a4 4 0 0 1 4-4h80a4 4 0 0 1 4 4v16a4 4 0 0 1-4 4h-80a4 4 0 0 1-4-4v-16z" fill="#0e0f13"/><path d="M230.5 113a3.5 3.5 0 0 1 3.5-3.5h80a3.5 3.5 0 0 1 3.5 3.5v16a3.5 3.5 0 0 1-3.5 3.5h-80a3.5 3.5 0 0 1-3.5-3.5v-16z" stroke="#161616"/><path d="M238.92 125v-6.545h1.006V125h-1.006zm.512-7.636c-.196 0-.365-.067-.507-.201s-.209-.294-.209-.481.07-.348.209-.482.311-.2.507-.2.363.067.503.2a.64.64 0 0 1 .213.482c0 .187-.071.348-.213.481a.7.7 0 0 1-.503.201zm3.342 3.698V125h-1.006v-6.545h.972v1.022h.085c.153-.332.386-.599.699-.801s.716-.307 1.21-.307c.443 0 .831.091 1.163.273s.591.452.776.818.277.824.277 1.381V125h-1.006v-4.091c0-.514-.133-.915-.4-1.202s-.634-.434-1.1-.434c-.321 0-.608.069-.861.209s-.447.342-.592.609-.217.591-.217.971zm10.65-1.142l-.903.256a1.69 1.69 0 0 0-.252-.439c-.108-.145-.256-.264-.443-.358s-.428-.14-.72-.14c-.401 0-.735.092-1.002.277s-.396.413-.396.694c0 .25.091.448.273.593s.466.265.852.362l.972.238c.585.142 1.021.36 1.308.652s.43.664.43 1.121c0 .375-.108.71-.324 1.006s-.511.528-.894.699-.83.255-1.338.255c-.668 0-1.221-.145-1.658-.434s-.715-.713-.831-1.27l.954-.239c.091.352.263.617.516.793s.59.264 1.001.264c.469 0 .841-.099 1.117-.298s.418-.443.418-.725c0-.227-.08-.417-.239-.571s-.403-.272-.733-.349l-1.091-.256c-.599-.142-1.04-.362-1.321-.66s-.418-.678-.418-1.13a1.62 1.62 0 0 1 .311-.98c.211-.284.496-.507.857-.669s.776-.243 1.236-.243c.648 0 1.156.142 1.525.426a2.3 2.3 0 0 1 .793 1.125zm4.377 5.216c-.63 0-1.174-.139-1.632-.417s-.805-.674-1.052-1.176-.367-1.094-.367-1.765.123-1.261.367-1.772.591-.915 1.031-1.202.96-.435 1.551-.435a3.09 3.09 0 0 1 1.01.171c.333.113.635.298.908.554s.49.588.652 1.005.243.932.243 1.543v.426h-5.046v-.869h4.023c0-.369-.074-.699-.222-.989s-.352-.518-.622-.686-.582-.251-.946-.251c-.4 0-.747.099-1.04.298s-.512.452-.669.767-.234.653-.234 1.014v.58c0 .494.085.913.256 1.257a1.84 1.84 0 0 0 .72.78 2.11 2.11 0 0 0 1.069.264 2.17 2.17 0 0 0 .716-.111 1.54 1.54 0 0 0 .559-.341c.156-.153.277-.344.362-.571l.971.273c-.102.329-.274.619-.515.869a2.52 2.52 0 0 1-.895.58c-.355.136-.754.204-1.198.204zm4.241-.136v-6.545h.971v.988h.068c.12-.324.336-.586.648-.788s.665-.303 1.057-.303l.277.005.251.012v1.023a3.31 3.31 0 0 0-.234-.038 2.29 2.29 0 0 0-.379-.03c-.319 0-.603.067-.853.2s-.443.313-.588.546-.213.492-.213.788V125h-1.005zm7.721-6.545v.852h-3.392v-.852h3.392zm-2.403-1.569h1.005v6.239c0 .284.042.497.124.639s.193.233.324.281.274.069.422.069a1.82 1.82 0 0 0 .272-.017l.171-.035.204.904c-.068.025-.163.051-.285.077s-.277.042-.465.042c-.284 0-.562-.061-.835-.183s-.494-.308-.673-.558-.264-.566-.264-.946v-6.512zm10.138 1.569v.852h-3.393v-.852h3.393zm-2.404-1.569h1.006v6.239c0 .284.041.497.123.639s.194.233.324.281a1.29 1.29 0 0 0 .422.069c.111 0 .202-.006.273-.017l.17-.035.205.904a2.2 2.2 0 0 1-.286.077 2.13 2.13 0 0 1-.464.042c-.284 0-.563-.061-.835-.183a1.66 1.66 0 0 1-.674-.558c-.176-.25-.264-.566-.264-.946v-6.512zm6.505 8.25c-.591 0-1.109-.14-1.555-.422s-.79-.674-1.04-1.18-.371-1.097-.371-1.773.124-1.277.371-1.785.596-.904 1.04-1.185.964-.422 1.555-.422 1.108.141 1.551.422.793.676 1.04 1.185.375 1.104.375 1.785-.125 1.267-.375 1.773-.594.899-1.04 1.18-.96.422-1.551.422zm0-.903c.449 0 .818-.115 1.108-.345a2.03 2.03 0 0 0 .643-.908c.14-.375.209-.781.209-1.219s-.069-.845-.209-1.223a2.06 2.06 0 0 0-.643-.916c-.29-.233-.659-.349-1.108-.349s-.818.116-1.108.349a2.06 2.06 0 0 0-.643.916c-.14.378-.209.786-.209 1.223s.069.844.209 1.219a2.03 2.03 0 0 0 .643.908c.29.23.659.345 1.108.345zm7.16.903c-.591 0-1.109-.14-1.555-.422s-.79-.674-1.04-1.18-.371-1.097-.371-1.773.124-1.277.371-1.785.597-.904 1.04-1.185.964-.422 1.555-.422 1.108.141 1.551.422.793.676 1.04 1.185.375 1.104.375 1.785-.125 1.267-.375 1.773-.594.899-1.04 1.18-.96.422-1.551.422zm0-.903c.449 0 .818-.115 1.108-.345a2.04 2.04 0 0 0 .644-.908 3.48 3.48 0 0 0 .208-1.219c0-.437-.069-.845-.208-1.223a2.07 2.07 0 0 0-.644-.916c-.29-.233-.659-.349-1.108-.349s-.818.116-1.108.349a2.07 2.07 0 0 0-.643.916c-.139.378-.209.786-.209 1.223a3.48 3.48 0 0 0 .209 1.219c.139.375.354.678.643.908s.659.345 1.108.345zm5.507-7.96V125h-1.006v-8.727h1.006zm4.689 2.182v.852h-3.393v-.852h3.393zm-2.404-1.569h1.006v6.239c0 .284.041.497.123.639s.194.233.324.281a1.29 1.29 0 0 0 .422.069c.111 0 .202-.006.273-.017l.17-.035.205.904c-.068.025-.163.051-.286.077a2.13 2.13 0 0 1-.464.042c-.284 0-.563-.061-.835-.183a1.66 1.66 0 0 1-.674-.558c-.176-.25-.264-.566-.264-.946v-6.512zm3.916 8.114v-6.545h1.006V125h-1.006zm.512-7.636c-.196 0-.365-.067-.507-.201a.64.64 0 0 1-.209-.481.64.64 0 0 1 .209-.482c.142-.133.311-.2.507-.2s.363.067.503.2a.64.64 0 0 1 .213.482c0 .187-.071.348-.213.481a.7.7 0 0 1-.503.201zm2.336 10.091v-9h.972v1.039h.119l.307-.434c.133-.179.324-.338.571-.478s.588-.213 1.014-.213c.551 0 1.037.138 1.457.414s.749.666.985 1.172.353 1.102.353 1.789c0 .694-.118 1.294-.353 1.803s-.563.898-.98 1.176-.9.413-1.445.413c-.42 0-.757-.069-1.01-.208s-.447-.303-.584-.482l-.315-.452h-.085v3.461h-1.006zm.989-5.728c0 .495.072.931.217 1.309s.356.669.635.882.619.315 1.023.315c.42 0 .771-.111 1.052-.332s.497-.526.639-.904.218-.804.218-1.27c0-.46-.071-.875-.213-1.244a1.93 1.93 0 0 0-.635-.882c-.282-.219-.635-.328-1.061-.328-.409 0-.753.103-1.032.311s-.488.491-.63.861-.213.794-.213 1.282z" class="B"/></g></g><defs><filter id="A" x="146.15" y="49.835" width="66.3" height="65.67" filterUnits="userSpaceOnUse" class="C"><feFlood class="D"/><feBlend in="SourceGraphic" result="B"/><feColorMatrix in="SourceAlpha" values="0 0 0 0 0 0 0 0 0 0 0 0 0 0 0 0 0 0 127 0" result="C"/><feOffset dy="4"/><feGaussianBlur stdDeviation="2"/><feComposite in2="C" operator="arithmetic" k2="-1" k3="1"/><feColorMatrix values="0 0 0 0 1 0 0 0 0 1 0 0 0 0 1 0 0 0 0.15 0"/><feBlend in2="B" result="D"/><feColorMatrix in="SourceAlpha" values="0 0 0 0 0 0 0 0 0 0 0 0 0 0 0 0 0 0 127 0" result="C"/><feOffset dy="-2"/><feGaussianBlur stdDeviation="2"/><feComposite in2="C" operator="arithmetic" k2="-1" k3="1"/><feColorMatrix values="0 0 0 0 0 0 0 0 0 0 0 0 0 0 0 0 0 0 0.15 0"/><feBlend in2="D"/></filter><filter id="B" x="183" y="21" width="131" height="39.586" filterUnits="userSpaceOnUse" class="C"><feFlood result="A" class="D"/><feColorMatrix in="SourceAlpha" values="0 0 0 0 0 0 0 0 0 0 0 0 0 0 0 0 0 0 127 0" result="B"/><feOffset dy="2"/><feGaussianBlur stdDeviation="2.5"/><feComposite in2="B" operator="out"/><feColorMatrix values="0 0 0 0 0.156863 0 0 0 0 0.180392 0 0 0 0 0.2 0 0 0 0.08 0"/><feBlend in2="A"/><feBlend in="SourceGraphic"/></filter><filter id="C" x="35" y="65" width="114" height="50" filterUnits="userSpaceOnUse" class="C"><feFlood result="A" class="D"/><feColorMatrix in="SourceAlpha" values="0 0 0 0 0 0 0 0 0 0 0 0 0 0 0 0 0 0 127 0" result="B"/><feMorphology radius="2" operator="dilate" in="SourceAlpha" result="C"/><feOffset dy="5"/><feGaussianBlur stdDeviation="5.5"/><feComposite in2="B" operator="out"/><feColorMatrix values="0 0 0 0 0 0 0 0 0 0 0 0 0 0 0 0 0 0 0.2 0"/><feBlend in2="A" result="C"/><feColorMatrix in="SourceAlpha" values="0 0 0 0 0 0 0 0 0 0 0 0 0 0 0 0 0 0 127 0" result="B"/><feMorphology radius="1" operator="dilate" in="SourceAlpha"/><feOffset/><feComposite in2="B" operator="out"/><feColorMatrix values="0 0 0 0 0.0901961 0 0 0 0 0.0941176 0 0 0 0 0.133333 0 0 0 1 0"/><feBlend in2="C"/><feBlend in="SourceGraphic" result="E"/><feColorMatrix in="SourceAlpha" values="0 0 0 0 0 0 0 0 0 0 0 0 0 0 0 0 0 0 127 0" result="B"/><feMorphology radius="2" operator="dilate" in="SourceAlpha"/><feOffset dy="4"/><feGaussianBlur stdDeviation="5"/><feComposite in2="B" operator="arithmetic" k2="-1" k3="1"/><feColorMatrix values="0 0 0 0 1 0 0 0 0 1 0 0 0 0 1 0 0 0 0.26 0"/><feBlend in2="E"/></filter><filter id="D" x="217" y="101" width="114" height="50" filterUnits="userSpaceOnUse" class="C"><feFlood result="A" class="D"/><feColorMatrix in="SourceAlpha" values="0 0 0 0 0 0 0 0 0 0 0 0 0 0 0 0 0 0 127 0" result="B"/><feMorphology radius="2" operator="dilate" in="SourceAlpha" result="C"/><feOffset dy="5"/><feGaussianBlur stdDeviation="5.5"/><feComposite in2="B" operator="out"/><feColorMatrix values="0 0 0 0 0 0 0 0 0 0 0 0 0 0 0 0 0 0 0.2 0"/><feBlend in2="A" result="C"/><feColorMatrix in="SourceAlpha" values="0 0 0 0 0 0 0 0 0 0 0 0 0 0 0 0 0 0 127 0" result="B"/><feMorphology radius="1" operator="dilate" in="SourceAlpha"/><feOffset/><feComposite in2="B" operator="out"/><feColorMatrix values="0 0 0 0 0.0901961 0 0 0 0 0.0941176 0 0 0 0 0.133333 0 0 0 1 0"/><feBlend in2="C"/><feBlend in="SourceGraphic" result="E"/><feColorMatrix in="SourceAlpha" values="0 0 0 0 0 0 0 0 0 0 0 0 0 0 0 0 0 0 127 0" result="B"/><feMorphology radius="2" operator="dilate" in="SourceAlpha"/><feOffset dy="4"/><feGaussianBlur stdDeviation="5"/><feComposite in2="B" operator="arithmetic" k2="-1" k3="1"/><feColorMatrix values="0 0 0 0 1 0 0 0 0 1 0 0 0 0 1 0 0 0 0.26 0"/><feBlend in2="E"/></filter><clipPath id="E"><rect x=".74" width="357.333" height="164" rx="16" class="B"/></clipPath><path id="F" d="M24.517 16.397h-1.419v2.417h1.419v-2.417z"/><path id="G" d="M27.355 21.23h-1.419v2.417h1.419V21.23z"/><path id="H" d="M114.808 16.397h-1.42v2.417h1.42v-2.417z"/><path id="I" d="M206.519 18.813H205.1v2.417h1.419v-2.417z"/><path id="J" d="M207.938 21.23h-1.42v2.417h1.42V21.23z"/><path id="K" d="M27.355 51.48h-1.419v2.417h1.419V51.48z"/><path id="L" d="M207.938 51.48h-1.42v2.417h1.42V51.48z"/><path id="M" d="M27.355 81.73h-1.419v2.417h1.419V81.73z"/><path id="N" d="M207.938 81.73h-1.42v2.417h1.42V81.73z"/><path id="O" d="M27.355 111.98h-1.419v2.416h1.419v-2.416z"/><path id="P" d="M207.938 111.98h-1.42v2.416h1.42v-2.416z"/></defs></svg>