<svg width="118" height="40" viewBox="0 0 118 40" fill="none" xmlns="http://www.w3.org/2000/svg">
<g id="Pyth Logotype_Dark 1" clipPath="url(#clip0_188_209)">
<path id="Vector" d="M45.1382 23.3715V20.665H51.5496C52.5299 20.665 53.2949 20.3864 53.8439 19.8292C54.3924 19.272 54.6671 18.5374 54.6671 17.6293C54.6671 16.721 54.3924 15.972 53.8439 15.4293C53.2949 14.8865 52.5299 14.6152 51.5496 14.6152H43.0967V27.8203H40.3296V11.8164H51.5496C52.4721 11.8164 53.295 11.9521 54.0207 12.2234C54.7446 12.4948 55.3564 12.8766 55.8546 13.3687C56.3528 13.8608 56.7335 14.4578 56.9971 15.1615C57.2607 15.8653 57.3924 16.6577 57.3924 17.5388C57.3924 18.4199 57.2607 19.1924 56.9971 19.9052C56.7335 20.6162 56.3528 21.2295 55.8546 21.7433C55.3564 22.2571 54.7464 22.6569 54.0207 22.9428C53.2971 23.2286 52.4721 23.3715 51.5496 23.3715H45.1382Z" fill="#3F3F3F"/>
<path id="Vector_2" d="M66.4733 27.8167V21.7415L57.999 11.8164H61.7533L67.968 19.1888L74.2026 11.8164H77.7601L69.2622 21.7415V27.8167H66.4733Z" fill="#3F3F3F"/>
<path id="Vector_3" d="M87.3753 27.8167V14.6115H80.0317V11.8164H97.5178V14.6115H90.1639V27.8167H87.3753Z" fill="#3F3F3F"/>
<path id="Vector_4" d="M114.964 11.8164H117.742V27.8167H114.964V11.8164Z" fill="#3F3F3F"/>
<path id="Vector_5" d="M102.977 27.8167V20.8912H113.312V18.4144H102.977V11.8164H100.199V27.8167H102.977Z" fill="#3F3F3F"/>
<path id="Vector_6" d="M20.3751 15.9992C20.3751 18.2082 18.5881 19.9992 16.3841 19.9992V23.9993C20.792 23.9993 24.3659 20.4172 24.3659 15.9992C24.3659 11.5812 20.792 7.99902 16.3841 7.99902C14.9311 7.99902 13.5665 8.38802 12.3932 9.07006C10.007 10.4523 8.40234 13.0376 8.40234 15.9992V35.9996L11.9907 39.596L12.3932 39.9996V15.9992C12.3932 13.7902 14.1802 11.9991 16.3841 11.9991C18.5881 11.9991 20.3751 13.7902 20.3751 15.9992Z" fill="#3F3F3F"/>
<path id="Vector_7" d="M16.3835 0C13.4756 0 10.7501 0.77975 8.40171 2.14205C6.89814 3.01226 5.5516 4.12129 4.41082 5.41846C1.92711 8.23893 0.419922 11.9441 0.419922 16.0003V28.0005L4.41082 32.0005V16.0003C4.41082 12.4471 5.95232 9.25389 8.40171 7.05575C9.55332 6.02454 10.9053 5.21039 12.3926 4.68575C13.6399 4.24068 14.9846 4.00007 16.3835 4.00007C22.9953 4.00007 28.3562 9.37329 28.3562 16.0003C28.3562 22.6272 22.9953 28.0005 16.3835 28.0005V32.0005C25.201 32.0005 32.3471 24.8362 32.3471 16.0003C32.3471 7.16429 25.201 0 16.3835 0Z" fill="#3F3F3F"/>
</g>
<defs>
<clipPath id="clip0_188_209">
<rect width="117.321" height="40" fill="white" transform="translate(0.42041)"/>
</clipPath>
</defs>
</svg>
