<svg width="430" height="320" viewBox="0 0 430 320" fill="none" xmlns="http://www.w3.org/2000/svg">
<path d="M429.461 281.211H0V281.426H429.461V281.211Z" fill="#555555"/>
<path d="M369.089 287.061H285.258V287.275H369.089V287.061Z" fill="#555555"/>
<path d="M288.312 292.027H248.227V292.242H288.312V292.027Z" fill="#555555"/>
<path d="M386.43 295.031H369.947V295.246H386.43V295.031Z" fill="#555555"/>
<path d="M188.105 292.127H108.629V292.342H188.105V292.127Z" fill="#555555"/>
<path d="M100.985 292.127H83.8926V292.342H100.985V292.127Z" fill="#555555"/>
<path d="M77.8609 288.502H49.6367V288.717H77.8609V288.502Z" fill="#555555"/>
<path d="M203.563 242.903H37.7142C36.415 242.901 35.1697 242.383 34.2518 241.464C33.3339 240.544 32.8184 239.298 32.8184 237.999V4.8615C32.8297 3.5697 33.3502 2.33453 34.2669 1.42428C35.1836 0.514029 36.4224 0.00221292 37.7142 0H203.563C204.864 0 206.112 0.516717 207.031 1.43648C207.951 2.35624 208.468 3.6037 208.468 4.90444V237.999C208.468 239.299 207.951 240.547 207.031 241.467C206.112 242.386 204.864 242.903 203.563 242.903ZM37.7142 0.171785C36.4719 0.17406 35.2813 0.669156 34.4036 1.5484C33.526 2.42765 33.0331 3.6192 33.0331 4.8615V237.999C33.0331 239.241 33.526 240.433 34.4036 241.312C35.2813 242.191 36.4719 242.686 37.7142 242.688H203.563C204.807 242.686 205.998 242.191 206.877 241.312C207.756 240.433 208.251 239.242 208.253 237.999V4.8615C208.251 3.61841 207.756 2.42688 206.877 1.54788C205.998 0.668877 204.807 0.174056 203.563 0.171785H37.7142Z" fill="#363636"/>
<path d="M389.358 242.903H223.5C222.2 242.901 220.954 242.383 220.035 241.464C219.115 240.545 218.598 239.299 218.596 237.999V4.8615C218.609 3.56892 219.132 2.33376 220.05 1.42374C220.968 0.513729 222.207 0.00218878 223.5 0H389.358C390.648 0.00447026 391.885 0.517285 392.8 1.42729C393.715 2.3373 394.234 3.57118 394.245 4.8615V237.999C394.245 239.296 393.731 240.541 392.815 241.461C391.899 242.38 390.656 242.899 389.358 242.903ZM223.5 0.171785C222.257 0.174056 221.066 0.668877 220.187 1.54788C219.308 2.42688 218.813 3.61841 218.81 4.8615V237.999C218.813 239.242 219.308 240.433 220.187 241.312C221.066 242.191 222.257 242.686 223.5 242.688H389.358C390.601 242.686 391.793 242.191 392.672 241.312C393.551 240.433 394.045 239.242 394.048 237.999V4.8615C394.045 3.61841 393.551 2.42688 392.672 1.54788C391.793 0.668877 390.601 0.174056 389.358 0.171785H223.5Z" fill="#363636"/>
<path d="M80.4473 176.697H68.6113V281.211H80.4473V176.697Z" fill="#555555"/>
<path d="M80.4374 281.211H194.348V176.697H80.4374L80.4374 281.211Z" fill="#282828"/>
<path d="M84.6385 277.156H190.148V180.751H84.6385L84.6385 277.156Z" fill="#555555"/>
<path d="M86.3554 193.213H188.43V182.648H86.3554V193.213Z" fill="#282828"/>
<path d="M86.3554 223.328H188.43V194.503H86.3554V223.328Z" fill="#282828"/>
<path d="M86.3554 275.482H188.43V224.617H86.3554V275.482Z" fill="#282828"/>
<path d="M167.086 228.694H107.709C107.481 228.694 107.262 228.604 107.101 228.443C106.94 228.282 106.85 228.063 106.85 227.835C106.85 227.608 106.94 227.389 107.101 227.228C107.262 227.067 107.481 226.977 107.709 226.977H167.086C167.314 226.977 167.532 227.067 167.693 227.228C167.854 227.389 167.945 227.608 167.945 227.835C167.945 228.063 167.854 228.282 167.693 228.443C167.532 228.604 167.314 228.694 167.086 228.694Z" fill="#272727"/>
<path d="M167.086 198.661H107.709C107.481 198.661 107.262 198.571 107.101 198.41C106.94 198.249 106.85 198.03 106.85 197.802C106.85 197.574 106.94 197.356 107.101 197.195C107.262 197.034 107.481 196.943 107.709 196.943H167.086C167.314 196.943 167.532 197.034 167.693 197.195C167.854 197.356 167.945 197.574 167.945 197.802C167.945 198.03 167.854 198.249 167.693 198.41C167.532 198.571 167.314 198.661 167.086 198.661Z" fill="#272727"/>
<path d="M167.086 186.806H107.709C107.481 186.806 107.262 186.715 107.101 186.554C106.94 186.393 106.85 186.175 106.85 185.947C106.85 185.719 106.94 185.501 107.101 185.339C107.262 185.178 107.481 185.088 107.709 185.088H167.086C167.314 185.088 167.532 185.178 167.693 185.339C167.854 185.501 167.945 185.719 167.945 185.947C167.945 186.175 167.854 186.393 167.693 186.554C167.532 186.715 167.314 186.806 167.086 186.806Z" fill="#272727"/>
<path d="M62.6149 148.885L206.398 148.885V102.494L62.6149 102.494V148.885Z" fill="#636363"/>
<path d="M202.334 144.813V106.539L66.6673 106.539V144.813H202.334Z" fill="#242424"/>
<path d="M202.334 144.813V106.539H182.845V144.813H202.334Z" fill="#3D3D3D"/>
<path d="M62.6055 148.877V102.486H52.5045V148.877H62.6055Z" fill="#242424"/>
<path d="M177.644 144.824H186.121V109.634H177.644V144.824Z" fill="#636363"/>
<path d="M177.643 109.633H154.984V144.823H177.643V109.633Z" fill="#3D3D3D"/>
<path d="M170.119 144.824H174.895V113.663H170.119V144.824Z" fill="#272727"/>
<path d="M170.117 113.652H157.354V144.814H170.117V113.652Z" fill="#555555"/>
<path d="M155.596 144.822H162.665L166.745 115.455H159.667L155.596 144.822Z" fill="#272727"/>
<path d="M155.595 144.822H136.682L140.762 115.455H159.666L155.595 144.822Z" fill="#555555"/>
<path d="M149.074 144.825V136.348H113.884V144.825H149.074Z" fill="#242424"/>
<path d="M113.885 144.825V136.348H100.889V144.825H113.885Z" fill="#3D3D3D"/>
<path d="M112.74 143.861V137.316H100.887V143.861H112.74Z" fill="#636363"/>
<path d="M146.91 136.345V129.74H111.72V136.345H146.91Z" fill="#636363"/>
<path d="M111.721 136.345V129.74H98.7252V136.345H111.721Z" fill="#242424"/>
<path d="M110.576 135.598V130.496H98.7231V135.598H110.576Z" fill="#636363"/>
<path d="M90.0591 144.824H96.9219V116.308H90.0591V144.824Z" fill="#636363"/>
<path d="M90.0485 116.305H71.6934V144.821H90.0485V116.305Z" fill="#3D3D3D"/>
<path d="M74.8644 144.824H81.4609V119.572H74.8644V144.824Z" fill="#272727"/>
<path d="M74.8726 119.57H66.6699V144.823H74.8726V119.57Z" fill="#555555"/>
<path d="M62.6149 90.4102L206.398 90.4102V44.0198L62.6149 44.0198V90.4102Z" fill="#636363"/>
<path d="M202.334 86.3576V48.084L66.6672 48.084V86.3576H202.334Z" fill="#242424"/>
<path d="M202.346 86.3576V48.084H182.857V86.3576H202.346Z" fill="#3D3D3D"/>
<path d="M62.6152 90.4197V44.0293H52.5143V90.4197H62.6152Z" fill="#242424"/>
<path d="M133.546 86.3633H140.924V63.9884H133.546V86.3633Z" fill="#636363"/>
<path d="M133.553 63.9824H122.602V86.3573H133.553V63.9824Z" fill="#3D3D3D"/>
<path d="M125.456 86.3633H129.613V59.2385H125.456V86.3633Z" fill="#272727"/>
<path d="M125.448 59.2305H114.342V86.3552H125.448V59.2305Z" fill="#555555"/>
<path d="M186.695 86.3584H192.854L196.401 60.7969H190.243L186.695 86.3584Z" fill="#636363"/>
<path d="M186.695 86.3584H170.238L173.786 60.7969H190.243L186.695 86.3584Z" fill="#3D3D3D"/>
<path d="M117.088 86.3552V78.4102H84.0967V86.3552H117.088Z" fill="#282828"/>
<path d="M84.0977 86.3552V78.4102H71.9181V86.3552H84.0977Z" fill="#3D3D3D"/>
<path d="M83.0312 85.455V79.3223H71.9168V85.455H83.0312Z" fill="#636363"/>
<path d="M112.502 72.2158V65.791H85.8324V72.2158H112.502Z" fill="#272727"/>
<path d="M85.8223 72.2158V65.791H75.9704V72.2158H85.8223Z" fill="#3D3D3D"/>
<path d="M84.9648 71.49V66.5254H75.9805V71.49H84.9648Z" fill="#282828"/>
<path d="M181.746 86.331V79.9062H155.077V86.331H181.746Z" fill="#272727"/>
<path d="M155.068 86.331V79.9062H145.217V86.331H155.068Z" fill="#3D3D3D"/>
<path d="M154.211 85.5993V80.6348H145.227V85.5993H154.211Z" fill="#282828"/>
<path d="M115.061 78.4116V72.2188H82.0694V78.4116H115.061Z" fill="#636363"/>
<path d="M82.0703 78.4116V72.2188H69.8908V78.4116H82.0703Z" fill="#242424"/>
<path d="M80.9961 77.7061V72.9219H69.8816V77.7061H80.9961Z" fill="#636363"/>
<path d="M263.293 54.207H364.105L368.425 281.212H267.622L263.293 54.207Z" fill="#282828"/>
<path d="M364.663 264.291L360.978 70.6295C360.913 67.1624 359.49 63.8594 357.014 61.4308C354.539 59.0022 351.21 57.642 347.742 57.6426H280.291C278.532 57.6423 276.79 57.9927 275.168 58.6734C273.545 59.3541 272.075 60.3514 270.843 61.607C269.61 62.8625 268.641 64.3512 267.99 65.9859C267.34 67.6207 267.022 69.3686 267.055 71.1277L270.74 264.789C270.805 268.256 272.228 271.559 274.704 273.987C277.179 276.416 280.508 277.776 283.976 277.776H351.436C353.195 277.776 354.936 277.426 356.558 276.745C358.18 276.064 359.649 275.067 360.881 273.811C362.113 272.555 363.082 271.066 363.731 269.432C364.38 267.797 364.697 266.049 364.663 264.291Z" fill="#1B1B1B"/>
<path d="M263.293 54.207H261.369L265.69 281.212H267.622L263.293 54.207Z" fill="#242424"/>
<path d="M317.141 57.6426H332.309L344.764 277.776H329.595L317.141 57.6426Z" fill="#272727"/>
<path d="M305.219 57.6426H312.803L325.257 277.776H317.673L305.219 57.6426Z" fill="#272727"/>
<path d="M214.732 319.999C306.707 319.999 381.268 315.646 381.268 310.276C381.268 304.906 306.707 300.553 214.732 300.553C122.756 300.553 48.1953 304.906 48.1953 310.276C48.1953 315.646 122.756 319.999 214.732 319.999Z" fill="#282828"/>
<path d="M156.592 224.388H230.622C228.046 218.77 223.347 215.326 218.28 215.326H160.732L156.592 224.388Z" fill="#3B62EC"/>
<path d="M144.121 224.388H173.771C171.194 218.77 166.496 215.326 161.419 215.326H150.923C145.856 215.326 143.339 218.255 144.121 224.388Z" fill="#3B62EC"/>
<path opacity="0.5" d="M144.121 224.388H173.771C171.194 218.77 166.496 215.326 161.419 215.326H150.923C145.856 215.326 143.339 218.255 144.121 224.388Z" fill="#263238"/>
<path d="M196.342 302.77H189.917V224.385H182.865V302.77H176.44L169.518 309.178H182.865H189.917H203.265L196.342 302.77Z" fill="#3B62EC"/>
<path opacity="0.7" d="M196.342 302.77H189.917V224.385H182.865V302.77H176.44L169.518 309.178H182.865H189.917H203.265L196.342 302.77Z" fill="white"/>
<path opacity="0.5" d="M189.919 224.385H182.867V227.013H189.919V224.385Z" fill="#3B62EC"/>
<path d="M235.956 300.582L243.661 298.632L241.831 280.148L234.127 282.098L235.956 300.582Z" fill="#B55B52"/>
<path d="M243.996 295.223L235.149 296.331C235.074 296.337 235.002 296.359 234.935 296.393C234.869 296.428 234.81 296.475 234.762 296.533C234.714 296.59 234.678 296.657 234.656 296.728C234.634 296.8 234.626 296.875 234.633 296.949L235.106 304.001C235.153 304.369 235.344 304.704 235.636 304.933C235.929 305.161 236.3 305.265 236.669 305.221C239.735 304.774 240.964 304.439 244.846 303.658C248.612 302.94 252.339 302.031 256.012 300.935C259.095 299.896 258.022 296.778 256.587 296.949C253.195 297.353 247.852 296.949 245.421 295.498C244.989 295.254 244.488 295.158 243.996 295.223Z" fill="#263238"/>
<path opacity="0.2" d="M234.127 282.104L241.84 280.154L242.716 289.053L234.977 290.736L234.127 282.104Z" fill="#161616"/>
<path d="M183.812 189.43C183.812 189.43 240.904 187.515 241.093 210.285C241.359 243.001 244.915 283.62 244.915 283.62L230.537 285.75C230.537 285.75 220.745 246.763 220.926 221.219C204.872 216.684 163.18 219.639 158.267 206.334C154.256 195.443 156.352 189.43 156.352 189.43H183.812Z" fill="#263238"/>
<path opacity="0.3" d="M207.217 196.445C207.217 196.445 205.499 209.467 211.435 219.507C214.64 219.839 217.816 220.413 220.934 221.225C220.93 223.707 221.062 226.187 221.329 228.655C230.881 214.405 223.064 198.24 207.217 196.445Z" fill="#161616"/>
<path d="M229.42 289.526L246.074 286.391L246.349 279.932L227.865 283.187L229.42 289.526Z" fill="#3B62EC"/>
<path d="M246.961 296.234C246.253 296.312 245.539 296.312 244.831 296.234C244.794 296.23 244.76 296.215 244.731 296.192C244.702 296.17 244.68 296.139 244.667 296.105C244.658 296.072 244.658 296.036 244.667 296.003C244.676 295.97 244.694 295.94 244.719 295.916C244.951 295.71 246.987 293.897 247.991 294.147C248.106 294.178 248.211 294.236 248.298 294.317C248.385 294.398 248.451 294.498 248.49 294.61C248.565 294.776 248.595 294.959 248.577 295.14C248.559 295.321 248.493 295.494 248.387 295.641C248 296.006 247.493 296.217 246.961 296.234ZM245.294 295.89C246.746 295.993 247.777 295.813 248.095 295.401C248.16 295.303 248.198 295.189 248.206 295.071C248.214 294.954 248.19 294.836 248.137 294.731C248.124 294.675 248.095 294.623 248.054 294.582C248.013 294.542 247.962 294.513 247.906 294.499C247.373 294.361 246.136 295.194 245.294 295.89Z" fill="#3B62EC"/>
<path d="M244.87 296.228H244.793C244.764 296.216 244.738 296.198 244.719 296.174C244.699 296.15 244.686 296.121 244.681 296.09C244.681 295.996 244.191 293.754 244.887 292.887C244.976 292.774 245.09 292.683 245.219 292.621C245.349 292.558 245.491 292.526 245.634 292.526C245.791 292.513 245.948 292.552 246.08 292.638C246.212 292.723 246.312 292.85 246.364 292.998C246.657 293.857 245.695 295.627 244.973 296.202L244.87 296.228ZM245.531 292.895C245.457 292.904 245.386 292.928 245.321 292.965C245.256 293.002 245.199 293.051 245.153 293.11C244.741 293.625 244.844 294.931 244.964 295.687C245.574 295.017 246.193 293.668 246.004 293.11C245.961 293.007 245.883 292.887 245.617 292.887L245.531 292.895Z" fill="#3B62EC"/>
<path d="M202.639 302.285L210.515 301.28L211.803 282.59L203.927 283.586L202.639 302.285Z" fill="#B55B52"/>
<path d="M210.695 300.195L201.779 299.911C201.629 299.902 201.481 299.951 201.367 300.049C201.253 300.147 201.182 300.286 201.169 300.435L200.516 307.478C200.505 307.849 200.64 308.21 200.892 308.481C201.145 308.753 201.494 308.914 201.865 308.93C204.966 308.973 206.451 308.836 210.377 308.93C212.79 309.007 217.532 309.359 220.838 308.93C224.145 308.501 223.639 305.254 222.204 305.134C218.768 304.859 214.225 302.505 212.043 300.676C211.659 300.371 211.185 300.202 210.695 300.195Z" fill="#263238"/>
<path d="M213.46 301.665C212.747 301.628 212.041 301.51 211.355 301.312C211.322 301.303 211.291 301.284 211.267 301.258C211.243 301.232 211.226 301.201 211.218 301.166C211.214 301.131 211.22 301.096 211.235 301.064C211.25 301.032 211.274 301.005 211.304 300.986C211.562 300.814 213.881 299.354 214.817 299.758C214.925 299.806 215.02 299.881 215.092 299.976C215.164 300.07 215.211 300.181 215.229 300.299C215.277 300.474 215.278 300.658 215.231 300.833C215.184 301.008 215.092 301.168 214.963 301.295C214.525 301.599 213.989 301.731 213.46 301.665ZM211.871 301.063C213.279 301.39 214.327 301.381 214.714 301.02C214.795 300.935 214.851 300.829 214.877 300.714C214.902 300.599 214.897 300.479 214.86 300.368C214.854 300.311 214.834 300.256 214.801 300.209C214.768 300.162 214.723 300.125 214.671 300.101C214.155 299.878 212.816 300.505 211.871 301.063Z" fill="#3B62EC"/>
<path d="M211.398 301.319C211.37 301.327 211.341 301.327 211.312 301.319C211.285 301.305 211.262 301.284 211.245 301.259C211.229 301.233 211.219 301.203 211.218 301.173C211.218 301.07 211.106 298.785 211.931 298.038C212.037 297.942 212.163 297.871 212.299 297.831C212.436 297.791 212.58 297.782 212.721 297.806C212.88 297.814 213.032 297.876 213.151 297.982C213.27 298.089 213.348 298.233 213.374 298.39C213.537 299.249 212.3 300.881 211.493 301.319C211.462 301.328 211.429 301.328 211.398 301.319ZM212.584 298.141C212.51 298.137 212.436 298.148 212.367 298.173C212.298 298.198 212.234 298.237 212.18 298.287C211.69 298.734 211.579 300.005 211.579 300.795C212.292 300.228 213.116 299 213.013 298.424C213.013 298.321 212.936 298.184 212.67 298.149L212.584 298.141Z" fill="#3B62EC"/>
<path opacity="0.2" d="M203.926 283.595L211.802 282.59L211.063 293.283L203.213 293.893L203.926 283.595Z" fill="#161616"/>
<path d="M164.391 189.43C164.391 189.43 221.398 194.824 219.362 211.985C216.364 236.731 214.887 290.07 214.887 290.07L200.354 290.645C200.354 290.645 194.196 242.545 197.382 217.19C182.635 217.19 146.517 218.247 143.219 209.357C140.315 201.506 141.355 189.43 141.355 189.43H164.391Z" fill="#263238"/>
<path d="M198.713 291.538L216.157 290.67L216.784 283.086L197.656 284.4L198.713 291.538Z" fill="#3B62EC"/>
<path d="M189.032 138.145L189.522 142.096C189.693 143.435 189.882 144.775 190.088 146.107C190.518 148.778 190.947 151.441 191.488 154.052C192.03 156.663 192.614 159.205 193.318 161.696C193.96 164.021 194.823 166.279 195.895 168.439C196.301 169.254 196.8 170.021 197.381 170.723C197.467 170.827 197.647 170.998 197.827 171.17C198.008 171.342 198.197 171.514 198.386 171.685C198.781 172.02 199.245 172.364 199.683 172.699C201.726 174.116 203.893 175.343 206.159 176.367C211.067 178.562 216.097 180.475 221.224 182.096L220.297 187.988C217.355 187.889 214.423 187.602 211.519 187.129C210.076 186.906 208.624 186.631 207.224 186.27C205.824 185.909 204.321 185.583 202.878 185.145C199.836 184.289 196.897 183.099 194.117 181.597C193.364 181.183 192.633 180.73 191.927 180.24C191.566 179.983 191.205 179.734 190.844 179.433C190.453 179.135 190.077 178.817 189.719 178.48C188.35 177.155 187.16 175.656 186.18 174.022C184.553 171.246 183.223 168.307 182.212 165.252C181.248 162.41 180.431 159.52 179.764 156.594C179.111 153.717 178.536 150.839 178.115 147.953C177.892 146.51 177.694 145.067 177.505 143.659C177.316 142.25 177.179 140.799 177.059 139.227L189.032 138.145Z" fill="#B55B52"/>
<path d="M176.992 132.406C182.824 126.78 190.005 130.104 192.873 140.651C194.498 146.306 195.607 152.096 196.189 157.95L177.731 161.764C174.364 151.697 171.031 138.178 176.992 132.406Z" fill="#3B62EC"/>
<path opacity="0.3" d="M182.951 143.924C181.628 142.739 177.883 148.055 175.59 154.643C176.243 157.1 176.981 159.522 177.729 161.772L188.834 159.471C187.941 152.891 185.897 146.595 182.951 143.924Z" fill="#161616"/>
<path d="M220.092 180.59L224.489 180.865L220.976 188.939C220.976 188.939 213.392 188.758 213.555 185.03L214.921 183.244C215.549 182.464 216.334 181.825 217.224 181.367C218.115 180.91 219.092 180.645 220.092 180.59Z" fill="#B55B52"/>
<path d="M229.282 181.52L225.486 188.941H220.977L224.49 180.867L229.282 181.52Z" fill="#B55B52"/>
<path d="M177.678 126.763L168.832 124.238L157.459 123.688C155.734 123.609 154.03 124.097 152.608 125.079C151.187 126.062 150.128 127.483 149.592 129.125C147.419 135.739 145.426 145.316 143.974 153.579C142.342 162.838 141.492 176.769 141.32 189.421H183.811C184.782 163.027 188.106 147.42 189.626 138.745C189.918 137.053 189.649 135.313 188.86 133.788C188.07 132.264 186.804 131.039 185.254 130.302L177.678 126.763Z" fill="#3B62EC"/>
<path opacity="0.3" d="M148.235 133.711C146.595 139.724 145.117 147.085 143.941 153.587C142.885 160.224 142.188 166.913 141.854 173.625C148.854 172.93 156.584 164.873 159.032 154.025C161.48 143.443 155.802 132.431 148.235 133.711Z" fill="#161616"/>
<path d="M172.361 109.865L175.796 115.113L180.478 122.268C179.872 122.879 179.383 123.595 179.035 124.381C178.176 126.099 177.471 127.396 181.087 129.861C181.478 130.109 181.788 130.465 181.98 130.886C182.173 131.306 182.238 131.774 182.17 132.232C181.963 133.348 180.847 134.43 176.939 133.743C173.179 133.02 169.748 131.116 167.147 128.306C165.841 127.009 166.142 126.03 167.396 124.682C170.926 120.868 172.009 114.778 172.361 109.865Z" fill="#B55B52"/>
<path opacity="0.2" d="M179.327 120.506L176.458 115.404L176.261 115.825C176.007 116.462 175.8 117.116 175.642 117.784C175.118 120.042 176.879 123.281 178.812 124.818L179.035 124.38C179.377 123.645 179.823 122.962 180.358 122.353C180.394 122.316 180.434 122.284 180.478 122.258L179.327 120.506Z" fill="#161616"/>
<path d="M178.013 140.712C177.957 140.706 177.905 140.681 177.865 140.642C177.825 140.603 177.8 140.551 177.793 140.495C177.786 140.44 177.798 140.383 177.827 140.335C177.856 140.287 177.9 140.251 177.953 140.231L178.563 140.085C181.672 139.407 188.956 137.818 188.294 109.868C188.294 109.804 188.319 109.742 188.364 109.695C188.409 109.649 188.47 109.621 188.535 109.619C188.6 109.619 188.662 109.644 188.708 109.689C188.755 109.734 188.782 109.795 188.784 109.86C189.454 138.204 181.913 139.862 178.666 140.566C178.451 140.566 178.254 140.652 178.082 140.704L178.013 140.712Z" fill="#263238"/>
<path d="M195.466 102.085C194.212 98.3404 189.711 100.831 189.711 100.831C189.711 100.831 189.651 108.673 192.065 110.683C194.478 112.693 196.694 105.865 195.466 102.085Z" fill="#263238"/>
<path d="M173.574 100.576C172.191 108.357 170.997 112.824 173.874 117.814C174.801 119.435 176.151 120.773 177.779 121.687C179.407 122.6 181.253 123.054 183.119 123C184.985 122.947 186.801 122.387 188.374 121.381C189.947 120.376 191.217 118.962 192.049 117.29C195.339 110.874 197.039 99.2529 190.331 94.0994C188.912 92.9631 187.219 92.2192 185.422 91.9419C183.625 91.6646 181.786 91.8636 180.09 92.5191C178.394 93.1746 176.9 94.2635 175.756 95.6773C174.613 97.091 173.86 98.78 173.574 100.576Z" fill="#B55B52"/>
<path d="M172.105 105.152C170.009 108.485 175.24 109.705 175.24 109.705C175.24 109.705 181.501 104.989 181.63 101.854C181.759 98.719 173.771 102.507 172.105 105.152Z" fill="#263238"/>
<path d="M170.068 106.407C169.037 105.548 167.904 102.275 168.771 99.398C169.639 96.5206 172.404 93.3856 174.895 94.4077C175.823 91.7536 188.569 88.4897 192.83 94.4077C197.794 101.322 195.192 104.878 191.06 102.198L183.502 99.7502L170.068 106.407Z" fill="#263238"/>
<path d="M192.719 101.57C190.701 103.958 183.048 103.417 183.048 103.417L185.556 100.669C183.886 101.905 181.817 102.477 179.749 102.275C175.996 102.06 178.032 98.2034 178.032 98.2034C178.032 98.2034 196.516 97.061 192.719 101.57Z" fill="#263238"/>
<path d="M169.382 106.208C169.306 107.925 169.866 109.61 170.954 110.94C172.379 112.658 174.578 111.284 175.094 109.171C175.549 107.273 174.956 104.327 173.084 103.416C171.211 102.506 169.476 104.078 169.382 106.208Z" fill="#B55B52"/>
<path d="M168.635 101.269C168.441 99.9813 168.52 98.667 168.868 97.4119C169.215 96.1568 169.824 94.9892 170.654 93.9854C169.949 94.1486 167.742 92.8516 171.805 90.1374C175.867 87.4232 184.302 86.7018 188.502 88.7718C196.731 92.8087 194.455 97.5843 194.455 97.5843L168.635 101.269Z" fill="#3B62EC"/>
<path opacity="0.3" d="M168.635 101.269C168.441 99.9813 168.52 98.667 168.868 97.4119C169.215 96.1568 169.824 94.9892 170.654 93.9854C169.949 94.1486 167.742 92.8516 171.805 90.1374C175.867 87.4232 184.302 86.7018 188.502 88.7718C196.731 92.8087 194.455 97.5843 194.455 97.5843L168.635 101.269Z" fill="#161616"/>
<path d="M168.798 106.165C170.224 106.217 171.606 101.914 183.692 99.7405C188.57 98.8816 193.681 100.428 195.107 101.836C196.532 103.245 195.862 98.6153 195.347 96.9576C194.832 95.2999 187.282 93.9772 182.377 94.5698C173.865 95.5919 168.755 99.9295 168.051 101.02C167.346 102.111 167.492 106.131 168.798 106.165Z" fill="#3B62EC"/>
<path d="M173.246 107.368C173.409 107.711 173.435 108.102 173.319 108.463C173.202 108.824 172.952 109.127 172.619 109.309C171.992 109.507 171.254 108.974 170.97 108.107C170.807 107.764 170.782 107.373 170.898 107.012C171.015 106.651 171.265 106.348 171.597 106.166C172.224 105.968 172.963 106.509 173.246 107.368Z" fill="#263238"/>
<path d="M174.259 188.57C172.782 188.57 171.802 188.175 171.261 187.359C169.939 185.383 171.631 181.304 173.426 176.983C175.144 172.946 176.862 168.763 176.381 165.894C175.522 160.423 176.312 153.517 177.085 146.844C177.343 144.645 177.583 142.549 177.763 140.556C174.439 137.121 171.09 132.714 172.85 123.644C174.018 117.632 173.761 112.65 172.086 108.785C172.072 108.756 172.064 108.725 172.062 108.693C172.06 108.661 172.065 108.629 172.077 108.6C172.088 108.57 172.105 108.543 172.128 108.52C172.15 108.497 172.177 108.479 172.206 108.467C172.265 108.44 172.333 108.438 172.394 108.461C172.455 108.483 172.505 108.529 172.533 108.587C174.25 112.555 174.517 117.649 173.331 123.739C171.613 132.646 174.929 136.957 178.193 140.29C178.238 140.346 178.259 140.416 178.253 140.488C178.073 142.54 177.832 144.662 177.566 146.904C176.801 153.543 176.003 160.415 176.862 165.8C177.343 168.806 175.582 173.049 173.872 177.155C172.163 181.261 170.488 185.315 171.665 187.075C172.112 187.745 172.962 188.072 174.242 188.072C174.306 188.072 174.367 188.097 174.412 188.142C174.457 188.187 174.482 188.249 174.482 188.312C174.482 188.376 174.457 188.437 174.412 188.482C174.367 188.528 174.306 188.553 174.242 188.553L174.259 188.57Z" fill="#263238"/>
<path d="M185.434 107.77C185.236 108.38 185.434 108.99 185.786 109.136C186.138 109.282 186.645 108.904 186.851 108.277C187.057 107.65 186.903 107.057 186.507 106.911C186.112 106.765 185.631 107.16 185.434 107.77Z" fill="#263238"/>
<path d="M193.662 110.732C193.846 110.118 193.671 109.524 193.271 109.404C192.871 109.284 192.398 109.684 192.214 110.298C192.03 110.911 192.205 111.505 192.605 111.625C193.005 111.745 193.478 111.345 193.662 110.732Z" fill="#263238"/>
<path d="M189.9 109.943C189.872 111.759 190.086 113.57 190.536 115.329C189.316 115.775 187.959 114.719 187.959 114.719L189.9 109.943Z" fill="#A02724"/>
<path d="M186.26 118.061C185.556 117.826 184.907 117.451 184.351 116.96C183.794 116.468 183.343 115.87 183.022 115.201C183.005 115.155 183.006 115.105 183.025 115.06C183.044 115.015 183.08 114.979 183.125 114.96C183.148 114.951 183.173 114.945 183.198 114.945C183.223 114.945 183.248 114.95 183.271 114.96C183.294 114.969 183.315 114.983 183.333 115.001C183.351 115.019 183.365 115.04 183.374 115.063C183.73 115.786 184.248 116.418 184.887 116.909C185.525 117.401 186.269 117.739 187.059 117.898C187.108 117.908 187.151 117.938 187.178 117.979C187.205 118.021 187.215 118.072 187.205 118.121C187.194 118.17 187.165 118.213 187.123 118.24C187.081 118.268 187.03 118.277 186.982 118.267C186.737 118.213 186.496 118.144 186.26 118.061Z" fill="#263238"/>
<path d="M184.809 105.145C184.753 105.114 184.706 105.07 184.672 105.016C184.645 104.975 184.627 104.928 184.619 104.88C184.61 104.831 184.612 104.781 184.623 104.733C184.634 104.685 184.655 104.64 184.684 104.6C184.713 104.56 184.75 104.526 184.792 104.501C185.283 104.171 185.847 103.966 186.436 103.904C187.024 103.843 187.619 103.927 188.167 104.149C188.216 104.167 188.261 104.196 188.298 104.233C188.336 104.269 188.365 104.313 188.385 104.362C188.404 104.411 188.413 104.463 188.412 104.515C188.41 104.568 188.397 104.619 188.374 104.666C188.352 104.713 188.319 104.755 188.28 104.79C188.24 104.824 188.193 104.849 188.143 104.864C188.093 104.879 188.04 104.884 187.988 104.878C187.936 104.871 187.886 104.854 187.841 104.827C187.408 104.661 186.942 104.602 186.481 104.654C186.021 104.707 185.58 104.869 185.196 105.128C185.138 105.165 185.072 105.185 185.005 105.188C184.937 105.191 184.869 105.177 184.809 105.145Z" fill="#263238"/>
<path d="M193.577 106.334C193.56 106.272 193.56 106.207 193.577 106.145C193.615 106.053 193.688 105.98 193.78 105.942C193.871 105.903 193.974 105.902 194.067 105.939C194.618 106.154 195.108 106.502 195.493 106.951C195.878 107.401 196.146 107.938 196.274 108.516C196.276 108.607 196.245 108.696 196.187 108.766C196.128 108.836 196.047 108.882 195.957 108.897C195.867 108.911 195.775 108.893 195.697 108.845C195.62 108.797 195.562 108.723 195.535 108.636C195.426 108.184 195.208 107.765 194.902 107.415C194.595 107.065 194.208 106.795 193.775 106.626C193.719 106.599 193.671 106.558 193.637 106.507C193.602 106.456 193.581 106.396 193.577 106.334Z" fill="#263238"/>
<path d="M161.479 135.479C160.766 136.768 159.984 138.236 159.246 139.628C158.507 141.019 157.777 142.471 157.073 143.922C155.655 146.783 154.324 149.66 153.113 152.512C151.928 155.304 150.935 158.174 150.141 161.101C149.803 162.386 149.562 163.696 149.42 165.018C149.274 166.16 149.48 167.397 149.42 167.13C149.823 167.822 150.382 168.41 151.052 168.848C152.127 169.648 153.278 170.341 154.487 170.918C157.264 172.25 160.135 173.375 163.077 174.285C166.048 175.222 169.209 176.08 172.31 176.939C175.411 177.798 178.683 178.468 181.81 179.155L181.226 185.091C174.365 184.981 167.527 184.265 160.792 182.952C157.281 182.278 153.833 181.309 150.485 180.057C148.632 179.357 146.852 178.48 145.168 177.438C142.988 176.147 141.166 174.331 139.868 172.155C139.476 171.438 139.162 170.681 138.932 169.896L138.769 169.304L138.675 168.84C138.597 168.522 138.554 168.23 138.503 167.921C138.341 166.797 138.269 165.663 138.288 164.528C138.333 162.533 138.56 160.546 138.967 158.593C139.699 155.036 140.722 151.546 142.024 148.157C143.253 144.859 144.653 141.681 146.156 138.571C146.912 137.014 147.693 135.476 148.501 133.959C149.308 132.413 150.124 130.97 151.077 129.381L161.479 135.479Z" fill="#B55B52"/>
<path d="M154.942 123.833C162.947 122.614 166.881 129.485 163.119 139.741C161.166 145.289 158.717 150.651 155.801 155.759L138.545 148.192C141.637 138.04 146.73 125.079 154.942 123.833Z" fill="#3B62EC"/>
<path d="M182.507 179.226L187.3 180.866L180.936 186.948C180.936 186.948 173.162 184.156 174.751 180.78L176.71 179.664C177.591 179.188 178.563 178.902 179.562 178.827C180.561 178.751 181.564 178.887 182.507 179.226Z" fill="#B55B52"/>
<path d="M192.943 184.097L185.753 188.331L180.943 186.948L187.299 180.867L192.943 184.097Z" fill="#B55B52"/>
<path d="M306.029 188.689H127.699V194.496H306.029V188.689Z" fill="#3B62EC"/>
<path opacity="0.6" d="M306.029 188.689H127.699V194.496H306.029V188.689Z" fill="white"/>
<path opacity="0.5" d="M127.69 194.496H163.275V188.69H127.69V194.496Z" fill="#3B62EC"/>
<path d="M257.73 186.766H173.701C173.192 186.768 172.704 186.971 172.343 187.332C171.983 187.692 171.78 188.18 171.777 188.689H259.662C259.66 188.178 259.455 187.689 259.093 187.328C258.731 186.968 258.241 186.765 257.73 186.766Z" fill="#3B62EC"/>
<path d="M268.843 147.452H211.424C211.057 147.47 210.704 147.602 210.415 147.83C210.125 148.058 209.914 148.37 209.81 148.723L200.361 184.145C200.307 184.292 200.29 184.449 200.312 184.604C200.334 184.759 200.394 184.907 200.487 185.033C200.58 185.159 200.702 185.26 200.844 185.327C200.985 185.394 201.141 185.424 201.298 185.416H258.742C259.111 185.405 259.466 185.275 259.756 185.046C260.045 184.817 260.253 184.501 260.348 184.145L269.797 148.723C269.852 148.574 269.869 148.415 269.846 148.258C269.823 148.102 269.762 147.954 269.667 147.827C269.572 147.701 269.447 147.6 269.303 147.534C269.159 147.469 269.001 147.44 268.843 147.452Z" fill="#3B62EC"/>
<path opacity="0.2" d="M209.81 148.724L200.361 184.146C200.307 184.293 200.29 184.451 200.312 184.606C200.334 184.761 200.394 184.908 200.487 185.034C200.58 185.16 200.702 185.261 200.844 185.328C200.985 185.395 201.141 185.426 201.298 185.417L211.399 147.453C211.035 147.477 210.688 147.611 210.404 147.839C210.12 148.066 209.912 148.375 209.81 148.724Z" fill="#161616"/>
<path opacity="0.2" d="M198.224 186.766H173.701C173.192 186.768 172.704 186.971 172.343 187.332C171.983 187.692 171.78 188.18 171.777 188.689H200.122C200.12 188.184 199.92 187.7 199.565 187.34C199.21 186.981 198.729 186.774 198.224 186.766Z" fill="#161616"/>
<path d="M164.536 310.276H167.972L163.153 283.735H166.151V280.3H162.509L147.547 197.895H149.754V194.459H141.217V197.895H143.441L128.479 280.3H124.854V283.735H127.852L123.033 310.276H126.469L131.287 283.735H159.761L164.536 310.276ZM131.897 280.317L145.511 205.376L159.117 280.317H131.897Z" fill="#3B62EC"/>
<path d="M305.985 307.115H309.42L304.602 283.735H307.599V280.3H303.975L289.012 197.895H291.177V194.459H282.639V197.895H284.847L269.884 280.3H266.268V283.735H269.266L264.447 307.115H267.883L272.701 283.735H301.166L305.985 307.115ZM273.346 280.317L286.951 205.376L300.565 280.317H273.346Z" fill="#3B62EC"/>
<path d="M290.119 186.766H268.096C267.749 186.766 267.469 187.046 267.469 187.393V188.062C267.469 188.409 267.749 188.689 268.096 188.689H290.119C290.465 188.689 290.746 188.409 290.746 188.062V187.393C290.746 187.046 290.465 186.766 290.119 186.766Z" fill="#263238"/>
<path opacity="0.9" d="M228.988 140.81C228.831 140.812 228.676 140.781 228.532 140.718C228.388 140.656 228.259 140.563 228.153 140.447C228.048 140.331 227.968 140.194 227.92 140.045C227.871 139.896 227.855 139.738 227.872 139.582L231.402 99.8651C231.437 99.5323 231.593 99.2239 231.84 98.9978C232.087 98.7717 232.407 98.6433 232.742 98.6368H281.082C281.239 98.6347 281.395 98.6659 281.538 98.7284C281.682 98.7909 281.811 98.8833 281.917 98.9994C282.023 99.1155 282.102 99.2527 282.151 99.402C282.199 99.5512 282.216 99.7091 282.199 99.8651L278.668 139.582C278.633 139.914 278.477 140.223 278.231 140.449C277.984 140.675 277.663 140.803 277.329 140.81H228.988Z" fill="#DBDBDB"/>
<path d="M269.772 110.999H241.797L241.891 109.969H269.866L269.772 110.999Z" fill="white"/>
<path d="M274.162 112.646H244.529L244.615 111.615H274.257L274.162 112.646Z" fill="white"/>
<path d="M268.939 114.296H244.383L244.469 113.266H269.025L268.939 114.296Z" fill="white"/>
<path d="M266.223 115.945H244.234L244.32 114.914H266.317L266.223 115.945Z" fill="white"/>
<path d="M259.3 118.633H241.125L241.211 117.594H259.386L259.3 118.633Z" fill="white"/>
<path d="M263.157 122.543H243.643L243.557 123.582H263.063L263.157 122.543Z" fill="white"/>
<path d="M259.964 120.893H243.791L243.705 121.932H259.87L259.964 120.893Z" fill="white"/>
<path d="M261.75 119.244H243.936L243.85 120.283H261.655L261.75 119.244Z" fill="white"/>
<path d="M258.177 131.208H240.002L240.096 130.178H258.271L258.177 131.208Z" fill="white"/>
<path d="M262.041 135.123H242.526L242.432 136.154H261.946L262.041 135.123Z" fill="white"/>
<path d="M258.847 133.477H242.674L242.588 134.507H258.753L258.847 133.477Z" fill="white"/>
<path d="M260.632 131.826H242.818L242.732 132.857H260.538L260.632 131.826Z" fill="white"/>
<path d="M250.842 103.311H236.086L236.172 102.271H250.937L250.842 103.311Z" fill="white"/>
<path d="M253.914 107.217H238.067L237.973 108.256H253.82L253.914 107.217Z" fill="white"/>
<path d="M251.34 105.57H238.216L238.121 106.61H251.254L251.34 105.57Z" fill="white"/>
<path d="M252.816 103.918H238.36L238.266 104.957H252.73L252.816 103.918Z" fill="white"/>
<path d="M262.721 127.488H243.206L243.111 128.528H262.626L262.721 127.488Z" fill="white"/>
<path d="M259.524 125.84H243.35L243.256 126.879H259.429L259.524 125.84Z" fill="white"/>
<path d="M261.31 124.189H243.496L243.41 125.229H261.216L261.31 124.189Z" fill="white"/>
<path d="M296.946 93.1222H264.728C264.444 93.1263 264.161 93.0699 263.9 92.9568C263.639 92.8437 263.405 92.6765 263.214 92.4662C263.022 92.2559 262.877 92.0074 262.789 91.737C262.701 91.4666 262.671 91.1805 262.701 90.8976L265.123 63.6612C265.184 63.0785 265.456 62.5383 265.888 62.1426C266.32 61.747 266.882 61.5233 267.468 61.5139H299.678C299.962 61.5098 300.244 61.5662 300.505 61.6793C300.766 61.7923 301 61.9596 301.192 62.1698C301.384 62.3801 301.528 62.6287 301.617 62.8991C301.705 63.1695 301.735 63.4556 301.705 63.7385L299.282 90.9749C299.224 91.5568 298.953 92.0969 298.523 92.4928C298.092 92.8886 297.531 93.1125 296.946 93.1222ZM267.468 62.3728C267.096 62.3809 266.739 62.5238 266.464 62.7749C266.189 63.0261 266.015 63.3685 265.973 63.7385L263.56 90.9749C263.54 91.1401 263.555 91.3076 263.606 91.4662C263.656 91.6248 263.74 91.7707 263.852 91.894C263.962 92.0109 264.095 92.1041 264.243 92.1676C264.391 92.2311 264.55 92.2637 264.711 92.2633H296.929C297.3 92.255 297.656 92.1118 297.929 91.8605C298.203 91.6091 298.375 91.2669 298.415 90.8976L300.837 63.6612C300.853 63.4969 300.834 63.3311 300.782 63.1744C300.73 63.0177 300.647 62.8735 300.536 62.7507C300.427 62.6318 300.294 62.5368 300.147 62.4717C299.999 62.4067 299.839 62.373 299.678 62.3728H267.468Z" fill="white"/>
<path d="M300.795 69.6304H265.064C264.95 69.6304 264.841 69.5852 264.761 69.5046C264.68 69.4241 264.635 69.3148 264.635 69.2009C264.635 69.087 264.68 68.9778 264.761 68.8973C264.841 68.8167 264.95 68.7715 265.064 68.7715H300.795C300.909 68.7715 301.019 68.8167 301.099 68.8973C301.18 68.9778 301.225 69.087 301.225 69.2009C301.223 69.3142 301.177 69.4221 301.097 69.5022C301.017 69.5822 300.909 69.6282 300.795 69.6304Z" fill="white"/>
<path d="M271.422 93.1229H271.379C271.323 93.1186 271.268 93.1031 271.218 93.0773C271.168 93.0515 271.124 93.0159 271.088 92.9726C271.052 92.9294 271.025 92.8794 271.008 92.8255C270.992 92.7716 270.987 92.715 270.993 92.659L273.08 69.1589C273.093 69.0473 273.148 68.945 273.234 68.873C273.321 68.8011 273.431 68.7651 273.544 68.7724C273.6 68.7768 273.655 68.7922 273.706 68.8179C273.756 68.8436 273.801 68.879 273.838 68.9221C273.874 68.9652 273.902 69.0152 273.919 69.0691C273.937 69.123 273.943 69.1798 273.939 69.2362L271.843 92.7621C271.825 92.8615 271.773 92.9518 271.697 93.0175C271.62 93.0833 271.523 93.1205 271.422 93.1229Z" fill="white"/>
<path d="M296.603 72.4214H277.209C277.095 72.4214 276.986 72.3762 276.905 72.2956C276.825 72.2151 276.779 72.1059 276.779 71.992C276.779 71.8781 276.825 71.7688 276.905 71.6883C276.986 71.6077 277.095 71.5625 277.209 71.5625H296.603C296.717 71.5625 296.826 71.6077 296.907 71.6883C296.987 71.7688 297.033 71.8781 297.033 71.992C297.033 72.1059 296.987 72.2151 296.907 72.2956C296.826 72.3762 296.717 72.4214 296.603 72.4214Z" fill="white"/>
<path d="M293.565 75.8511H276.902C276.789 75.8489 276.681 75.803 276.601 75.7229C276.521 75.6428 276.475 75.5349 276.473 75.4216C276.473 75.3077 276.518 75.1985 276.598 75.118C276.679 75.0374 276.788 74.9922 276.902 74.9922H293.565C293.679 74.9922 293.788 75.0374 293.869 75.118C293.949 75.1985 293.995 75.3077 293.995 75.4216C293.995 75.5355 293.949 75.6448 293.869 75.7253C293.788 75.8059 293.679 75.8511 293.565 75.8511Z" fill="white"/>
<path d="M286.288 79.3785H276.574C276.46 79.3785 276.351 79.3332 276.27 79.2527C276.19 79.1721 276.145 79.0629 276.145 78.949C276.145 78.8351 276.19 78.7259 276.27 78.6453C276.351 78.5648 276.46 78.5195 276.574 78.5195H286.271C286.384 78.5217 286.492 78.5677 286.572 78.6477C286.653 78.7278 286.698 78.8358 286.701 78.949C286.701 79.06 286.658 79.1667 286.581 79.2467C286.504 79.3268 286.399 79.374 286.288 79.3785Z" fill="white"/>
<path d="M287.819 86.2788H275.974C275.86 86.2788 275.751 86.2336 275.671 86.1531C275.59 86.0725 275.545 85.9633 275.545 85.8494C275.547 85.7362 275.593 85.6282 275.673 85.5481C275.753 85.4681 275.861 85.4221 275.974 85.4199H287.819C287.932 85.4221 288.04 85.4681 288.12 85.5481C288.2 85.6282 288.246 85.7362 288.248 85.8494C288.248 85.9058 288.237 85.9616 288.216 86.0137C288.194 86.0658 288.162 86.1132 288.123 86.1531C288.083 86.1929 288.035 86.2246 287.983 86.2462C287.931 86.2677 287.875 86.2788 287.819 86.2788Z" fill="white"/>
<path d="M285.361 89.816H275.664C275.55 89.816 275.441 89.7707 275.36 89.6902C275.28 89.6096 275.234 89.5004 275.234 89.3865C275.234 89.2726 275.28 89.1634 275.36 89.0828C275.441 89.0023 275.55 88.957 275.664 88.957H285.361C285.475 88.957 285.584 89.0023 285.665 89.0828C285.745 89.1634 285.791 89.2726 285.791 89.3865C285.791 89.5004 285.745 89.6096 285.665 89.6902C285.584 89.7707 285.475 89.816 285.361 89.816Z" fill="white"/>
<path d="M291.039 89.816H287.929C287.816 89.816 287.706 89.7707 287.626 89.6902C287.545 89.6096 287.5 89.5004 287.5 89.3865C287.5 89.2726 287.545 89.1634 287.626 89.0828C287.706 89.0023 287.816 88.957 287.929 88.957H291.039C291.153 88.957 291.262 89.0023 291.342 89.0828C291.423 89.1634 291.468 89.2726 291.468 89.3865C291.468 89.5004 291.423 89.6096 291.342 89.6902C291.262 89.7707 291.153 89.816 291.039 89.816Z" fill="white"/>
<path d="M294.447 82.8081H276.281C276.167 82.8081 276.058 82.7629 275.977 82.6823C275.897 82.6018 275.852 82.4926 275.852 82.3787C275.852 82.2648 275.897 82.1555 275.977 82.075C276.058 81.9945 276.167 81.9492 276.281 81.9492H294.447C294.561 81.9492 294.67 81.9945 294.751 82.075C294.831 82.1555 294.877 82.2648 294.877 82.3787C294.877 82.4926 294.831 82.6018 294.751 82.6823C294.67 82.7629 294.561 82.8081 294.447 82.8081Z" fill="white"/>
<path d="M230.314 90.4534C230.198 90.4531 230.087 90.4068 230.005 90.3246C229.927 90.2443 229.882 90.1364 229.882 90.0239C229.882 89.9115 229.927 89.8036 230.005 89.7233L232.153 87.576L230.005 85.4373C229.965 85.3973 229.933 85.3497 229.912 85.2974C229.89 85.2451 229.879 85.189 229.879 85.1324C229.879 85.0758 229.89 85.0197 229.912 84.9674C229.933 84.9151 229.965 84.8675 230.005 84.8275C230.045 84.7874 230.093 84.7557 230.145 84.734C230.197 84.7123 230.253 84.7012 230.31 84.7012C230.367 84.7012 230.423 84.7123 230.475 84.734C230.527 84.7557 230.575 84.7874 230.615 84.8275L233.063 87.2754C233.142 87.3571 233.186 87.4665 233.186 87.5803C233.186 87.6941 233.142 87.8035 233.063 87.8852L230.615 90.3246C230.576 90.365 230.529 90.3973 230.478 90.4194C230.426 90.4415 230.371 90.4531 230.314 90.4534Z" fill="#DBDBDB"/>
<path d="M222.978 90.4534C222.921 90.4531 222.866 90.4415 222.814 90.4194C222.763 90.3973 222.716 90.365 222.677 90.3246L220.229 87.8852C220.15 87.8035 220.105 87.6941 220.105 87.5803C220.105 87.4665 220.15 87.3571 220.229 87.2754L222.677 84.8275C222.717 84.7874 222.765 84.7557 222.817 84.734C222.869 84.7123 222.925 84.7012 222.982 84.7012C223.038 84.7012 223.095 84.7123 223.147 84.734C223.199 84.7557 223.247 84.7874 223.287 84.8275C223.327 84.8675 223.359 84.9151 223.38 84.9674C223.402 85.0197 223.413 85.0758 223.413 85.1324C223.413 85.189 223.402 85.2451 223.38 85.2974C223.359 85.3497 223.327 85.3973 223.287 85.4373L221.139 87.576L223.287 89.7233C223.365 89.8036 223.41 89.9115 223.41 90.0239C223.41 90.1364 223.365 90.2443 223.287 90.3246C223.205 90.4068 223.094 90.4531 222.978 90.4534Z" fill="#DBDBDB"/>
<path d="M225.726 90.4517C225.678 90.4599 225.629 90.4599 225.58 90.4517C225.475 90.4112 225.39 90.3309 225.343 90.228C225.296 90.1251 225.292 90.008 225.331 89.902L227.161 85.0061C227.201 84.9007 227.282 84.8154 227.384 84.7688C227.487 84.7221 227.604 84.7179 227.71 84.757C227.818 84.7958 227.905 84.8755 227.953 84.9786C228.001 85.0816 228.007 85.1997 227.968 85.3068L226.13 90.2026C226.096 90.2799 226.039 90.345 225.967 90.3894C225.895 90.4339 225.811 90.4556 225.726 90.4517Z" fill="#DBDBDB"/>
<path d="M285.103 153.832C285.047 153.833 284.991 153.822 284.94 153.8C284.888 153.778 284.841 153.745 284.803 153.704C284.763 153.664 284.731 153.616 284.709 153.564C284.687 153.512 284.676 153.455 284.676 153.399C284.676 153.342 284.687 153.286 284.709 153.234C284.731 153.181 284.763 153.134 284.803 153.094L286.942 150.955L284.803 148.808C284.723 148.728 284.678 148.62 284.678 148.507C284.678 148.394 284.723 148.286 284.803 148.207C284.883 148.127 284.991 148.082 285.103 148.082C285.216 148.082 285.324 148.127 285.404 148.207L287.852 150.646C287.933 150.729 287.979 150.839 287.981 150.955C287.978 151.068 287.932 151.176 287.852 151.256L285.404 153.747C285.362 153.78 285.314 153.805 285.262 153.82C285.211 153.835 285.157 153.839 285.103 153.832Z" fill="white"/>
<path d="M277.768 153.833C277.709 153.843 277.649 153.84 277.591 153.825C277.534 153.811 277.48 153.784 277.433 153.747L274.985 151.299C274.906 151.218 274.861 151.108 274.861 150.994C274.861 150.881 274.906 150.771 274.985 150.689L277.433 148.25C277.473 148.21 277.52 148.178 277.573 148.156C277.625 148.134 277.681 148.123 277.738 148.123C277.794 148.123 277.851 148.134 277.903 148.156C277.955 148.178 278.003 148.21 278.043 148.25C278.121 148.33 278.165 148.438 278.165 148.551C278.165 148.663 278.121 148.771 278.043 148.851L275.895 150.999L278.043 153.137C278.122 153.219 278.166 153.328 278.166 153.442C278.166 153.556 278.122 153.665 278.043 153.747C277.963 153.806 277.866 153.836 277.768 153.833Z" fill="white"/>
<path d="M280.525 153.832C280.474 153.844 280.421 153.844 280.37 153.832C280.317 153.812 280.268 153.783 280.227 153.745C280.186 153.707 280.153 153.661 280.129 153.609C280.106 153.558 280.093 153.503 280.092 153.446C280.09 153.39 280.1 153.334 280.121 153.282L281.95 148.386C281.99 148.279 282.071 148.192 282.175 148.144C282.279 148.097 282.397 148.093 282.504 148.133C282.611 148.172 282.698 148.253 282.746 148.357C282.793 148.461 282.798 148.579 282.758 148.687L280.92 153.582C280.886 153.658 280.83 153.722 280.76 153.767C280.69 153.811 280.608 153.834 280.525 153.832Z" fill="white"/>
<path d="M265.707 56.43C265.591 56.4297 265.48 56.3834 265.398 56.3011C265.319 56.2209 265.275 56.1129 265.275 56.0005C265.275 55.8881 265.319 55.7802 265.398 55.6999L267.545 53.5526L265.398 51.4139C265.317 51.333 265.271 51.2233 265.271 51.109C265.271 50.9946 265.317 50.8849 265.398 50.804C265.479 50.7232 265.588 50.6777 265.703 50.6777C265.817 50.6777 265.927 50.7232 266.008 50.804L268.456 53.252C268.535 53.3337 268.579 53.4431 268.579 53.5569C268.579 53.6707 268.535 53.7801 268.456 53.8618L266.008 56.3011C265.969 56.3416 265.922 56.3738 265.87 56.396C265.819 56.4181 265.763 56.4296 265.707 56.43Z" fill="white"/>
<path d="M258.374 56.43C258.261 56.4284 258.153 56.3821 258.073 56.3011L255.625 53.8618C255.546 53.7801 255.502 53.6707 255.502 53.5569C255.502 53.4431 255.546 53.3337 255.625 53.252L258.073 50.804C258.154 50.7232 258.264 50.6777 258.378 50.6777C258.493 50.6777 258.602 50.7232 258.683 50.804C258.764 50.8849 258.81 50.9946 258.81 51.109C258.81 51.2233 258.764 51.333 258.683 51.4139L256.536 53.5526L258.683 55.6999C258.762 55.7802 258.806 55.8881 258.806 56.0005C258.806 56.1129 258.762 56.2209 258.683 56.3011C258.601 56.3834 258.49 56.4297 258.374 56.43Z" fill="white"/>
<path d="M261.113 56.4283H260.967C260.862 56.3878 260.776 56.3074 260.73 56.2045C260.683 56.1016 260.679 55.9845 260.718 55.8785L262.547 50.9827C262.588 50.8772 262.668 50.7919 262.771 50.7453C262.874 50.6987 262.991 50.6945 263.097 50.7336C263.204 50.7724 263.291 50.852 263.34 50.9551C263.388 51.0582 263.394 51.1762 263.355 51.2833L261.517 56.1792C261.482 56.2565 261.425 56.3216 261.353 56.366C261.281 56.4104 261.198 56.4321 261.113 56.4283Z" fill="white"/>
</svg>
